<?xml version="1.0" encoding="utf-8" standalone="no"?>
<!DOCTYPE svg PUBLIC "-//W3C//DTD SVG 1.1//EN"
  "http://www.w3.org/Graphics/SVG/1.1/DTD/svg11.dtd">
<svg xmlns:xlink="http://www.w3.org/1999/xlink" width="460.8pt" height="345.6pt" viewBox="0 0 460.8 345.6" xmlns="http://www.w3.org/2000/svg" version="1.1">
 <metadata>
  <rdf:RDF xmlns:dc="http://purl.org/dc/elements/1.1/" xmlns:cc="http://creativecommons.org/ns#" xmlns:rdf="http://www.w3.org/1999/02/22-rdf-syntax-ns#">
   <cc:Work>
    <dc:type rdf:resource="http://purl.org/dc/dcmitype/StillImage"/>
    <dc:date>2022-12-02T14:53:38.506000</dc:date>
    <dc:format>image/svg+xml</dc:format>
    <dc:creator>
     <cc:Agent>
      <dc:title>Matplotlib v3.5.3, https://matplotlib.org/</dc:title>
     </cc:Agent>
    </dc:creator>
   </cc:Work>
  </rdf:RDF>
 </metadata>
 <defs>
  <style type="text/css">*{stroke-linejoin: round; stroke-linecap: butt}</style>
 </defs>
 <g id="figure_1">
  <g id="patch_1">
   <path d="M 0 345.6 
L 460.8 345.6 
L 460.8 0 
L 0 0 
z
" style="fill: #ffffff"/>
  </g>
  <g id="axes_1">
   <g id="patch_2">
    <path d="M 24.46 161.12 
L 149.64 161.12 
L 149.64 46.32 
L 24.46 46.32 
z
" style="fill: #ffffff"/>
   </g>
   <g id="matplotlib.axis_1">
    <g id="xtick_1">
     <g id="line2d_1">
      <defs>
       <path id="m6994cd1538" d="M 0 0 
L 0 3.5 
" style="stroke: #000000; stroke-width: 0.8"/>
      </defs>
      <g>
       <use xlink:href="#m6994cd1538" x="30.15" y="161.12" style="stroke: #000000; stroke-width: 0.8"/>
      </g>
     </g>
     <g id="text_1">
      <!-- 0 -->
      <g transform="translate(27.362187 175.601719)scale(0.11 -0.11)">
       <defs>
        <path id="Calibri-30" d="M 3022 2031 
Q 3022 1566 2948 1181 
Q 2875 797 2704 520 
Q 2534 244 2259 92 
Q 1984 -59 1581 -59 
Q 1200 -59 939 77 
Q 678 213 518 477 
Q 359 741 292 1127 
Q 225 1513 225 2013 
Q 225 2475 300 2861 
Q 375 3247 544 3523 
Q 713 3800 988 3951 
Q 1263 4103 1663 4103 
Q 2047 4103 2308 3967 
Q 2569 3831 2728 3567 
Q 2888 3303 2955 2917 
Q 3022 2531 3022 2031 
z
M 2472 1994 
Q 2472 2297 2450 2537 
Q 2428 2778 2386 2962 
Q 2344 3147 2276 3280 
Q 2209 3413 2115 3498 
Q 2022 3584 1901 3623 
Q 1781 3663 1631 3663 
Q 1366 3663 1200 3538 
Q 1034 3413 939 3194 
Q 844 2975 809 2681 
Q 775 2388 775 2050 
Q 775 1597 822 1280 
Q 869 963 970 763 
Q 1072 563 1230 472 
Q 1388 381 1613 381 
Q 1788 381 1920 437 
Q 2053 494 2148 598 
Q 2244 703 2306 850 
Q 2369 997 2406 1175 
Q 2444 1353 2458 1561 
Q 2472 1769 2472 1994 
z
" transform="scale(0.015625)"/>
       </defs>
       <use xlink:href="#Calibri-30"/>
      </g>
     </g>
    </g>
    <g id="xtick_2">
     <g id="line2d_2">
      <g>
       <use xlink:href="#m6994cd1538" x="81.227199" y="161.12" style="stroke: #000000; stroke-width: 0.8"/>
      </g>
     </g>
     <g id="text_2">
      <!-- 250 -->
      <g transform="translate(72.863762 175.601719)scale(0.11 -0.11)">
       <defs>
        <path id="Calibri-32" d="M 2888 231 
Q 2888 175 2880 131 
Q 2872 88 2858 58 
Q 2844 28 2820 14 
Q 2797 0 2769 0 
L 534 0 
Q 491 0 458 11 
Q 425 22 401 47 
Q 378 72 367 119 
Q 356 166 356 234 
Q 356 297 361 344 
Q 366 391 381 427 
Q 397 463 420 498 
Q 444 534 481 575 
L 1266 1406 
Q 1538 1694 1702 1922 
Q 1866 2150 1955 2337 
Q 2044 2525 2072 2678 
Q 2100 2831 2100 2966 
Q 2100 3100 2056 3220 
Q 2013 3341 1930 3431 
Q 1847 3522 1722 3575 
Q 1597 3628 1434 3628 
Q 1244 3628 1092 3575 
Q 941 3522 827 3459 
Q 713 3397 636 3344 
Q 559 3291 522 3291 
Q 500 3291 483 3303 
Q 466 3316 455 3344 
Q 444 3372 437 3419 
Q 431 3466 431 3531 
Q 431 3578 434 3612 
Q 438 3647 445 3672 
Q 453 3697 465 3719 
Q 478 3741 515 3773 
Q 553 3806 645 3862 
Q 738 3919 877 3973 
Q 1016 4028 1183 4065 
Q 1350 4103 1534 4103 
Q 1828 4103 2048 4020 
Q 2269 3938 2414 3794 
Q 2559 3650 2631 3459 
Q 2703 3269 2703 3053 
Q 2703 2859 2668 2667 
Q 2634 2475 2523 2251 
Q 2413 2028 2203 1754 
Q 1994 1481 1647 1125 
L 1006 456 
L 2766 456 
Q 2791 456 2814 442 
Q 2838 428 2855 400 
Q 2872 372 2880 330 
Q 2888 288 2888 231 
z
" transform="scale(0.015625)"/>
        <path id="Calibri-35" d="M 2869 1300 
Q 2869 975 2759 722 
Q 2650 469 2450 295 
Q 2250 122 1973 31 
Q 1697 -59 1359 -59 
Q 1172 -59 1003 -32 
Q 834 -6 703 33 
Q 572 72 487 109 
Q 403 147 379 169 
Q 356 191 347 209 
Q 338 228 330 254 
Q 322 281 319 322 
Q 316 363 316 419 
Q 316 472 320 514 
Q 325 556 337 582 
Q 350 609 367 621 
Q 384 634 406 634 
Q 438 634 503 595 
Q 569 556 680 511 
Q 791 466 955 425 
Q 1119 384 1344 384 
Q 1553 384 1728 434 
Q 1903 484 2029 590 
Q 2156 697 2228 858 
Q 2300 1019 2300 1250 
Q 2300 1444 2239 1592 
Q 2178 1741 2051 1839 
Q 1925 1938 1731 1986 
Q 1538 2034 1269 2034 
Q 1078 2034 940 2015 
Q 803 1997 684 1997 
Q 597 1997 559 2037 
Q 522 2078 522 2194 
L 522 3841 
Q 522 3944 570 3994 
Q 619 4044 709 4044 
L 2500 4044 
Q 2525 4044 2548 4030 
Q 2572 4016 2587 3987 
Q 2603 3959 2611 3915 
Q 2619 3872 2619 3813 
Q 2619 3700 2587 3637 
Q 2556 3575 2500 3575 
L 991 3575 
L 991 2441 
Q 1100 2456 1214 2459 
Q 1328 2463 1478 2463 
Q 1825 2463 2084 2380 
Q 2344 2297 2517 2145 
Q 2691 1994 2780 1778 
Q 2869 1563 2869 1300 
z
" transform="scale(0.015625)"/>
       </defs>
       <use xlink:href="#Calibri-32"/>
       <use xlink:href="#Calibri-35" x="50.683594"/>
       <use xlink:href="#Calibri-30" x="101.367188"/>
      </g>
     </g>
    </g>
    <g id="xtick_3">
     <g id="line2d_3">
      <g>
       <use xlink:href="#m6994cd1538" x="132.304399" y="161.12" style="stroke: #000000; stroke-width: 0.8"/>
      </g>
     </g>
     <g id="text_3">
      <!-- 500 -->
      <g transform="translate(123.940961 175.601719)scale(0.11 -0.11)">
       <use xlink:href="#Calibri-35"/>
       <use xlink:href="#Calibri-30" x="50.683594"/>
       <use xlink:href="#Calibri-30" x="101.367188"/>
      </g>
     </g>
    </g>
   </g>
   <g id="matplotlib.axis_2">
    <g id="ytick_1">
     <g id="line2d_4">
      <defs>
       <path id="m088d7f414b" d="M 0 0 
L -3.5 0 
" style="stroke: #000000; stroke-width: 0.8"/>
      </defs>
      <g>
       <use xlink:href="#m088d7f414b" x="24.46" y="155.902659" style="stroke: #000000; stroke-width: 0.8"/>
      </g>
     </g>
     <g id="text_4">
      <!-- 0 -->
      <g transform="translate(11.884375 159.643518)scale(0.11 -0.11)">
       <use xlink:href="#Calibri-30"/>
      </g>
     </g>
    </g>
    <g id="ytick_2">
     <g id="line2d_5">
      <g>
       <use xlink:href="#m088d7f414b" x="24.46" y="117.572541" style="stroke: #000000; stroke-width: 0.8"/>
      </g>
     </g>
     <g id="text_5">
      <!-- 1 -->
      <g transform="translate(11.884375 121.3134)scale(0.11 -0.11)">
       <defs>
        <path id="Calibri-31" d="M 2897 213 
Q 2897 153 2887 112 
Q 2878 72 2862 47 
Q 2847 22 2826 11 
Q 2806 0 2784 0 
L 672 0 
Q 650 0 631 11 
Q 613 22 595 47 
Q 578 72 568 112 
Q 559 153 559 213 
Q 559 269 568 309 
Q 578 350 592 376 
Q 606 403 626 417 
Q 647 431 672 431 
L 1516 431 
L 1516 3506 
L 734 3041 
Q 675 3009 639 3003 
Q 603 2997 581 3017 
Q 559 3038 551 3084 
Q 544 3131 544 3203 
Q 544 3256 548 3293 
Q 553 3331 562 3356 
Q 572 3381 589 3400 
Q 606 3419 634 3438 
L 1566 4034 
Q 1578 4044 1597 4050 
Q 1616 4056 1644 4062 
Q 1672 4069 1709 4070 
Q 1747 4072 1803 4072 
Q 1878 4072 1928 4065 
Q 1978 4059 2006 4048 
Q 2034 4038 2043 4020 
Q 2053 4003 2053 3984 
L 2053 431 
L 2784 431 
Q 2809 431 2831 417 
Q 2853 403 2867 376 
Q 2881 350 2889 309 
Q 2897 269 2897 213 
z
" transform="scale(0.015625)"/>
       </defs>
       <use xlink:href="#Calibri-31"/>
      </g>
     </g>
    </g>
    <g id="ytick_3">
     <g id="line2d_6">
      <g>
       <use xlink:href="#m088d7f414b" x="24.46" y="79.242423" style="stroke: #000000; stroke-width: 0.8"/>
      </g>
     </g>
     <g id="text_6">
      <!-- 2 -->
      <g transform="translate(11.884375 82.983283)scale(0.11 -0.11)">
       <use xlink:href="#Calibri-32"/>
      </g>
     </g>
    </g>
    <g id="text_7">
     <!-- 1e8 -->
     <g transform="translate(24.46 43.32)scale(0.11 -0.11)">
      <defs>
       <path id="Calibri-65" d="M 2878 1606 
Q 2878 1484 2817 1432 
Q 2756 1381 2678 1381 
L 834 1381 
Q 834 1147 881 959 
Q 928 772 1037 637 
Q 1147 503 1322 431 
Q 1497 359 1750 359 
Q 1950 359 2106 392 
Q 2263 425 2377 465 
Q 2491 506 2564 539 
Q 2638 572 2675 572 
Q 2697 572 2714 561 
Q 2731 550 2740 528 
Q 2750 506 2754 467 
Q 2759 428 2759 372 
Q 2759 331 2756 301 
Q 2753 272 2748 248 
Q 2744 225 2733 206 
Q 2722 188 2705 170 
Q 2688 153 2603 114 
Q 2519 75 2384 37 
Q 2250 0 2073 -29 
Q 1897 -59 1697 -59 
Q 1350 -59 1089 37 
Q 828 134 650 325 
Q 472 516 381 803 
Q 291 1091 291 1472 
Q 291 1834 384 2123 
Q 478 2413 654 2614 
Q 831 2816 1081 2923 
Q 1331 3031 1641 3031 
Q 1972 3031 2205 2925 
Q 2438 2819 2588 2639 
Q 2738 2459 2808 2217 
Q 2878 1975 2878 1700 
L 2878 1606 
z
M 2359 1759 
Q 2369 2166 2180 2397 
Q 1991 2628 1619 2628 
Q 1428 2628 1284 2556 
Q 1141 2484 1044 2365 
Q 947 2247 894 2089 
Q 841 1931 834 1759 
L 2359 1759 
z
" transform="scale(0.015625)"/>
       <path id="Calibri-38" d="M 2981 1038 
Q 2981 775 2887 570 
Q 2794 366 2617 225 
Q 2441 84 2181 12 
Q 1922 -59 1588 -59 
Q 1275 -59 1028 6 
Q 781 72 609 200 
Q 438 328 347 515 
Q 256 703 256 944 
Q 256 1134 318 1293 
Q 381 1453 498 1587 
Q 616 1722 787 1839 
Q 959 1956 1175 2063 
Q 988 2159 844 2267 
Q 700 2375 600 2501 
Q 500 2628 448 2772 
Q 397 2916 397 3084 
Q 397 3297 473 3483 
Q 550 3669 704 3806 
Q 859 3944 1098 4023 
Q 1338 4103 1656 4103 
Q 1963 4103 2186 4029 
Q 2409 3956 2554 3829 
Q 2700 3703 2769 3531 
Q 2838 3359 2838 3163 
Q 2838 3003 2786 2856 
Q 2734 2709 2634 2578 
Q 2534 2447 2389 2333 
Q 2244 2219 2056 2119 
Q 2278 2009 2451 1893 
Q 2625 1778 2742 1645 
Q 2859 1513 2920 1364 
Q 2981 1216 2981 1038 
z
M 2306 3113 
Q 2306 3244 2261 3350 
Q 2216 3456 2128 3531 
Q 2041 3606 1911 3645 
Q 1781 3684 1616 3684 
Q 1278 3684 1104 3531 
Q 931 3378 931 3113 
Q 931 2991 973 2886 
Q 1016 2781 1105 2687 
Q 1194 2594 1330 2505 
Q 1466 2416 1653 2319 
Q 1969 2481 2137 2678 
Q 2306 2875 2306 3113 
z
M 2438 981 
Q 2438 1125 2384 1242 
Q 2331 1359 2223 1461 
Q 2116 1563 1955 1658 
Q 1794 1753 1581 1856 
Q 1384 1759 1236 1662 
Q 1088 1566 992 1462 
Q 897 1359 848 1245 
Q 800 1131 800 994 
Q 800 691 1008 525 
Q 1216 359 1628 359 
Q 2028 359 2233 526 
Q 2438 694 2438 981 
z
" transform="scale(0.015625)"/>
      </defs>
      <use xlink:href="#Calibri-31"/>
      <use xlink:href="#Calibri-65" x="50.683594"/>
      <use xlink:href="#Calibri-38" x="100.439453"/>
     </g>
    </g>
   </g>
   <g id="line2d_7">
    <path d="M 143.95 161.12 
L 143.95 46.32 
" clip-path="url(#p620d2865b3)" style="fill: none; stroke: #ff0000; stroke-width: 1.5; stroke-linecap: square"/>
   </g>
   <g id="line2d_8">
    <path d="M 85.721993 161.12 
L 85.721993 46.32 
" clip-path="url(#p620d2865b3)" style="fill: none; stroke-dasharray: 5.55,2.4; stroke-dashoffset: 0; stroke: #0000ff; stroke-width: 1.5"/>
   </g>
   <g id="line2d_9">
    <path d="M 30.15 136.703585 
L 30.354309 136.48458 
L 30.967235 140.632793 
L 31.580162 143.156493 
L 32.397397 145.453152 
L 33.010323 146.774212 
L 34.236176 143.282559 
L 36.074955 138.003235 
L 36.89219 136.166651 
L 37.505117 140.036613 
L 38.118043 142.52816 
L 38.935278 144.910401 
L 39.752513 146.688034 
L 39.956822 147.065867 
L 41.182675 143.527761 
L 43.634381 135.945377 
L 44.247307 139.668748 
L 44.860233 142.1565 
L 45.677469 144.577786 
L 46.494704 146.388854 
L 46.699013 146.77269 
L 47.924865 143.087508 
L 50.172262 135.683739 
L 50.785189 139.353975 
L 51.602424 142.533616 
L 52.419659 144.794789 
L 53.236894 146.501586 
L 53.441203 146.866295 
L 54.667056 143.155407 
L 56.914452 135.52582 
L 57.527379 139.141522 
L 58.344614 142.307667 
L 59.161849 144.568605 
L 60.183393 146.646695 
L 60.387702 146.991383 
L 61.613555 143.343655 
L 63.860952 135.601913 
L 64.473878 139.111289 
L 65.291113 142.23672 
L 66.108348 144.482851 
L 67.129892 146.557494 
L 67.334201 146.903755 
L 68.355745 143.904389 
L 69.785907 138.971315 
L 70.807451 135.390543 
L 71.420377 138.905583 
L 72.237612 142.048895 
L 73.054847 144.313452 
L 74.076391 146.411401 
L 74.2807 146.760355 
L 75.302244 143.71129 
L 76.732406 138.689834 
L 77.549641 135.738233 
L 78.162567 139.0981 
L 78.979803 142.165031 
L 79.797038 144.384835 
L 80.818582 146.442885 
L 81.02289 146.787943 
L 82.044434 143.735408 
L 83.474596 138.683045 
L 84.291831 135.676674 
L 84.904758 139.006022 
L 85.721993 142.06121 
L 86.539228 144.267918 
L 87.560772 146.308953 
L 87.765081 146.648381 
L 88.786625 143.547657 
L 90.216786 138.428807 
L 91.034022 135.364622 
L 91.646948 138.672593 
L 92.464183 141.70381 
L 93.281418 143.871473 
L 94.098654 145.485852 
L 94.915889 146.724605 
L 96.141741 143.040017 
L 97.776212 137.242594 
L 98.184829 135.71519 
L 98.797756 138.649538 
L 99.614991 141.400005 
L 100.432226 143.343794 
L 101.249461 144.772777 
L 102.271005 146.070745 
L 102.883932 146.663146 
L 104.109785 143.64095 
L 105.539946 139.511322 
L 106.765799 135.512508 
L 107.583034 138.801294 
L 108.400269 141.04402 
L 109.217504 142.642144 
L 110.03474 143.826725 
L 111.056284 144.905059 
L 112.077828 145.68246 
L 113.507989 146.454869 
L 114.938151 144.401745 
L 116.164004 142.246306 
L 117.389856 139.598276 
L 118.615709 136.404925 
L 118.820018 135.824532 
L 119.637253 138.530303 
L 120.454488 140.470104 
L 121.271724 141.915978 
L 122.293268 143.266024 
L 123.314811 144.271249 
L 124.540664 145.151546 
L 125.766517 145.758127 
L 126.99237 146.133907 
L 128.218223 146.293205 
L 129.444075 146.235232 
L 130.669928 145.946983 
L 131.895781 145.437287 
L 133.121634 144.695046 
L 134.347487 143.721166 
L 135.777648 142.283566 
L 138.637971 138.929578 
L 142.519838 134.309991 
L 143.745691 133.021137 
L 143.745691 133.021137 
" clip-path="url(#p620d2865b3)" style="fill: none; stroke: #ff0000; stroke-width: 1.5; stroke-linecap: square"/>
   </g>
   <g id="line2d_10">
    <path d="M 30.15 136.641198 
L 30.354309 136.474893 
L 30.967235 140.646417 
L 31.580162 143.151369 
L 32.397397 145.377121 
L 33.214632 147.021585 
L 34.236176 148.575234 
L 35.25772 149.757452 
L 36.483573 150.82738 
L 37.709425 151.61303 
L 39.139587 152.239448 
L 40.569749 152.592455 
L 42.204219 152.737947 
L 44.451616 152.685707 
L 47.311939 152.382303 
L 49.559336 151.946785 
L 52.011041 151.187331 
L 54.462747 150.18563 
L 58.753232 148.375942 
L 61.000628 147.691489 
L 63.860952 147.110912 
L 66.925583 146.408513 
L 69.990215 145.437705 
L 72.033303 144.602404 
L 73.872083 143.621187 
L 75.710862 142.363746 
L 77.345332 140.973983 
L 82.86167 135.71249 
L 85.721993 132.762246 
L 88.173698 129.949085 
L 91.646948 125.635798 
L 95.733124 120.498006 
L 98.797756 117.22062 
L 106.765799 109.17027 
L 114.529533 101.203793 
L 116.368312 98.837096 
L 118.002783 96.395959 
L 120.045871 92.965226 
L 122.088959 89.09115 
L 125.357899 82.322202 
L 127.809605 77.503313 
L 130.057002 73.691561 
L 143.745691 51.538182 
L 143.745691 51.538182 
" clip-path="url(#p620d2865b3)" style="fill: none; stroke-dasharray: 5.55,2.4; stroke-dashoffset: 0; stroke: #0000ff; stroke-width: 1.5"/>
   </g>
   <g id="line2d_11">
    <path d="M 30.15 155.901817 
L 54.258438 155.791475 
L 67.129892 155.574459 
L 91.851257 155.220043 
L 94.302962 154.939127 
L 100.227917 153.80087 
L 102.679623 153.021149 
L 104.92702 152.334331 
L 107.174417 151.918711 
L 108.808887 151.499572 
L 114.938151 149.726761 
L 117.389856 149.491422 
L 122.497576 149.045139 
L 126.379443 148.508104 
L 128.422531 147.995459 
L 130.057002 147.342395 
L 131.691472 146.410308 
L 133.121634 145.336181 
L 134.551795 144.000457 
L 136.186266 142.138411 
L 143.745691 133.058469 
L 143.745691 133.058469 
" clip-path="url(#p620d2865b3)" style="fill: none; stroke-dasharray: 1.5,2.475; stroke-dashoffset: 0; stroke: #ff0000; stroke-width: 1.5"/>
   </g>
   <g id="line2d_12">
    <path d="M 30.15 155.573083 
L 35.053411 155.447691 
L 38.322352 155.190335 
L 40.569749 154.798679 
L 43.838689 153.921881 
L 50.785189 151.890616 
L 53.441203 150.797612 
L 59.366158 148.205393 
L 61.409246 147.621352 
L 68.968671 145.790038 
L 71.420377 144.880611 
L 73.463465 143.862838 
L 75.097935 142.819235 
L 76.732406 141.52515 
L 79.184111 139.229113 
L 84.904758 133.635296 
L 87.560772 130.673535 
L 91.034022 126.423759 
L 96.34605 119.818251 
L 100.227917 115.760475 
L 114.325224 101.446104 
L 116.164004 99.118572 
L 117.798474 96.716917 
L 119.841562 93.328526 
L 121.88465 89.496682 
L 124.949282 83.170869 
L 127.605296 77.873829 
L 129.852693 74.022175 
L 143.745691 51.538182 
L 143.745691 51.538182 
" clip-path="url(#p620d2865b3)" style="fill: none; stroke-dasharray: 1.5,2.475; stroke-dashoffset: 0; stroke: #0000ff; stroke-width: 1.5"/>
   </g>
   <g id="patch_3">
    <path d="M 24.46 161.12 
L 24.46 46.32 
" style="fill: none; stroke: #000000; stroke-linejoin: miter; stroke-linecap: square"/>
   </g>
   <g id="patch_4">
    <path d="M 24.46 161.12 
L 149.64 161.12 
" style="fill: none; stroke: #000000; stroke-linejoin: miter; stroke-linecap: square"/>
   </g>
   <g id="text_8">
    <!-- Init Sens:100 Init Res:1 -->
    <g transform="translate(36.283281 40.32)scale(0.11 -0.11)">
     <defs>
      <path id="Calibri-49" d="M 1075 81 
Q 1075 56 1062 37 
Q 1050 19 1019 8 
Q 988 -3 936 -11 
Q 884 -19 806 -19 
Q 731 -19 678 -11 
Q 625 -3 594 8 
Q 563 19 550 37 
Q 538 56 538 81 
L 538 3963 
Q 538 3988 552 4006 
Q 566 4025 598 4036 
Q 631 4047 682 4055 
Q 734 4063 806 4063 
Q 884 4063 936 4055 
Q 988 4047 1019 4036 
Q 1050 4025 1062 4006 
Q 1075 3988 1075 3963 
L 1075 81 
z
" transform="scale(0.015625)"/>
      <path id="Calibri-6e" d="M 2900 78 
Q 2900 53 2887 36 
Q 2875 19 2847 6 
Q 2819 -6 2769 -12 
Q 2719 -19 2644 -19 
Q 2566 -19 2516 -12 
Q 2466 -6 2437 6 
Q 2409 19 2396 36 
Q 2384 53 2384 78 
L 2384 1725 
Q 2384 1966 2346 2112 
Q 2309 2259 2237 2365 
Q 2166 2472 2052 2528 
Q 1938 2584 1788 2584 
Q 1594 2584 1400 2446 
Q 1206 2309 994 2044 
L 994 78 
Q 994 53 981 36 
Q 969 19 941 6 
Q 913 -6 863 -12 
Q 813 -19 734 -19 
Q 659 -19 609 -12 
Q 559 -6 529 6 
Q 500 19 489 36 
Q 478 53 478 78 
L 478 2891 
Q 478 2916 487 2933 
Q 497 2950 525 2964 
Q 553 2978 597 2983 
Q 641 2988 713 2988 
Q 781 2988 826 2983 
Q 872 2978 897 2964 
Q 922 2950 933 2933 
Q 944 2916 944 2891 
L 944 2519 
Q 1181 2784 1417 2907 
Q 1653 3031 1894 3031 
Q 2175 3031 2367 2936 
Q 2559 2841 2678 2681 
Q 2797 2522 2848 2308 
Q 2900 2094 2900 1794 
L 2900 78 
z
" transform="scale(0.015625)"/>
      <path id="Calibri-69" d="M 994 78 
Q 994 53 981 36 
Q 969 19 941 6 
Q 913 -6 863 -12 
Q 813 -19 734 -19 
Q 659 -19 609 -12 
Q 559 -6 529 6 
Q 500 19 489 36 
Q 478 53 478 78 
L 478 2891 
Q 478 2913 489 2931 
Q 500 2950 529 2962 
Q 559 2975 609 2981 
Q 659 2988 734 2988 
Q 813 2988 863 2981 
Q 913 2975 941 2962 
Q 969 2950 981 2931 
Q 994 2913 994 2891 
L 994 78 
z
M 1053 3841 
Q 1053 3659 984 3593 
Q 916 3528 731 3528 
Q 550 3528 483 3592 
Q 416 3656 416 3834 
Q 416 4016 484 4081 
Q 553 4147 738 4147 
Q 919 4147 986 4083 
Q 1053 4019 1053 3841 
z
" transform="scale(0.015625)"/>
      <path id="Calibri-74" d="M 1941 284 
Q 1941 194 1928 141 
Q 1916 88 1891 63 
Q 1866 38 1816 16 
Q 1766 -6 1702 -20 
Q 1638 -34 1566 -43 
Q 1494 -53 1422 -53 
Q 1203 -53 1047 5 
Q 891 63 791 180 
Q 691 297 645 476 
Q 600 656 600 900 
L 600 2544 
L 206 2544 
Q 159 2544 131 2594 
Q 103 2644 103 2756 
Q 103 2816 111 2856 
Q 119 2897 131 2923 
Q 144 2950 164 2961 
Q 184 2972 209 2972 
L 600 2972 
L 600 3641 
Q 600 3663 611 3681 
Q 622 3700 651 3714 
Q 681 3728 731 3734 
Q 781 3741 856 3741 
Q 934 3741 984 3734 
Q 1034 3728 1062 3714 
Q 1091 3700 1103 3681 
Q 1116 3663 1116 3641 
L 1116 2972 
L 1838 2972 
Q 1863 2972 1881 2961 
Q 1900 2950 1914 2923 
Q 1928 2897 1934 2856 
Q 1941 2816 1941 2756 
Q 1941 2644 1912 2594 
Q 1884 2544 1838 2544 
L 1116 2544 
L 1116 975 
Q 1116 684 1202 536 
Q 1288 388 1509 388 
Q 1581 388 1637 402 
Q 1694 416 1737 431 
Q 1781 447 1812 461 
Q 1844 475 1869 475 
Q 1884 475 1898 467 
Q 1913 459 1920 437 
Q 1928 416 1934 378 
Q 1941 341 1941 284 
z
" transform="scale(0.015625)"/>
      <path id="Calibri-20" transform="scale(0.015625)"/>
      <path id="Calibri-53" d="M 2709 1134 
Q 2709 850 2604 628 
Q 2500 406 2314 251 
Q 2128 97 1876 19 
Q 1625 -59 1334 -59 
Q 1131 -59 957 -25 
Q 784 9 648 59 
Q 513 109 420 162 
Q 328 216 292 253 
Q 256 291 239 348 
Q 222 406 222 503 
Q 222 572 228 617 
Q 234 663 246 691 
Q 259 719 278 730 
Q 297 741 322 741 
Q 366 741 445 687 
Q 525 634 650 571 
Q 775 509 951 454 
Q 1128 400 1359 400 
Q 1534 400 1679 447 
Q 1825 494 1929 580 
Q 2034 666 2090 791 
Q 2147 916 2147 1075 
Q 2147 1247 2069 1369 
Q 1991 1491 1862 1583 
Q 1734 1675 1570 1751 
Q 1406 1828 1234 1908 
Q 1063 1988 900 2084 
Q 738 2181 609 2312 
Q 481 2444 401 2620 
Q 322 2797 322 3044 
Q 322 3297 414 3495 
Q 506 3694 670 3828 
Q 834 3963 1061 4033 
Q 1288 4103 1550 4103 
Q 1684 4103 1820 4079 
Q 1956 4056 2076 4017 
Q 2197 3978 2290 3929 
Q 2384 3881 2414 3851 
Q 2444 3822 2453 3805 
Q 2463 3788 2469 3761 
Q 2475 3734 2478 3696 
Q 2481 3659 2481 3600 
Q 2481 3544 2476 3500 
Q 2472 3456 2462 3426 
Q 2453 3397 2436 3383 
Q 2419 3369 2397 3369 
Q 2363 3369 2289 3412 
Q 2216 3456 2109 3511 
Q 2003 3566 1858 3611 
Q 1713 3656 1531 3656 
Q 1363 3656 1238 3611 
Q 1113 3566 1031 3491 
Q 950 3416 909 3312 
Q 869 3209 869 3094 
Q 869 2925 947 2803 
Q 1025 2681 1154 2587 
Q 1284 2494 1450 2416 
Q 1616 2338 1787 2258 
Q 1959 2178 2125 2083 
Q 2291 1988 2420 1858 
Q 2550 1728 2629 1551 
Q 2709 1375 2709 1134 
z
" transform="scale(0.015625)"/>
      <path id="Calibri-73" d="M 2244 844 
Q 2244 628 2164 459 
Q 2084 291 1937 175 
Q 1791 59 1587 0 
Q 1384 -59 1141 -59 
Q 991 -59 855 -36 
Q 719 -13 611 23 
Q 503 59 428 98 
Q 353 138 318 169 
Q 284 200 268 256 
Q 253 313 253 409 
Q 253 469 259 509 
Q 266 550 275 575 
Q 284 600 301 611 
Q 319 622 341 622 
Q 375 622 442 580 
Q 509 538 607 488 
Q 706 438 840 395 
Q 975 353 1150 353 
Q 1281 353 1387 381 
Q 1494 409 1572 464 
Q 1650 519 1692 603 
Q 1734 688 1734 803 
Q 1734 922 1673 1003 
Q 1613 1084 1513 1146 
Q 1413 1209 1288 1257 
Q 1163 1306 1030 1359 
Q 897 1413 770 1480 
Q 644 1547 544 1644 
Q 444 1741 383 1875 
Q 322 2009 322 2197 
Q 322 2363 386 2514 
Q 450 2666 578 2780 
Q 706 2894 898 2962 
Q 1091 3031 1347 3031 
Q 1459 3031 1571 3012 
Q 1684 2994 1775 2966 
Q 1866 2938 1930 2905 
Q 1994 2872 2026 2847 
Q 2059 2822 2070 2803 
Q 2081 2784 2086 2761 
Q 2091 2738 2095 2703 
Q 2100 2669 2100 2619 
Q 2100 2566 2095 2527 
Q 2091 2488 2080 2463 
Q 2069 2438 2053 2427 
Q 2038 2416 2019 2416 
Q 1991 2416 1937 2450 
Q 1884 2484 1800 2523 
Q 1716 2563 1602 2597 
Q 1488 2631 1341 2631 
Q 1209 2631 1109 2601 
Q 1009 2572 945 2517 
Q 881 2463 848 2388 
Q 816 2313 816 2225 
Q 816 2103 878 2020 
Q 941 1938 1041 1875 
Q 1141 1813 1269 1763 
Q 1397 1713 1530 1659 
Q 1663 1606 1792 1540 
Q 1922 1475 2022 1381 
Q 2122 1288 2183 1156 
Q 2244 1025 2244 844 
z
" transform="scale(0.015625)"/>
      <path id="Calibri-3a" d="M 1241 2500 
Q 1241 2400 1227 2331 
Q 1213 2263 1173 2220 
Q 1134 2178 1071 2161 
Q 1009 2144 913 2144 
Q 813 2144 750 2161 
Q 688 2178 650 2220 
Q 613 2263 598 2331 
Q 584 2400 584 2500 
Q 584 2606 598 2676 
Q 613 2747 650 2789 
Q 688 2831 750 2848 
Q 813 2866 913 2866 
Q 1009 2866 1071 2848 
Q 1134 2831 1173 2789 
Q 1213 2747 1227 2676 
Q 1241 2606 1241 2500 
z
M 1241 331 
Q 1241 228 1227 159 
Q 1213 91 1173 48 
Q 1134 6 1071 -11 
Q 1009 -28 913 -28 
Q 813 -28 750 -11 
Q 688 6 650 48 
Q 613 91 598 159 
Q 584 228 584 331 
Q 584 434 598 504 
Q 613 575 650 615 
Q 688 656 750 675 
Q 813 694 913 694 
Q 1009 694 1071 675 
Q 1134 656 1173 615 
Q 1213 575 1227 504 
Q 1241 434 1241 331 
z
" transform="scale(0.015625)"/>
      <path id="Calibri-52" d="M 3234 81 
Q 3234 56 3225 37 
Q 3216 19 3184 6 
Q 3153 -6 3097 -12 
Q 3041 -19 2947 -19 
Q 2866 -19 2814 -12 
Q 2763 -6 2731 8 
Q 2700 22 2683 47 
Q 2666 72 2653 109 
L 2281 1063 
Q 2216 1225 2145 1361 
Q 2075 1497 1978 1595 
Q 1881 1694 1750 1748 
Q 1619 1803 1434 1803 
L 1075 1803 
L 1075 81 
Q 1075 56 1061 37 
Q 1047 19 1017 8 
Q 988 -3 936 -11 
Q 884 -19 806 -19 
Q 728 -19 676 -11 
Q 625 -3 594 8 
Q 563 19 550 37 
Q 538 56 538 81 
L 538 3825 
Q 538 3947 602 3995 
Q 666 4044 738 4044 
L 1597 4044 
Q 1750 4044 1851 4036 
Q 1953 4028 2034 4019 
Q 2269 3978 2448 3890 
Q 2628 3803 2750 3668 
Q 2872 3534 2933 3361 
Q 2994 3188 2994 2978 
Q 2994 2775 2939 2614 
Q 2884 2453 2781 2329 
Q 2678 2206 2534 2115 
Q 2391 2025 2213 1963 
Q 2313 1919 2394 1851 
Q 2475 1784 2545 1690 
Q 2616 1597 2678 1475 
Q 2741 1353 2803 1200 
L 3166 309 
Q 3209 197 3221 151 
Q 3234 106 3234 81 
z
M 2425 2922 
Q 2425 3159 2319 3323 
Q 2213 3488 1963 3559 
Q 1884 3581 1786 3590 
Q 1688 3600 1528 3600 
L 1075 3600 
L 1075 2238 
L 1600 2238 
Q 1813 2238 1967 2289 
Q 2122 2341 2225 2433 
Q 2328 2525 2376 2650 
Q 2425 2775 2425 2922 
z
" transform="scale(0.015625)"/>
     </defs>
     <use xlink:href="#Calibri-49"/>
     <use xlink:href="#Calibri-6e" x="25.195312"/>
     <use xlink:href="#Calibri-69" x="77.734375"/>
     <use xlink:href="#Calibri-74" x="100.683594"/>
     <use xlink:href="#Calibri-20" x="134.179688"/>
     <use xlink:href="#Calibri-53" x="156.787109"/>
     <use xlink:href="#Calibri-65" x="202.734375"/>
     <use xlink:href="#Calibri-6e" x="252.490234"/>
     <use xlink:href="#Calibri-73" x="305.029297"/>
     <use xlink:href="#Calibri-3a" x="344.140625"/>
     <use xlink:href="#Calibri-31" x="370.898438"/>
     <use xlink:href="#Calibri-30" x="421.582031"/>
     <use xlink:href="#Calibri-30" x="472.265625"/>
     <use xlink:href="#Calibri-20" x="522.949219"/>
     <use xlink:href="#Calibri-49" x="545.556641"/>
     <use xlink:href="#Calibri-6e" x="570.751953"/>
     <use xlink:href="#Calibri-69" x="623.291016"/>
     <use xlink:href="#Calibri-74" x="646.240234"/>
     <use xlink:href="#Calibri-20" x="679.736328"/>
     <use xlink:href="#Calibri-52" x="702.34375"/>
     <use xlink:href="#Calibri-65" x="756.640625"/>
     <use xlink:href="#Calibri-73" x="806.396484"/>
     <use xlink:href="#Calibri-3a" x="845.507812"/>
     <use xlink:href="#Calibri-31" x="872.265625"/>
    </g>
   </g>
  </g>
  <g id="axes_2">
   <g id="patch_5">
    <path d="M 174.1 161.12 
L 299.28 161.12 
L 299.28 46.32 
L 174.1 46.32 
z
" style="fill: #ffffff"/>
   </g>
   <g id="matplotlib.axis_3">
    <g id="xtick_4">
     <g id="line2d_13">
      <g>
       <use xlink:href="#m6994cd1538" x="179.79" y="161.12" style="stroke: #000000; stroke-width: 0.8"/>
      </g>
     </g>
     <g id="text_9">
      <!-- 0 -->
      <g transform="translate(177.002187 175.601719)scale(0.11 -0.11)">
       <use xlink:href="#Calibri-30"/>
      </g>
     </g>
    </g>
    <g id="xtick_5">
     <g id="line2d_14">
      <g>
       <use xlink:href="#m6994cd1538" x="224.104642" y="161.12" style="stroke: #000000; stroke-width: 0.8"/>
      </g>
     </g>
     <g id="text_10">
      <!-- 250 -->
      <g transform="translate(215.741204 175.601719)scale(0.11 -0.11)">
       <use xlink:href="#Calibri-32"/>
       <use xlink:href="#Calibri-35" x="50.683594"/>
       <use xlink:href="#Calibri-30" x="101.367188"/>
      </g>
     </g>
    </g>
    <g id="xtick_6">
     <g id="line2d_15">
      <g>
       <use xlink:href="#m6994cd1538" x="268.419283" y="161.12" style="stroke: #000000; stroke-width: 0.8"/>
      </g>
     </g>
     <g id="text_11">
      <!-- 500 -->
      <g transform="translate(260.055846 175.601719)scale(0.11 -0.11)">
       <use xlink:href="#Calibri-35"/>
       <use xlink:href="#Calibri-30" x="50.683594"/>
       <use xlink:href="#Calibri-30" x="101.367188"/>
      </g>
     </g>
    </g>
   </g>
   <g id="matplotlib.axis_4">
    <g id="ytick_4">
     <g id="line2d_16">
      <g>
       <use xlink:href="#m088d7f414b" x="174.1" y="155.901829" style="stroke: #000000; stroke-width: 0.8"/>
      </g>
     </g>
     <g id="text_12">
      <!-- 0 -->
      <g transform="translate(161.524375 159.642689)scale(0.11 -0.11)">
       <use xlink:href="#Calibri-30"/>
      </g>
     </g>
    </g>
    <g id="ytick_5">
     <g id="line2d_17">
      <g>
       <use xlink:href="#m088d7f414b" x="174.1" y="130.780841" style="stroke: #000000; stroke-width: 0.8"/>
      </g>
     </g>
     <g id="text_13">
      <!-- 2 -->
      <g transform="translate(161.524375 134.5217)scale(0.11 -0.11)">
       <use xlink:href="#Calibri-32"/>
      </g>
     </g>
    </g>
    <g id="ytick_6">
     <g id="line2d_18">
      <g>
       <use xlink:href="#m088d7f414b" x="174.1" y="105.659852" style="stroke: #000000; stroke-width: 0.8"/>
      </g>
     </g>
     <g id="text_14">
      <!-- 4 -->
      <g transform="translate(161.524375 109.400711)scale(0.11 -0.11)">
       <defs>
        <path id="Calibri-34" d="M 3059 1150 
Q 3059 1047 3028 987 
Q 2997 928 2941 928 
L 2484 928 
L 2484 78 
Q 2484 53 2471 36 
Q 2459 19 2428 6 
Q 2397 -6 2347 -12 
Q 2297 -19 2219 -19 
Q 2144 -19 2094 -12 
Q 2044 -6 2014 6 
Q 1984 19 1973 36 
Q 1963 53 1963 78 
L 1963 928 
L 294 928 
Q 256 928 231 937 
Q 206 947 186 972 
Q 166 997 158 1044 
Q 150 1091 150 1166 
Q 150 1225 153 1272 
Q 156 1319 165 1358 
Q 175 1397 190 1433 
Q 206 1469 228 1509 
L 1684 3966 
Q 1700 3991 1729 4009 
Q 1759 4028 1806 4040 
Q 1853 4053 1922 4058 
Q 1991 4063 2084 4063 
Q 2188 4063 2264 4055 
Q 2341 4047 2387 4034 
Q 2434 4022 2459 4001 
Q 2484 3981 2484 3953 
L 2484 1372 
L 2941 1372 
Q 2994 1372 3026 1317 
Q 3059 1263 3059 1150 
z
M 1963 3591 
L 1956 3591 
L 641 1372 
L 1963 1372 
L 1963 3591 
z
" transform="scale(0.015625)"/>
       </defs>
       <use xlink:href="#Calibri-34"/>
      </g>
     </g>
    </g>
    <g id="ytick_7">
     <g id="line2d_19">
      <g>
       <use xlink:href="#m088d7f414b" x="174.1" y="80.538863" style="stroke: #000000; stroke-width: 0.8"/>
      </g>
     </g>
     <g id="text_15">
      <!-- 6 -->
      <g transform="translate(161.524375 84.279722)scale(0.11 -0.11)">
       <defs>
        <path id="Calibri-36" d="M 2991 1309 
Q 2991 1044 2909 795 
Q 2828 547 2659 358 
Q 2491 169 2231 55 
Q 1972 -59 1619 -59 
Q 1366 -59 1172 3 
Q 978 66 834 181 
Q 691 297 595 465 
Q 500 634 442 850 
Q 384 1066 359 1322 
Q 334 1578 334 1872 
Q 334 2131 362 2397 
Q 391 2663 462 2909 
Q 534 3156 657 3373 
Q 781 3591 967 3752 
Q 1153 3913 1412 4006 
Q 1672 4100 2016 4100 
Q 2131 4100 2250 4086 
Q 2369 4072 2469 4048 
Q 2569 4025 2637 3997 
Q 2706 3969 2728 3951 
Q 2750 3934 2761 3914 
Q 2772 3894 2778 3870 
Q 2784 3847 2787 3817 
Q 2791 3788 2791 3744 
Q 2791 3688 2789 3647 
Q 2788 3606 2777 3581 
Q 2766 3556 2748 3543 
Q 2731 3531 2703 3531 
Q 2669 3531 2609 3553 
Q 2550 3575 2465 3601 
Q 2381 3628 2261 3650 
Q 2141 3672 1981 3672 
Q 1691 3672 1481 3553 
Q 1272 3434 1139 3234 
Q 1006 3034 942 2770 
Q 878 2506 869 2219 
Q 950 2266 1051 2312 
Q 1153 2359 1273 2396 
Q 1394 2434 1528 2457 
Q 1663 2481 1816 2481 
Q 2144 2481 2369 2392 
Q 2594 2303 2733 2145 
Q 2872 1988 2931 1773 
Q 2991 1559 2991 1309 
z
M 2447 1259 
Q 2447 1441 2411 1589 
Q 2375 1738 2290 1841 
Q 2206 1944 2065 2000 
Q 1925 2056 1719 2056 
Q 1603 2056 1487 2036 
Q 1372 2016 1264 1980 
Q 1156 1944 1057 1895 
Q 959 1847 878 1791 
Q 878 1388 929 1116 
Q 981 844 1079 680 
Q 1178 516 1325 445 
Q 1472 375 1669 375 
Q 1869 375 2016 450 
Q 2163 525 2259 651 
Q 2356 778 2401 936 
Q 2447 1094 2447 1259 
z
" transform="scale(0.015625)"/>
       </defs>
       <use xlink:href="#Calibri-36"/>
      </g>
     </g>
    </g>
    <g id="ytick_8">
     <g id="line2d_20">
      <g>
       <use xlink:href="#m088d7f414b" x="174.1" y="55.417874" style="stroke: #000000; stroke-width: 0.8"/>
      </g>
     </g>
     <g id="text_16">
      <!-- 8 -->
      <g transform="translate(161.524375 59.158733)scale(0.11 -0.11)">
       <use xlink:href="#Calibri-38"/>
      </g>
     </g>
    </g>
    <g id="text_17">
     <!-- 1e7 -->
     <g transform="translate(174.1 43.32)scale(0.11 -0.11)">
      <defs>
       <path id="Calibri-37" d="M 2947 3813 
Q 2947 3756 2942 3711 
Q 2938 3666 2930 3623 
Q 2922 3581 2908 3542 
Q 2894 3503 2875 3459 
L 1419 103 
Q 1403 66 1379 42 
Q 1356 19 1320 5 
Q 1284 -9 1228 -14 
Q 1172 -19 1091 -19 
Q 984 -19 925 -9 
Q 866 0 839 20 
Q 813 41 816 70 
Q 819 100 838 141 
L 2369 3572 
L 428 3572 
Q 369 3572 339 3634 
Q 309 3697 309 3809 
Q 309 3869 317 3912 
Q 325 3956 340 3986 
Q 356 4016 378 4030 
Q 400 4044 428 4044 
L 2784 4044 
Q 2828 4044 2861 4034 
Q 2894 4025 2911 3997 
Q 2928 3969 2937 3925 
Q 2947 3881 2947 3813 
z
" transform="scale(0.015625)"/>
      </defs>
      <use xlink:href="#Calibri-31"/>
      <use xlink:href="#Calibri-65" x="50.683594"/>
      <use xlink:href="#Calibri-37" x="100.439453"/>
     </g>
    </g>
   </g>
   <g id="line2d_21">
    <path d="M 293.59 161.12 
L 293.59 46.32 
" clip-path="url(#p5d0d182fa4)" style="fill: none; stroke: #ff0000; stroke-width: 1.5; stroke-linecap: square"/>
   </g>
   <g id="line2d_22">
    <path d="M 281.359159 161.12 
L 281.359159 46.32 
" clip-path="url(#p5d0d182fa4)" style="fill: none; stroke-dasharray: 5.55,2.4; stroke-dashoffset: 0; stroke: #0000ff; stroke-width: 1.5"/>
   </g>
   <g id="line2d_23">
    <path d="M 179.79 92.662943 
L 179.967259 92.071213 
L 180.499034 105.978962 
L 181.03081 114.36035 
L 181.739844 121.901767 
L 182.27162 126.214412 
L 183.51243 112.910259 
L 184.75324 99.844628 
L 185.639533 92.750154 
L 185.816791 91.564131 
L 186.348567 104.577293 
L 186.880343 112.788317 
L 187.589377 120.477417 
L 188.298411 126.227586 
L 189.361963 114.558687 
L 191.134548 94.383709 
L 191.489065 91.148469 
L 192.020841 103.565883 
L 192.729875 113.884244 
L 193.43891 121.109404 
L 194.147944 126.584794 
L 195.211495 114.757439 
L 197.338598 89.625344 
L 197.870374 102.048944 
L 198.579408 112.574362 
L 199.288442 119.970268 
L 199.997477 125.576245 
L 201.061028 113.27512 
L 202.833614 90.862558 
L 203.365389 102.486842 
L 204.074424 112.682205 
L 204.783458 119.955189 
L 205.669751 126.682738 
L 206.733302 114.523048 
L 208.683146 89.356214 
L 209.214922 101.219124 
L 209.923956 111.645589 
L 210.632991 119.09176 
L 211.519283 125.944971 
L 212.582835 113.449515 
L 214.355421 89.774543 
L 214.887196 101.246395 
L 215.596231 111.494426 
L 216.305265 118.841686 
L 217.191558 125.604188 
L 218.255109 112.965564 
L 220.027695 88.972522 
L 220.55947 100.443938 
L 221.268505 110.72675 
L 221.977539 118.111635 
L 222.863832 124.922229 
L 223.04109 126.05848 
L 224.104642 113.715232 
L 225.877227 89.626871 
L 226.409003 100.673017 
L 227.118037 110.778115 
L 227.827072 118.085682 
L 228.713364 124.855774 
L 228.890623 125.984824 
L 229.954174 113.684093 
L 231.372243 94.226454 
L 231.72676 89.356151 
L 232.258536 100.34851 
L 232.96757 110.455791 
L 233.676604 117.784516 
L 234.562897 124.582355 
L 234.740156 125.721169 
L 235.803707 113.310608 
L 237.221776 93.618437 
L 237.576293 88.668163 
L 238.108069 99.73418 
L 238.817103 109.918275 
L 239.526137 117.303294 
L 240.41243 124.154815 
L 240.766947 126.383116 
L 241.65324 116.336075 
L 242.89405 99.61836 
L 243.603084 89.356285 
L 244.13486 100.028922 
L 244.843894 110.004617 
L 245.552928 117.224161 
L 246.439221 123.889388 
L 246.793738 126.037793 
L 247.680031 115.905016 
L 248.920841 99.057866 
L 249.629875 88.650028 
L 250.33891 101.833871 
L 251.047944 110.726862 
L 251.756978 117.125755 
L 252.466012 121.883481 
L 253.175047 125.470873 
L 254.238598 113.513374 
L 255.656667 94.871831 
L 256.011184 89.871812 
L 256.720218 101.224623 
L 257.429252 108.910554 
L 258.138287 114.33036 
L 258.847321 118.271894 
L 259.733614 121.842722 
L 260.619907 124.360583 
L 260.797165 124.769817 
L 262.037975 115.022354 
L 263.278785 103.535754 
L 264.519595 90.117566 
L 265.228629 99.569305 
L 265.937664 106.168313 
L 266.646698 110.975545 
L 267.532991 115.389962 
L 268.419283 118.654091 
L 269.305576 121.182717 
L 270.369128 123.547695 
L 271.078162 124.812056 
L 271.964455 121.447171 
L 272.850748 117.247051 
L 273.73704 112.017509 
L 274.623333 105.586273 
L 275.686885 96.148686 
L 276.21866 90.731366 
L 276.927695 98.618909 
L 277.636729 104.260616 
L 278.345763 108.356146 
L 279.054798 111.341349 
L 279.763832 113.479065 
L 280.472866 114.918403 
L 281.004642 115.580234 
L 281.536417 115.907928 
L 282.068193 115.917759 
L 282.599969 115.626021 
L 283.131745 115.041624 
L 283.840779 113.881993 
L 284.727072 111.936589 
L 285.790623 109.032818 
L 287.031433 104.954286 
L 288.804019 98.149566 
L 292.703707 83.084542 
L 293.412741 80.589442 
L 293.412741 80.589442 
" clip-path="url(#p5d0d182fa4)" style="fill: none; stroke: #ff0000; stroke-width: 1.5; stroke-linecap: square"/>
   </g>
   <g id="line2d_24">
    <path d="M 179.79 92.623984 
L 179.967259 91.981727 
L 180.499034 105.815111 
L 181.03081 114.192815 
L 181.739844 121.738694 
L 182.626137 128.526842 
L 183.51243 133.562132 
L 184.398723 137.463245 
L 185.462274 141.122323 
L 186.525826 143.973336 
L 187.589377 146.232708 
L 188.652928 148.042398 
L 189.893738 149.733137 
L 191.134548 151.061315 
L 192.552617 152.240452 
L 193.970685 153.136598 
L 195.566012 153.892785 
L 197.515857 154.551094 
L 199.820218 155.060619 
L 202.479097 155.396207 
L 205.492492 155.544012 
L 208.328629 155.455468 
L 210.632991 155.156239 
L 213.114611 154.913928 
L 216.83704 154.843629 
L 227.472555 154.701929 
L 230.840467 154.461852 
L 232.96757 154.116255 
L 234.562897 153.660642 
L 235.980966 153.025912 
L 237.221776 152.217707 
L 238.817103 150.87916 
L 240.944206 148.796026 
L 243.780343 145.634342 
L 248.034548 140.968719 
L 249.629875 139.584357 
L 250.870685 138.775732 
L 252.643271 137.917996 
L 254.593115 137.199052 
L 261.151682 135.07653 
L 262.569751 134.2403 
L 263.810561 133.231553 
L 265.051371 131.910393 
L 266.114922 130.490546 
L 267.178474 128.716001 
L 268.419283 126.158334 
L 269.482835 123.471296 
L 270.723645 119.682087 
L 272.141713 114.629389 
L 273.73704 108.022205 
L 277.636729 91.318305 
L 279.232056 85.960742 
L 281.359159 79.571089 
L 283.309003 74.361657 
L 288.804019 60.816781 
L 290.576604 56.87244 
L 292.703707 52.811138 
L 293.412741 51.538182 
L 293.412741 51.538182 
" clip-path="url(#p5d0d182fa4)" style="fill: none; stroke-dasharray: 5.55,2.4; stroke-dashoffset: 0; stroke: #0000ff; stroke-width: 1.5"/>
   </g>
   <g id="line2d_25">
    <path d="M 179.79 155.901798 
L 212.760093 155.792617 
L 217.368816 155.545785 
L 220.027695 155.322536 
L 222.154798 155.140687 
L 224.990935 154.917755 
L 237.576293 154.683032 
L 242.362274 154.523991 
L 245.730187 154.241533 
L 247.502773 153.844417 
L 250.516168 152.873686 
L 251.57972 152.267635 
L 252.643271 151.385587 
L 253.884081 150.013398 
L 255.30215 148.576284 
L 257.251994 146.775353 
L 258.315545 145.272475 
L 262.215234 139.386189 
L 263.278785 138.490615 
L 264.342336 137.932588 
L 265.228629 137.508895 
L 266.469439 136.555378 
L 268.773801 134.755206 
L 270.191869 133.98801 
L 271.787196 133.37917 
L 276.041402 131.964785 
L 277.282212 131.326613 
L 278.345763 130.503522 
L 279.409315 129.387584 
L 280.472866 127.901964 
L 281.536417 125.933189 
L 282.42271 123.838959 
L 283.486262 120.72098 
L 284.90433 115.792573 
L 286.676916 108.826379 
L 289.158536 97.996621 
L 291.817414 86.821224 
L 293.412741 80.897864 
L 293.412741 80.897864 
" clip-path="url(#p5d0d182fa4)" style="fill: none; stroke-dasharray: 1.5,2.475; stroke-dashoffset: 0; stroke: #ff0000; stroke-width: 1.5"/>
   </g>
   <g id="line2d_26">
    <path d="M 179.79 155.901818 
L 205.315234 155.791841 
L 208.505888 155.562456 
L 214.887196 154.888615 
L 230.840467 154.462409 
L 232.96757 154.116604 
L 234.562897 153.660854 
L 235.980966 153.026073 
L 237.221776 152.217828 
L 238.817103 150.879249 
L 240.944206 148.796069 
L 243.780343 145.634369 
L 248.034548 140.968729 
L 249.629875 139.584359 
L 250.870685 138.775733 
L 252.643271 137.918 
L 254.593115 137.199059 
L 261.151682 135.076531 
L 262.569751 134.2403 
L 263.810561 133.231553 
L 265.051371 131.910393 
L 266.114922 130.490546 
L 267.178474 128.716001 
L 268.419283 126.158334 
L 269.482835 123.471296 
L 270.723645 119.682087 
L 272.141713 114.629389 
L 273.73704 108.022205 
L 277.636729 91.318305 
L 279.232056 85.960742 
L 281.359159 79.571089 
L 283.309003 74.361657 
L 288.804019 60.816781 
L 290.576604 56.87244 
L 292.703707 52.811138 
L 293.412741 51.538182 
L 293.412741 51.538182 
" clip-path="url(#p5d0d182fa4)" style="fill: none; stroke-dasharray: 1.5,2.475; stroke-dashoffset: 0; stroke: #0000ff; stroke-width: 1.5"/>
   </g>
   <g id="patch_6">
    <path d="M 174.1 161.12 
L 174.1 46.32 
" style="fill: none; stroke: #000000; stroke-linejoin: miter; stroke-linecap: square"/>
   </g>
   <g id="patch_7">
    <path d="M 174.1 161.12 
L 299.28 161.12 
" style="fill: none; stroke: #000000; stroke-linejoin: miter; stroke-linecap: square"/>
   </g>
   <g id="text_18">
    <!-- Init Sens:1000 Init Res:1 -->
    <g transform="translate(183.135469 40.32)scale(0.11 -0.11)">
     <use xlink:href="#Calibri-49"/>
     <use xlink:href="#Calibri-6e" x="25.195312"/>
     <use xlink:href="#Calibri-69" x="77.734375"/>
     <use xlink:href="#Calibri-74" x="100.683594"/>
     <use xlink:href="#Calibri-20" x="134.179688"/>
     <use xlink:href="#Calibri-53" x="156.787109"/>
     <use xlink:href="#Calibri-65" x="202.734375"/>
     <use xlink:href="#Calibri-6e" x="252.490234"/>
     <use xlink:href="#Calibri-73" x="305.029297"/>
     <use xlink:href="#Calibri-3a" x="344.140625"/>
     <use xlink:href="#Calibri-31" x="370.898438"/>
     <use xlink:href="#Calibri-30" x="421.582031"/>
     <use xlink:href="#Calibri-30" x="472.265625"/>
     <use xlink:href="#Calibri-30" x="522.949219"/>
     <use xlink:href="#Calibri-20" x="573.632812"/>
     <use xlink:href="#Calibri-49" x="596.240234"/>
     <use xlink:href="#Calibri-6e" x="621.435547"/>
     <use xlink:href="#Calibri-69" x="673.974609"/>
     <use xlink:href="#Calibri-74" x="696.923828"/>
     <use xlink:href="#Calibri-20" x="730.419922"/>
     <use xlink:href="#Calibri-52" x="753.027344"/>
     <use xlink:href="#Calibri-65" x="807.324219"/>
     <use xlink:href="#Calibri-73" x="857.080078"/>
     <use xlink:href="#Calibri-3a" x="896.191406"/>
     <use xlink:href="#Calibri-31" x="922.949219"/>
    </g>
   </g>
  </g>
  <g id="axes_3">
   <g id="patch_8">
    <path d="M 323.74 161.12 
L 448.92 161.12 
L 448.92 46.32 
L 323.74 46.32 
z
" style="fill: #ffffff"/>
   </g>
   <g id="matplotlib.axis_5">
    <g id="xtick_7">
     <g id="line2d_27">
      <g>
       <use xlink:href="#m6994cd1538" x="329.43" y="161.12" style="stroke: #000000; stroke-width: 0.8"/>
      </g>
     </g>
     <g id="text_19">
      <!-- 0 -->
      <g transform="translate(326.642188 175.601719)scale(0.11 -0.11)">
       <use xlink:href="#Calibri-30"/>
      </g>
     </g>
    </g>
    <g id="xtick_8">
     <g id="line2d_28">
      <g>
       <use xlink:href="#m6994cd1538" x="394.089091" y="161.12" style="stroke: #000000; stroke-width: 0.8"/>
      </g>
     </g>
     <g id="text_20">
      <!-- 200 -->
      <g transform="translate(385.725653 175.601719)scale(0.11 -0.11)">
       <use xlink:href="#Calibri-32"/>
       <use xlink:href="#Calibri-30" x="50.683594"/>
       <use xlink:href="#Calibri-30" x="101.367188"/>
      </g>
     </g>
    </g>
   </g>
   <g id="matplotlib.axis_6">
    <g id="ytick_9">
     <g id="line2d_29">
      <g>
       <use xlink:href="#m088d7f414b" x="323.74" y="155.970188" style="stroke: #000000; stroke-width: 0.8"/>
      </g>
     </g>
     <g id="text_21">
      <!-- 0 -->
      <g transform="translate(311.164375 159.711048)scale(0.11 -0.11)">
       <use xlink:href="#Calibri-30"/>
      </g>
     </g>
    </g>
    <g id="ytick_10">
     <g id="line2d_30">
      <g>
       <use xlink:href="#m088d7f414b" x="323.74" y="130.752571" style="stroke: #000000; stroke-width: 0.8"/>
      </g>
     </g>
     <g id="text_22">
      <!-- 2 -->
      <g transform="translate(311.164375 134.49343)scale(0.11 -0.11)">
       <use xlink:href="#Calibri-32"/>
      </g>
     </g>
    </g>
    <g id="ytick_11">
     <g id="line2d_31">
      <g>
       <use xlink:href="#m088d7f414b" x="323.74" y="105.534953" style="stroke: #000000; stroke-width: 0.8"/>
      </g>
     </g>
     <g id="text_23">
      <!-- 4 -->
      <g transform="translate(311.164375 109.275812)scale(0.11 -0.11)">
       <use xlink:href="#Calibri-34"/>
      </g>
     </g>
    </g>
    <g id="ytick_12">
     <g id="line2d_32">
      <g>
       <use xlink:href="#m088d7f414b" x="323.74" y="80.317335" style="stroke: #000000; stroke-width: 0.8"/>
      </g>
     </g>
     <g id="text_24">
      <!-- 6 -->
      <g transform="translate(311.164375 84.058195)scale(0.11 -0.11)">
       <use xlink:href="#Calibri-36"/>
      </g>
     </g>
    </g>
    <g id="ytick_13">
     <g id="line2d_33">
      <g>
       <use xlink:href="#m088d7f414b" x="323.74" y="55.099718" style="stroke: #000000; stroke-width: 0.8"/>
      </g>
     </g>
     <g id="text_25">
      <!-- 8 -->
      <g transform="translate(311.164375 58.840577)scale(0.11 -0.11)">
       <use xlink:href="#Calibri-38"/>
      </g>
     </g>
    </g>
    <g id="text_26">
     <!-- 1e7 -->
     <g transform="translate(323.74 43.32)scale(0.11 -0.11)">
      <use xlink:href="#Calibri-31"/>
      <use xlink:href="#Calibri-65" x="50.683594"/>
      <use xlink:href="#Calibri-37" x="100.439453"/>
     </g>
    </g>
   </g>
   <g id="line2d_34">
    <path d="M 423.832273 161.12 
L 423.832273 46.32 
" clip-path="url(#p2a731c0163)" style="fill: none; stroke: #ff0000; stroke-width: 1.5; stroke-linecap: square"/>
   </g>
   <g id="line2d_35">
    <path d="M 443.23 161.12 
L 443.23 46.32 
" clip-path="url(#p2a731c0163)" style="fill: none; stroke-dasharray: 5.55,2.4; stroke-dashoffset: 0; stroke: #0000ff; stroke-width: 1.5"/>
   </g>
   <g id="line2d_36">
    <path d="M 329.43 92.635242 
L 329.753295 92.056516 
L 330.399886 101.991673 
L 331.046477 108.825931 
L 331.693068 113.862673 
L 332.662955 119.522751 
L 333.632841 123.890238 
L 334.279432 126.320033 
L 335.895909 117.200938 
L 338.805568 100.285116 
L 340.09875 94.233496 
L 340.745341 91.672974 
L 341.391932 100.443958 
L 342.038523 106.692266 
L 343.008409 113.46369 
L 343.978295 118.530698 
L 344.948182 122.51139 
L 345.918068 125.699795 
L 347.534545 116.807241 
L 352.060682 90.639476 
L 352.707273 98.516208 
L 353.353864 104.31828 
L 354.32375 110.808599 
L 355.293636 115.72674 
L 356.263523 119.585102 
L 357.233409 122.684709 
L 358.203295 125.196186 
L 359.819773 117.180261 
L 361.759545 106.200148 
L 364.345909 90.760297 
L 364.9925 97.430117 
L 365.962386 104.647559 
L 366.932273 109.993718 
L 367.902159 114.148269 
L 368.872045 117.456292 
L 369.841932 120.137817 
L 370.811818 122.328161 
L 372.105 124.649331 
L 372.428295 125.141648 
L 374.044773 118.819376 
L 375.66125 111.478101 
L 377.277727 103.101416 
L 379.540795 90.218926 
L 380.187386 95.813323 
L 381.157273 102.024125 
L 382.127159 106.63349 
L 383.097045 110.149329 
L 384.066932 112.853301 
L 385.036818 114.932829 
L 386.006705 116.512342 
L 386.976591 117.672606 
L 387.946477 118.494777 
L 388.916364 118.996899 
L 389.88625 119.241047 
L 390.856136 119.255813 
L 392.149318 118.992008 
L 393.765795 118.33552 
L 395.382273 117.483461 
L 396.99875 116.418611 
L 398.615227 115.100573 
L 400.231705 113.50511 
L 401.848182 111.614334 
L 403.787955 108.992916 
L 405.727727 106.010737 
L 409.607273 99.496724 
L 412.840227 94.277116 
L 415.749886 89.954113 
L 419.306136 85.138881 
L 421.569205 82.309589 
L 424.802159 78.721126 
L 428.681705 74.464583 
L 431.591364 70.908708 
L 433.531136 68.208105 
L 435.470909 65.143697 
L 437.733977 61.139775 
L 442.906705 51.538182 
L 442.906705 51.538182 
" clip-path="url(#p2a731c0163)" style="fill: none; stroke: #ff0000; stroke-width: 1.5; stroke-linecap: square"/>
   </g>
   <g id="line2d_37">
    <path d="M 329.43 92.741961 
L 329.753295 92.102538 
L 330.399886 102.148214 
L 331.046477 109.120432 
L 331.693068 114.292948 
L 332.662955 120.188386 
L 333.632841 124.826893 
L 334.926023 129.731218 
L 336.219205 133.615687 
L 337.512386 136.755394 
L 338.805568 139.346587 
L 340.09875 141.498617 
L 341.391932 143.296411 
L 343.008409 145.116219 
L 344.624886 146.530184 
L 345.918068 147.396464 
L 347.534545 148.185639 
L 349.151023 148.695289 
L 351.090795 149.048685 
L 353.677159 149.29031 
L 357.88 149.349661 
L 365.639091 149.293385 
L 368.54875 148.983021 
L 370.811818 148.521098 
L 374.691364 147.456882 
L 377.924318 146.339088 
L 381.480568 145.024646 
L 384.390227 144.233179 
L 390.209545 142.763497 
L 393.119205 141.714596 
L 395.382273 140.686611 
L 397.322045 139.576311 
L 398.938523 138.412438 
L 400.555 136.975601 
L 402.494773 134.90425 
L 405.404432 131.427075 
L 408.960682 126.791376 
L 419.629432 112.361138 
L 423.508977 106.706692 
L 433.531136 92.216229 
L 438.057273 86.184471 
L 441.613523 81.695182 
L 442.906705 80.12744 
L 442.906705 80.12744 
" clip-path="url(#p2a731c0163)" style="fill: none; stroke-dasharray: 5.55,2.4; stroke-dashoffset: 0; stroke: #0000ff; stroke-width: 1.5"/>
   </g>
   <g id="line2d_38">
    <path d="M 329.43 154.804498 
L 331.369773 154.690552 
L 333.632841 154.285423 
L 338.482273 153.247932 
L 343.008409 152.528639 
L 344.948182 151.807154 
L 348.504432 150.346463 
L 350.444205 149.855994 
L 354.000455 149.105866 
L 355.940227 148.311255 
L 362.082841 145.599415 
L 367.902159 143.509866 
L 371.781705 141.622949 
L 375.014659 140.052325 
L 378.247614 138.814328 
L 381.157273 137.691417 
L 382.77375 136.70791 
L 384.713523 135.249148 
L 386.653295 133.511998 
L 388.593068 131.480177 
L 390.856136 128.753908 
L 399.261818 117.773281 
L 401.848182 113.966868 
L 404.434545 109.722076 
L 407.6675 103.886868 
L 411.547045 96.952862 
L 414.78 91.744928 
L 417.689659 87.554544 
L 420.922614 83.245713 
L 423.508977 80.233595 
L 430.944773 71.777949 
L 433.207841 68.707003 
L 435.147614 65.698191 
L 437.410682 61.75095 
L 442.906705 51.543606 
L 442.906705 51.543606 
" clip-path="url(#p2a731c0163)" style="fill: none; stroke-dasharray: 1.5,2.475; stroke-dashoffset: 0; stroke: #ff0000; stroke-width: 1.5"/>
   </g>
   <g id="line2d_39">
    <path d="M 329.43 155.901818 
L 336.5425 155.793307 
L 341.068636 155.541272 
L 344.301591 155.144673 
L 346.564659 154.666734 
L 349.151023 153.871033 
L 354.970341 151.92542 
L 357.88 151.164453 
L 360.789659 150.643229 
L 369.195341 149.312624 
L 372.105 148.495164 
L 376.307841 147.111876 
L 383.743636 144.455021 
L 391.179432 142.463156 
L 394.089091 141.31688 
L 396.352159 140.176153 
L 397.968636 139.149777 
L 399.585114 137.881962 
L 401.201591 136.322493 
L 403.464659 133.792281 
L 406.374318 130.198971 
L 410.900455 124.197783 
L 420.922614 110.519549 
L 436.1175 88.728527 
L 441.290227 82.090151 
L 442.906705 80.127443 
L 442.906705 80.127443 
" clip-path="url(#p2a731c0163)" style="fill: none; stroke-dasharray: 1.5,2.475; stroke-dashoffset: 0; stroke: #0000ff; stroke-width: 1.5"/>
   </g>
   <g id="patch_9">
    <path d="M 323.74 161.12 
L 323.74 46.32 
" style="fill: none; stroke: #000000; stroke-linejoin: miter; stroke-linecap: square"/>
   </g>
   <g id="patch_10">
    <path d="M 323.74 161.12 
L 448.92 161.12 
" style="fill: none; stroke: #000000; stroke-linejoin: miter; stroke-linecap: square"/>
   </g>
   <g id="text_27">
    <!-- Init Sens:10000 Init Res:1 -->
    <g transform="translate(329.987656 40.32)scale(0.11 -0.11)">
     <use xlink:href="#Calibri-49"/>
     <use xlink:href="#Calibri-6e" x="25.195312"/>
     <use xlink:href="#Calibri-69" x="77.734375"/>
     <use xlink:href="#Calibri-74" x="100.683594"/>
     <use xlink:href="#Calibri-20" x="134.179688"/>
     <use xlink:href="#Calibri-53" x="156.787109"/>
     <use xlink:href="#Calibri-65" x="202.734375"/>
     <use xlink:href="#Calibri-6e" x="252.490234"/>
     <use xlink:href="#Calibri-73" x="305.029297"/>
     <use xlink:href="#Calibri-3a" x="344.140625"/>
     <use xlink:href="#Calibri-31" x="370.898438"/>
     <use xlink:href="#Calibri-30" x="421.582031"/>
     <use xlink:href="#Calibri-30" x="472.265625"/>
     <use xlink:href="#Calibri-30" x="522.949219"/>
     <use xlink:href="#Calibri-30" x="573.632812"/>
     <use xlink:href="#Calibri-20" x="624.316406"/>
     <use xlink:href="#Calibri-49" x="646.923828"/>
     <use xlink:href="#Calibri-6e" x="672.119141"/>
     <use xlink:href="#Calibri-69" x="724.658203"/>
     <use xlink:href="#Calibri-74" x="747.607422"/>
     <use xlink:href="#Calibri-20" x="781.103516"/>
     <use xlink:href="#Calibri-52" x="803.710938"/>
     <use xlink:href="#Calibri-65" x="858.007812"/>
     <use xlink:href="#Calibri-73" x="907.763672"/>
     <use xlink:href="#Calibri-3a" x="946.875"/>
     <use xlink:href="#Calibri-31" x="973.632812"/>
    </g>
   </g>
  </g>
  <g id="axes_4">
   <g id="patch_11">
    <path d="M 24.46 317.36 
L 149.64 317.36 
L 149.64 202.56 
L 24.46 202.56 
z
" style="fill: #ffffff"/>
   </g>
   <g id="matplotlib.axis_7">
    <g id="xtick_9">
     <g id="line2d_40">
      <g>
       <use xlink:href="#m6994cd1538" x="30.15" y="317.36" style="stroke: #000000; stroke-width: 0.8"/>
      </g>
     </g>
     <g id="text_28">
      <!-- 0 -->
      <g transform="translate(27.362187 331.841719)scale(0.11 -0.11)">
       <use xlink:href="#Calibri-30"/>
      </g>
     </g>
    </g>
    <g id="xtick_10">
     <g id="line2d_41">
      <g>
       <use xlink:href="#m6994cd1538" x="80.415018" y="317.36" style="stroke: #000000; stroke-width: 0.8"/>
      </g>
     </g>
     <g id="text_29">
      <!-- 250 -->
      <g transform="translate(72.05158 331.841719)scale(0.11 -0.11)">
       <use xlink:href="#Calibri-32"/>
       <use xlink:href="#Calibri-35" x="50.683594"/>
       <use xlink:href="#Calibri-30" x="101.367188"/>
      </g>
     </g>
    </g>
    <g id="xtick_11">
     <g id="line2d_42">
      <g>
       <use xlink:href="#m6994cd1538" x="130.680035" y="317.36" style="stroke: #000000; stroke-width: 0.8"/>
      </g>
     </g>
     <g id="text_30">
      <!-- 500 -->
      <g transform="translate(122.316598 331.841719)scale(0.11 -0.11)">
       <use xlink:href="#Calibri-35"/>
       <use xlink:href="#Calibri-30" x="50.683594"/>
       <use xlink:href="#Calibri-30" x="101.367188"/>
      </g>
     </g>
    </g>
   </g>
   <g id="matplotlib.axis_8">
    <g id="ytick_14">
     <g id="line2d_43">
      <g>
       <use xlink:href="#m088d7f414b" x="24.46" y="312.143108" style="stroke: #000000; stroke-width: 0.8"/>
      </g>
     </g>
     <g id="text_31">
      <!-- 0 -->
      <g transform="translate(11.884375 315.883968)scale(0.11 -0.11)">
       <use xlink:href="#Calibri-30"/>
      </g>
     </g>
    </g>
    <g id="ytick_15">
     <g id="line2d_44">
      <g>
       <use xlink:href="#m088d7f414b" x="24.46" y="287.5944" style="stroke: #000000; stroke-width: 0.8"/>
      </g>
     </g>
     <g id="text_32">
      <!-- 2 -->
      <g transform="translate(11.884375 291.33526)scale(0.11 -0.11)">
       <use xlink:href="#Calibri-32"/>
      </g>
     </g>
    </g>
    <g id="ytick_16">
     <g id="line2d_45">
      <g>
       <use xlink:href="#m088d7f414b" x="24.46" y="263.045693" style="stroke: #000000; stroke-width: 0.8"/>
      </g>
     </g>
     <g id="text_33">
      <!-- 4 -->
      <g transform="translate(11.884375 266.786552)scale(0.11 -0.11)">
       <use xlink:href="#Calibri-34"/>
      </g>
     </g>
    </g>
    <g id="ytick_17">
     <g id="line2d_46">
      <g>
       <use xlink:href="#m088d7f414b" x="24.46" y="238.496985" style="stroke: #000000; stroke-width: 0.8"/>
      </g>
     </g>
     <g id="text_34">
      <!-- 6 -->
      <g transform="translate(11.884375 242.237844)scale(0.11 -0.11)">
       <use xlink:href="#Calibri-36"/>
      </g>
     </g>
    </g>
    <g id="ytick_18">
     <g id="line2d_47">
      <g>
       <use xlink:href="#m088d7f414b" x="24.46" y="213.948277" style="stroke: #000000; stroke-width: 0.8"/>
      </g>
     </g>
     <g id="text_35">
      <!-- 8 -->
      <g transform="translate(11.884375 217.689137)scale(0.11 -0.11)">
       <use xlink:href="#Calibri-38"/>
      </g>
     </g>
    </g>
    <g id="text_36">
     <!-- 1e7 -->
     <g transform="translate(24.46 199.56)scale(0.11 -0.11)">
      <use xlink:href="#Calibri-31"/>
      <use xlink:href="#Calibri-65" x="50.683594"/>
      <use xlink:href="#Calibri-37" x="100.439453"/>
     </g>
    </g>
   </g>
   <g id="line2d_48">
    <path d="M 143.95 317.36 
L 143.95 202.56 
" clip-path="url(#pa85eeb20e4)" style="fill: none; stroke: #ff0000; stroke-width: 1.5; stroke-linecap: square"/>
   </g>
   <g id="line2d_49">
    <path d="M 129.473675 317.36 
L 129.473675 202.56 
" clip-path="url(#pa85eeb20e4)" style="fill: none; stroke-dasharray: 5.55,2.4; stroke-dashoffset: 0; stroke: #0000ff; stroke-width: 1.5"/>
   </g>
   <g id="line2d_50">
    <path d="M 30.15 250.471458 
L 30.35106 249.96238 
L 30.95424 263.614519 
L 31.55742 271.792703 
L 32.361661 279.056657 
L 32.964841 283.21048 
L 34.171201 272.120156 
L 35.779682 257.518776 
L 36.784982 250.540992 
L 36.986042 249.352378 
L 37.589223 261.970734 
L 38.192403 269.942564 
L 38.996643 277.433704 
L 39.800883 283.037889 
L 41.007244 271.538765 
L 43.017845 251.614346 
L 43.419965 248.403736 
L 44.023145 260.591697 
L 44.626325 268.552711 
L 45.430565 276.226482 
L 46.234806 281.963652 
L 46.435866 283.182088 
L 47.642226 271.463684 
L 49.853887 248.316013 
L 50.457067 259.997098 
L 51.060247 267.87648 
L 51.864488 275.569549 
L 52.668728 281.333952 
L 52.869788 282.560992 
L 54.076148 270.50312 
L 56.086749 248.336151 
L 56.689929 259.61247 
L 57.49417 269.521117 
L 58.29841 276.596075 
L 59.10265 281.960981 
L 59.30371 283.108897 
L 60.309011 273.31365 
L 61.917491 255.213982 
L 62.520671 248.590923 
L 63.123852 259.478682 
L 63.928092 269.2299 
L 64.732332 276.248937 
L 65.536572 281.594117 
L 65.737633 282.737003 
L 66.742933 272.94715 
L 68.351413 254.661382 
L 68.954594 247.872162 
L 69.557774 258.735827 
L 70.362014 268.548029 
L 71.166254 275.640416 
L 71.970495 281.038191 
L 72.372615 283.286689 
L 73.377915 273.626757 
L 74.785336 257.700725 
L 75.589576 248.247907 
L 76.192756 258.779678 
L 76.996996 268.448321 
L 77.801237 275.453075 
L 78.605477 280.778903 
L 79.007597 282.999503 
L 80.012898 273.251584 
L 81.420318 257.202017 
L 82.224558 247.603334 
L 82.827739 258.073188 
L 83.631979 267.718499 
L 84.436219 274.680925 
L 85.240459 279.976631 
L 85.84364 283.191636 
L 86.84894 273.690953 
L 88.25636 257.931014 
L 89.060601 248.209578 
L 89.663781 258.148806 
L 90.468021 267.4767 
L 91.272261 274.220605 
L 92.076502 279.331923 
L 92.679682 282.41481 
L 93.684982 273.037005 
L 95.092403 257.461889 
L 95.896643 247.737321 
L 96.499823 257.218532 
L 97.304064 266.133065 
L 98.108304 272.500585 
L 98.912544 277.231181 
L 99.716784 280.839049 
L 100.118905 282.317758 
L 101.325265 272.001641 
L 102.732686 257.916459 
L 103.737986 246.699274 
L 104.341166 255.530706 
L 105.145406 263.924492 
L 105.949647 269.894598 
L 106.753887 274.288712 
L 107.558127 277.581383 
L 108.362367 280.060629 
L 109.166608 281.917368 
L 110.372968 273.885729 
L 111.780389 262.732694 
L 113.187809 249.572 
L 113.388869 247.545198 
L 114.19311 256.577154 
L 114.99735 262.836848 
L 115.80159 267.341071 
L 116.60583 270.70059 
L 117.410071 273.286241 
L 118.415371 275.728254 
L 119.420671 277.519395 
L 120.425972 278.787338 
L 121.230212 279.462311 
L 122.034452 279.860853 
L 122.838693 280.007055 
L 123.843993 279.920596 
L 124.849293 279.584517 
L 125.854594 278.979441 
L 126.859894 278.06792 
L 127.865194 276.828033 
L 128.870495 275.215337 
L 130.478975 272.134232 
L 134.098057 264.517549 
L 136.108657 260.099201 
L 137.516078 256.46443 
L 139.727739 250.016293 
L 143.74894 238.647127 
L 143.74894 238.647127 
" clip-path="url(#pa85eeb20e4)" style="fill: none; stroke: #ff0000; stroke-width: 1.5; stroke-linecap: square"/>
   </g>
   <g id="line2d_51">
    <path d="M 30.15 250.325966 
L 30.35106 249.707001 
L 30.95424 263.219161 
L 31.55742 271.390589 
L 32.361661 278.730432 
L 33.165901 284.17467 
L 34.171201 289.361651 
L 35.176502 293.347875 
L 36.181802 296.509685 
L 37.388163 299.525187 
L 38.594523 301.900879 
L 39.800883 303.804516 
L 41.208304 305.553182 
L 42.615724 306.913842 
L 44.023145 307.953259 
L 45.430565 308.727226 
L 46.837986 309.259785 
L 48.446466 309.621874 
L 52.668728 310.273878 
L 56.287809 310.648112 
L 60.510071 310.859384 
L 65.737633 310.900066 
L 69.758834 310.727702 
L 72.372615 310.402669 
L 74.182155 309.980887 
L 75.790636 309.384024 
L 77.198057 308.609465 
L 79.208657 307.197549 
L 84.838339 302.795448 
L 90.669081 297.639981 
L 93.282862 295.821366 
L 95.494523 294.527381 
L 97.103004 293.835978 
L 98.912544 293.296994 
L 104.341166 291.813567 
L 105.949647 291.094282 
L 107.357067 290.222116 
L 108.563428 289.218178 
L 109.769788 287.891197 
L 110.775088 286.472008 
L 111.981449 284.342318 
L 113.187809 281.762509 
L 114.59523 278.243477 
L 116.60583 272.530194 
L 122.637633 254.903456 
L 126.457774 245.1507 
L 132.087456 231.680603 
L 134.500177 226.670736 
L 140.733039 214.216106 
L 143.74894 207.778182 
L 143.74894 207.778182 
" clip-path="url(#pa85eeb20e4)" style="fill: none; stroke-dasharray: 5.55,2.4; stroke-dashoffset: 0; stroke: #0000ff; stroke-width: 1.5"/>
   </g>
   <g id="line2d_52">
    <path d="M 30.15 312.141818 
L 52.467668 312.034604 
L 58.70053 311.732109 
L 62.520671 311.454659 
L 64.933392 311.296449 
L 68.351413 311.112315 
L 75.388516 310.876449 
L 78.806537 310.674423 
L 85.64258 309.849549 
L 89.261661 309.24605 
L 90.870141 308.925553 
L 92.880742 308.295458 
L 97.706184 306.420294 
L 99.113604 305.404867 
L 102.129505 303.043704 
L 103.536926 302.418445 
L 104.743286 301.882846 
L 105.949647 301.030601 
L 107.357067 299.775548 
L 108.965548 298.0359 
L 110.976148 295.822055 
L 112.182509 294.82383 
L 115.39947 292.410567 
L 118.817491 289.162819 
L 122.235512 286.13404 
L 124.246113 283.89388 
L 126.055654 281.590295 
L 127.463074 279.406276 
L 128.669435 277.127704 
L 130.680035 272.710593 
L 137.113958 257.747123 
L 138.923498 252.502063 
L 142.9447 240.793144 
L 143.74894 238.676068 
L 143.74894 238.676068 
" clip-path="url(#pa85eeb20e4)" style="fill: none; stroke-dasharray: 1.5,2.475; stroke-dashoffset: 0; stroke: #ff0000; stroke-width: 1.5"/>
   </g>
   <g id="line2d_53">
    <path d="M 30.15 312.140426 
L 42.816784 312.0326 
L 46.234806 311.787248 
L 52.668728 311.099619 
L 59.70583 311.042105 
L 67.748233 310.887754 
L 71.166254 310.605053 
L 73.377915 310.208021 
L 74.986396 309.723363 
L 76.393816 309.090829 
L 77.801237 308.216228 
L 80.415018 306.28317 
L 85.039399 302.613671 
L 90.065901 298.10487 
L 92.478622 296.35577 
L 94.891343 294.852982 
L 96.499823 294.068462 
L 98.309364 293.456713 
L 104.944346 291.571313 
L 106.552827 290.753235 
L 107.759187 289.918942 
L 108.965548 288.817152 
L 110.171908 287.362198 
L 111.378269 285.46543 
L 112.584629 283.104905 
L 113.992049 279.809609 
L 115.80159 274.891906 
L 119.420671 264.068043 
L 122.034452 256.501104 
L 125.452473 247.659137 
L 128.870495 239.268988 
L 131.685336 232.567989 
L 134.098057 227.469971 
L 143.14576 209.129808 
L 143.74894 207.778182 
L 143.74894 207.778182 
" clip-path="url(#pa85eeb20e4)" style="fill: none; stroke-dasharray: 1.5,2.475; stroke-dashoffset: 0; stroke: #0000ff; stroke-width: 1.5"/>
   </g>
   <g id="patch_12">
    <path d="M 24.46 317.36 
L 24.46 202.56 
" style="fill: none; stroke: #000000; stroke-linejoin: miter; stroke-linecap: square"/>
   </g>
   <g id="patch_13">
    <path d="M 24.46 317.36 
L 149.64 317.36 
" style="fill: none; stroke: #000000; stroke-linejoin: miter; stroke-linecap: square"/>
   </g>
   <g id="text_37">
    <!-- Init Sens:100 Init Res:10 -->
    <g transform="translate(33.495469 196.56)scale(0.11 -0.11)">
     <use xlink:href="#Calibri-49"/>
     <use xlink:href="#Calibri-6e" x="25.195312"/>
     <use xlink:href="#Calibri-69" x="77.734375"/>
     <use xlink:href="#Calibri-74" x="100.683594"/>
     <use xlink:href="#Calibri-20" x="134.179688"/>
     <use xlink:href="#Calibri-53" x="156.787109"/>
     <use xlink:href="#Calibri-65" x="202.734375"/>
     <use xlink:href="#Calibri-6e" x="252.490234"/>
     <use xlink:href="#Calibri-73" x="305.029297"/>
     <use xlink:href="#Calibri-3a" x="344.140625"/>
     <use xlink:href="#Calibri-31" x="370.898438"/>
     <use xlink:href="#Calibri-30" x="421.582031"/>
     <use xlink:href="#Calibri-30" x="472.265625"/>
     <use xlink:href="#Calibri-20" x="522.949219"/>
     <use xlink:href="#Calibri-49" x="545.556641"/>
     <use xlink:href="#Calibri-6e" x="570.751953"/>
     <use xlink:href="#Calibri-69" x="623.291016"/>
     <use xlink:href="#Calibri-74" x="646.240234"/>
     <use xlink:href="#Calibri-20" x="679.736328"/>
     <use xlink:href="#Calibri-52" x="702.34375"/>
     <use xlink:href="#Calibri-65" x="756.640625"/>
     <use xlink:href="#Calibri-73" x="806.396484"/>
     <use xlink:href="#Calibri-3a" x="845.507812"/>
     <use xlink:href="#Calibri-31" x="872.265625"/>
     <use xlink:href="#Calibri-30" x="922.949219"/>
    </g>
   </g>
  </g>
  <g id="axes_5">
   <g id="patch_14">
    <path d="M 174.1 317.36 
L 299.28 317.36 
L 299.28 202.56 
L 174.1 202.56 
z
" style="fill: #ffffff"/>
   </g>
   <g id="matplotlib.axis_9">
    <g id="xtick_12">
     <g id="line2d_54">
      <g>
       <use xlink:href="#m6994cd1538" x="179.79" y="317.36" style="stroke: #000000; stroke-width: 0.8"/>
      </g>
     </g>
     <g id="text_38">
      <!-- 0 -->
      <g transform="translate(177.002187 331.841719)scale(0.11 -0.11)">
       <use xlink:href="#Calibri-30"/>
      </g>
     </g>
    </g>
    <g id="xtick_13">
     <g id="line2d_55">
      <g>
       <use xlink:href="#m6994cd1538" x="228.422479" y="317.36" style="stroke: #000000; stroke-width: 0.8"/>
      </g>
     </g>
     <g id="text_39">
      <!-- 100 -->
      <g transform="translate(220.059041 331.841719)scale(0.11 -0.11)">
       <use xlink:href="#Calibri-31"/>
       <use xlink:href="#Calibri-30" x="50.683594"/>
       <use xlink:href="#Calibri-30" x="101.367188"/>
      </g>
     </g>
    </g>
    <g id="xtick_14">
     <g id="line2d_56">
      <g>
       <use xlink:href="#m6994cd1538" x="277.054957" y="317.36" style="stroke: #000000; stroke-width: 0.8"/>
      </g>
     </g>
     <g id="text_40">
      <!-- 200 -->
      <g transform="translate(268.69152 331.841719)scale(0.11 -0.11)">
       <use xlink:href="#Calibri-32"/>
       <use xlink:href="#Calibri-30" x="50.683594"/>
       <use xlink:href="#Calibri-30" x="101.367188"/>
      </g>
     </g>
    </g>
   </g>
   <g id="matplotlib.axis_10">
    <g id="ytick_19">
     <g id="line2d_57">
      <g>
       <use xlink:href="#m088d7f414b" x="174.1" y="313.776283" style="stroke: #000000; stroke-width: 0.8"/>
      </g>
     </g>
     <g id="text_41">
      <!-- 0 -->
      <g transform="translate(161.524375 317.517142)scale(0.11 -0.11)">
       <use xlink:href="#Calibri-30"/>
      </g>
     </g>
    </g>
    <g id="ytick_20">
     <g id="line2d_58">
      <g>
       <use xlink:href="#m088d7f414b" x="174.1" y="290.190593" style="stroke: #000000; stroke-width: 0.8"/>
      </g>
     </g>
     <g id="text_42">
      <!-- 2 -->
      <g transform="translate(161.524375 293.931452)scale(0.11 -0.11)">
       <use xlink:href="#Calibri-32"/>
      </g>
     </g>
    </g>
    <g id="ytick_21">
     <g id="line2d_59">
      <g>
       <use xlink:href="#m088d7f414b" x="174.1" y="266.604903" style="stroke: #000000; stroke-width: 0.8"/>
      </g>
     </g>
     <g id="text_43">
      <!-- 4 -->
      <g transform="translate(161.524375 270.345763)scale(0.11 -0.11)">
       <use xlink:href="#Calibri-34"/>
      </g>
     </g>
    </g>
    <g id="ytick_22">
     <g id="line2d_60">
      <g>
       <use xlink:href="#m088d7f414b" x="174.1" y="243.019213" style="stroke: #000000; stroke-width: 0.8"/>
      </g>
     </g>
     <g id="text_44">
      <!-- 6 -->
      <g transform="translate(161.524375 246.760073)scale(0.11 -0.11)">
       <use xlink:href="#Calibri-36"/>
      </g>
     </g>
    </g>
    <g id="ytick_23">
     <g id="line2d_61">
      <g>
       <use xlink:href="#m088d7f414b" x="174.1" y="219.433523" style="stroke: #000000; stroke-width: 0.8"/>
      </g>
     </g>
     <g id="text_45">
      <!-- 8 -->
      <g transform="translate(161.524375 223.174383)scale(0.11 -0.11)">
       <use xlink:href="#Calibri-38"/>
      </g>
     </g>
    </g>
    <g id="text_46">
     <!-- 1e7 -->
     <g transform="translate(174.1 199.56)scale(0.11 -0.11)">
      <use xlink:href="#Calibri-31"/>
      <use xlink:href="#Calibri-65" x="50.683594"/>
      <use xlink:href="#Calibri-37" x="100.439453"/>
     </g>
    </g>
   </g>
   <g id="line2d_62">
    <path d="M 293.59 317.36 
L 293.59 202.56 
" clip-path="url(#p2b1dd75a3d)" style="fill: none; stroke: #ff0000; stroke-width: 1.5; stroke-linecap: square"/>
   </g>
   <g id="line2d_63">
    <path d="M 264.896838 317.36 
L 264.896838 202.56 
" clip-path="url(#p2b1dd75a3d)" style="fill: none; stroke-dasharray: 5.55,2.4; stroke-dashoffset: 0; stroke: #0000ff; stroke-width: 1.5"/>
   </g>
   <g id="line2d_64">
    <path d="M 179.79 254.408131 
L 180.276325 253.903536 
L 181.248974 263.167003 
L 182.221624 269.524189 
L 183.194274 274.188594 
L 184.166923 277.824651 
L 185.625897 282.163891 
L 187.084872 285.611957 
L 189.030171 278.880101 
L 193.893419 261.359499 
L 195.352393 257.06023 
L 196.811368 253.395209 
L 197.784017 261.479025 
L 198.756667 267.21984 
L 199.729316 271.590421 
L 200.701966 275.117996 
L 202.16094 279.395792 
L 203.619915 282.759839 
L 205.078889 285.449575 
L 207.024188 279.118326 
L 209.455812 270.393248 
L 213.34641 256.09936 
L 214.31906 252.9665 
L 215.291709 259.804544 
L 216.264359 264.858077 
L 217.237009 268.799272 
L 218.209658 272.033529 
L 219.182308 274.720261 
L 220.641282 277.960735 
L 222.100256 280.470194 
L 223.559231 282.412754 
L 225.018205 283.900109 
L 225.990855 284.672498 
L 227.936154 279.396857 
L 230.367778 272.176378 
L 233.772051 261.254149 
L 236.69 251.704067 
L 237.66265 256.854823 
L 238.635299 260.761521 
L 239.607949 263.852494 
L 240.580598 266.328561 
L 241.553248 268.322263 
L 242.525897 269.934256 
L 243.498547 271.232558 
L 244.471197 272.275779 
L 245.930171 273.42696 
L 247.389145 274.190149 
L 248.84812 274.632039 
L 250.307094 274.814892 
L 251.766068 274.786643 
L 253.711368 274.473708 
L 255.656667 273.905761 
L 257.601966 273.114478 
L 259.547265 272.090299 
L 261.978889 270.518218 
L 264.896838 268.323175 
L 267.814786 265.850891 
L 275.595983 258.799285 
L 279.000256 255.7199 
L 287.754103 248.124884 
L 291.158376 244.752169 
L 293.103675 242.687402 
L 293.103675 242.687402 
" clip-path="url(#p2b1dd75a3d)" style="fill: none; stroke: #ff0000; stroke-width: 1.5; stroke-linecap: square"/>
   </g>
   <g id="line2d_65">
    <path d="M 179.79 254.476868 
L 180.276325 254.025723 
L 181.248974 263.026682 
L 182.221624 269.167643 
L 183.194274 273.631241 
L 184.166923 277.055773 
L 185.139573 279.829053 
L 186.598547 283.168531 
L 188.057521 285.756117 
L 189.516496 287.757779 
L 190.97547 289.279247 
L 192.434444 290.396991 
L 193.893419 291.173779 
L 195.352393 291.662045 
L 196.811368 291.907731 
L 198.270342 291.959203 
L 200.215641 291.776632 
L 202.16094 291.37576 
L 204.106239 290.76573 
L 206.537863 289.74468 
L 208.969487 288.460284 
L 211.887436 286.678065 
L 215.291709 284.335612 
L 218.695983 281.692851 
L 223.072906 277.987153 
L 228.422479 273.26313 
L 235.71735 266.658833 
L 242.039573 261.267176 
L 249.820769 254.883269 
L 261.978889 245.071639 
L 264.896838 242.385638 
L 268.787436 238.456389 
L 278.027607 228.511792 
L 280.945556 225.000534 
L 284.349829 220.464197 
L 288.240427 214.942129 
L 293.103675 207.778182 
L 293.103675 207.778182 
" clip-path="url(#p2b1dd75a3d)" style="fill: none; stroke-dasharray: 5.55,2.4; stroke-dashoffset: 0; stroke: #0000ff; stroke-width: 1.5"/>
   </g>
   <g id="line2d_66">
    <path d="M 179.79 312.141818 
L 182.707949 311.986838 
L 186.112222 311.512665 
L 193.893419 310.213131 
L 200.215641 309.429874 
L 203.13359 308.658488 
L 211.401111 306.231187 
L 217.237009 304.878739 
L 219.668632 303.909141 
L 222.586581 302.458553 
L 225.50453 300.724931 
L 230.367778 297.664136 
L 232.799402 296.416563 
L 235.231026 295.427413 
L 238.635299 294.17154 
L 240.580598 292.987365 
L 243.012222 291.181898 
L 246.416496 288.307884 
L 251.766068 283.430764 
L 260.03359 275.616738 
L 265.869487 269.640618 
L 276.082308 259.077863 
L 279.000256 256.263609 
L 289.699402 246.411583 
L 293.103675 242.812136 
L 293.103675 242.812136 
" clip-path="url(#p2b1dd75a3d)" style="fill: none; stroke-dasharray: 1.5,2.475; stroke-dashoffset: 0; stroke: #ff0000; stroke-width: 1.5"/>
   </g>
   <g id="line2d_67">
    <path d="M 179.79 310.355758 
L 181.735299 310.226521 
L 183.680598 309.823286 
L 185.625897 309.213967 
L 188.057521 308.201068 
L 190.489145 306.916108 
L 192.920769 305.364706 
L 195.352393 303.564676 
L 199.242991 300.353519 
L 207.996838 292.769592 
L 219.182308 282.559861 
L 236.69 266.01276 
L 242.039573 261.381885 
L 249.334444 255.322721 
L 262.465214 244.655071 
L 265.383162 241.921232 
L 268.787436 238.462846 
L 278.027607 228.514002 
L 280.945556 225.002121 
L 284.349829 220.465321 
L 288.240427 214.942858 
L 293.103675 207.778632 
L 293.103675 207.778632 
" clip-path="url(#p2b1dd75a3d)" style="fill: none; stroke-dasharray: 1.5,2.475; stroke-dashoffset: 0; stroke: #0000ff; stroke-width: 1.5"/>
   </g>
   <g id="patch_15">
    <path d="M 174.1 317.36 
L 174.1 202.56 
" style="fill: none; stroke: #000000; stroke-linejoin: miter; stroke-linecap: square"/>
   </g>
   <g id="patch_16">
    <path d="M 174.1 317.36 
L 299.28 317.36 
" style="fill: none; stroke: #000000; stroke-linejoin: miter; stroke-linecap: square"/>
   </g>
   <g id="text_47">
    <!-- Init Sens:1000 Init Res:10 -->
    <g transform="translate(180.347656 196.56)scale(0.11 -0.11)">
     <use xlink:href="#Calibri-49"/>
     <use xlink:href="#Calibri-6e" x="25.195312"/>
     <use xlink:href="#Calibri-69" x="77.734375"/>
     <use xlink:href="#Calibri-74" x="100.683594"/>
     <use xlink:href="#Calibri-20" x="134.179688"/>
     <use xlink:href="#Calibri-53" x="156.787109"/>
     <use xlink:href="#Calibri-65" x="202.734375"/>
     <use xlink:href="#Calibri-6e" x="252.490234"/>
     <use xlink:href="#Calibri-73" x="305.029297"/>
     <use xlink:href="#Calibri-3a" x="344.140625"/>
     <use xlink:href="#Calibri-31" x="370.898438"/>
     <use xlink:href="#Calibri-30" x="421.582031"/>
     <use xlink:href="#Calibri-30" x="472.265625"/>
     <use xlink:href="#Calibri-30" x="522.949219"/>
     <use xlink:href="#Calibri-20" x="573.632812"/>
     <use xlink:href="#Calibri-49" x="596.240234"/>
     <use xlink:href="#Calibri-6e" x="621.435547"/>
     <use xlink:href="#Calibri-69" x="673.974609"/>
     <use xlink:href="#Calibri-74" x="696.923828"/>
     <use xlink:href="#Calibri-20" x="730.419922"/>
     <use xlink:href="#Calibri-52" x="753.027344"/>
     <use xlink:href="#Calibri-65" x="807.324219"/>
     <use xlink:href="#Calibri-73" x="857.080078"/>
     <use xlink:href="#Calibri-3a" x="896.191406"/>
     <use xlink:href="#Calibri-31" x="922.949219"/>
     <use xlink:href="#Calibri-30" x="973.632812"/>
    </g>
   </g>
  </g>
  <g id="axes_6">
   <g id="patch_17">
    <path d="M 323.74 317.36 
L 448.92 317.36 
L 448.92 202.56 
L 323.74 202.56 
z
" style="fill: #ffffff"/>
   </g>
   <g id="matplotlib.axis_11">
    <g id="xtick_15">
     <g id="line2d_68">
      <g>
       <use xlink:href="#m6994cd1538" x="329.43" y="317.36" style="stroke: #000000; stroke-width: 0.8"/>
      </g>
     </g>
     <g id="text_48">
      <!-- 0 -->
      <g transform="translate(326.642188 331.841719)scale(0.11 -0.11)">
       <use xlink:href="#Calibri-30"/>
      </g>
     </g>
    </g>
    <g id="xtick_16">
     <g id="line2d_69">
      <g>
       <use xlink:href="#m6994cd1538" x="379.518028" y="317.36" style="stroke: #000000; stroke-width: 0.8"/>
      </g>
     </g>
     <g id="text_49">
      <!-- 250 -->
      <g transform="translate(371.154591 331.841719)scale(0.11 -0.11)">
       <use xlink:href="#Calibri-32"/>
       <use xlink:href="#Calibri-35" x="50.683594"/>
       <use xlink:href="#Calibri-30" x="101.367188"/>
      </g>
     </g>
    </g>
    <g id="xtick_17">
     <g id="line2d_70">
      <g>
       <use xlink:href="#m6994cd1538" x="429.606056" y="317.36" style="stroke: #000000; stroke-width: 0.8"/>
      </g>
     </g>
     <g id="text_50">
      <!-- 500 -->
      <g transform="translate(421.242619 331.841719)scale(0.11 -0.11)">
       <use xlink:href="#Calibri-35"/>
       <use xlink:href="#Calibri-30" x="50.683594"/>
       <use xlink:href="#Calibri-30" x="101.367188"/>
      </g>
     </g>
    </g>
   </g>
   <g id="matplotlib.axis_12">
    <g id="ytick_24">
     <g id="line2d_71">
      <g>
       <use xlink:href="#m088d7f414b" x="323.74" y="312.142458" style="stroke: #000000; stroke-width: 0.8"/>
      </g>
     </g>
     <g id="text_51">
      <!-- 0 -->
      <g transform="translate(311.164375 315.883317)scale(0.11 -0.11)">
       <use xlink:href="#Calibri-30"/>
      </g>
     </g>
    </g>
    <g id="ytick_25">
     <g id="line2d_72">
      <g>
       <use xlink:href="#m088d7f414b" x="323.74" y="286.606619" style="stroke: #000000; stroke-width: 0.8"/>
      </g>
     </g>
     <g id="text_52">
      <!-- 2 -->
      <g transform="translate(311.164375 290.347478)scale(0.11 -0.11)">
       <use xlink:href="#Calibri-32"/>
      </g>
     </g>
    </g>
    <g id="ytick_26">
     <g id="line2d_73">
      <g>
       <use xlink:href="#m088d7f414b" x="323.74" y="261.07078" style="stroke: #000000; stroke-width: 0.8"/>
      </g>
     </g>
     <g id="text_53">
      <!-- 4 -->
      <g transform="translate(311.164375 264.81164)scale(0.11 -0.11)">
       <use xlink:href="#Calibri-34"/>
      </g>
     </g>
    </g>
    <g id="ytick_27">
     <g id="line2d_74">
      <g>
       <use xlink:href="#m088d7f414b" x="323.74" y="235.534941" style="stroke: #000000; stroke-width: 0.8"/>
      </g>
     </g>
     <g id="text_54">
      <!-- 6 -->
      <g transform="translate(311.164375 239.275801)scale(0.11 -0.11)">
       <use xlink:href="#Calibri-36"/>
      </g>
     </g>
    </g>
    <g id="ytick_28">
     <g id="line2d_75">
      <g>
       <use xlink:href="#m088d7f414b" x="323.74" y="209.999103" style="stroke: #000000; stroke-width: 0.8"/>
      </g>
     </g>
     <g id="text_55">
      <!-- 8 -->
      <g transform="translate(311.164375 213.739962)scale(0.11 -0.11)">
       <use xlink:href="#Calibri-38"/>
      </g>
     </g>
    </g>
    <g id="text_56">
     <!-- 1e7 -->
     <g transform="translate(323.74 199.56)scale(0.11 -0.11)">
      <use xlink:href="#Calibri-31"/>
      <use xlink:href="#Calibri-65" x="50.683594"/>
      <use xlink:href="#Calibri-37" x="100.439453"/>
     </g>
    </g>
   </g>
   <g id="line2d_76">
    <path d="M 443.23 317.36 
L 443.23 202.56 
" clip-path="url(#pade2fcb830)" style="fill: none; stroke: #ff0000; stroke-width: 1.5; stroke-linecap: square"/>
   </g>
   <g id="line2d_77">
    <path d="M 431.409225 317.36 
L 431.409225 202.56 
" clip-path="url(#pade2fcb830)" style="fill: none; stroke-dasharray: 5.55,2.4; stroke-dashoffset: 0; stroke: #0000ff; stroke-width: 1.5"/>
   </g>
   <g id="line2d_78">
    <path d="M 329.43 248.249061 
L 329.630352 247.606017 
L 330.231408 261.561838 
L 330.832465 269.996655 
L 331.633873 277.606631 
L 332.23493 281.978213 
L 333.437042 270.449933 
L 335.039859 254.956008 
L 336.04162 247.504314 
L 336.241972 246.245048 
L 336.843028 259.482938 
L 337.444085 267.855654 
L 338.245493 275.76034 
L 339.046901 281.653543 
L 340.249014 269.661634 
L 342.252535 248.776851 
L 342.653239 245.404076 
L 343.254296 258.161137 
L 343.855352 266.515975 
L 344.656761 274.574109 
L 345.458169 280.590908 
L 345.658521 281.871768 
L 346.860634 269.672639 
L 349.064507 245.538596 
L 349.665563 257.740293 
L 350.26662 265.977639 
L 351.068028 274.032066 
L 351.869437 280.069341 
L 352.270141 282.561165 
L 353.271901 272.537638 
L 355.07507 251.687818 
L 355.676127 245.181627 
L 356.277183 257.14099 
L 357.078592 267.600855 
L 357.88 275.07877 
L 358.681408 280.725883 
L 358.881761 281.930164 
L 360.083873 269.425749 
L 362.087394 245.783792 
L 362.688451 257.198619 
L 363.489859 267.434978 
L 364.291268 274.783544 
L 365.092676 280.356153 
L 365.293028 281.551298 
L 366.294789 271.30825 
L 367.897606 252.237593 
L 368.498662 245.145916 
L 369.099718 256.484916 
L 369.901127 266.755851 
L 370.702535 274.163205 
L 371.503944 279.806838 
L 371.904648 282.16054 
L 372.906408 272.109899 
L 374.308873 255.556493 
L 375.110282 245.698708 
L 375.711338 256.68121 
L 376.512746 266.792871 
L 377.314155 274.127381 
L 378.115563 279.733354 
L 378.516268 282.077431 
L 379.518028 271.986962 
L 380.920493 255.290306 
L 381.721901 245.258989 
L 382.322958 256.220815 
L 383.124366 266.32844 
L 383.925775 273.664739 
L 384.727183 279.243729 
L 385.127887 281.570741 
L 386.129648 271.315354 
L 387.532113 254.367587 
L 388.333521 244.199306 
L 388.934577 255.193561 
L 389.735986 265.323707 
L 390.537394 272.615924 
L 391.338803 278.115616 
L 391.939859 281.428809 
L 392.94162 271.295947 
L 394.344085 254.58873 
L 395.145493 244.304852 
L 395.746549 254.645588 
L 396.547958 264.261177 
L 397.349366 271.088169 
L 398.150775 276.104622 
L 398.952183 279.858738 
L 399.352887 281.375048 
L 400.555 269.941706 
L 402.157817 252.190411 
L 402.758873 244.989994 
L 403.560282 256.240371 
L 404.36169 263.846752 
L 405.163099 269.221558 
L 405.964507 273.187125 
L 406.765915 276.185787 
L 407.567324 278.501271 
L 408.569085 280.704074 
L 409.771197 273.55628 
L 410.97331 265.139407 
L 412.175423 255.185375 
L 413.177183 245.622243 
L 413.978592 254.980437 
L 414.78 261.584789 
L 415.581408 266.448788 
L 416.382817 270.129996 
L 417.184225 272.973625 
L 418.185986 275.688078 
L 419.187746 277.713702 
L 420.189507 279.236322 
L 421.191268 280.325685 
L 421.39162 280.494062 
L 422.39338 277.23258 
L 423.395141 273.234854 
L 424.396901 268.322495 
L 425.398662 262.355536 
L 426.600775 253.718846 
L 427.602535 245.334073 
L 428.403944 252.2196 
L 429.205352 256.884615 
L 430.006761 260.002086 
L 430.607817 261.559 
L 431.208873 262.563572 
L 431.80993 263.074375 
L 432.210634 263.180812 
L 432.81169 263.034761 
L 433.412746 262.5767 
L 434.214155 261.570866 
L 435.015563 260.191459 
L 436.017324 258.004008 
L 437.419789 254.369602 
L 439.022606 249.53558 
L 441.426831 241.262361 
L 443.029648 235.816692 
L 443.029648 235.816692 
" clip-path="url(#pade2fcb830)" style="fill: none; stroke: #ff0000; stroke-width: 1.5; stroke-linecap: square"/>
   </g>
   <g id="line2d_79">
    <path d="M 329.43 248.053723 
L 329.630352 247.42774 
L 330.231408 261.477827 
L 330.832465 269.970177 
L 331.633873 277.591913 
L 332.435282 283.259085 
L 333.437042 288.648582 
L 334.438803 292.785235 
L 335.440563 296.062249 
L 336.442324 298.711351 
L 337.644437 301.272947 
L 338.846549 303.31714 
L 340.048662 304.95571 
L 341.451127 306.474039 
L 342.853592 307.664525 
L 344.256056 308.5835 
L 345.858873 309.358196 
L 347.46169 309.873224 
L 349.064507 310.142241 
L 356.878239 310.715455 
L 362.287746 310.896922 
L 368.097958 310.868343 
L 371.904648 310.643918 
L 374.308873 310.291775 
L 376.112042 309.82158 
L 377.714859 309.167208 
L 379.518028 308.165444 
L 381.321197 306.930343 
L 383.324718 305.232447 
L 389.13493 300.037474 
L 392.140211 297.359107 
L 393.94338 296.07681 
L 397.75007 293.850147 
L 400.555 292.366342 
L 405.563803 289.904585 
L 407.366972 288.759852 
L 408.769437 287.595023 
L 409.971549 286.306901 
L 411.173662 284.728134 
L 412.375775 282.782825 
L 414.178944 279.33512 
L 418.185986 270.932582 
L 419.788803 267.020214 
L 423.996197 255.493564 
L 430.006761 238.651133 
L 432.81169 231.206905 
L 434.815211 225.847404 
L 436.61838 221.762783 
L 442.428592 209.223044 
L 443.029648 207.778182 
L 443.029648 207.778182 
" clip-path="url(#pade2fcb830)" style="fill: none; stroke-dasharray: 5.55,2.4; stroke-dashoffset: 0; stroke: #0000ff; stroke-width: 1.5"/>
   </g>
   <g id="line2d_80">
    <path d="M 329.43 312.141818 
L 354.273662 312.031505 
L 359.282465 311.807755 
L 362.488099 311.604734 
L 365.49338 311.329086 
L 367.897606 311.192475 
L 384.727183 310.666649 
L 389.13493 310.159606 
L 390.938099 309.771911 
L 392.741268 309.157722 
L 396.547958 307.701195 
L 397.75007 306.854415 
L 398.952183 305.707932 
L 401.957465 302.529141 
L 404.161338 300.720124 
L 405.764155 298.743739 
L 408.569085 295.27602 
L 409.570845 294.306922 
L 410.572606 293.620142 
L 411.774718 293.083135 
L 415.180704 291.836461 
L 417.58493 290.360331 
L 423.996197 286.071329 
L 426.400423 284.059772 
L 428.604296 281.992485 
L 429.606056 280.58124 
L 430.607817 278.785372 
L 431.609577 276.554317 
L 432.81169 273.299599 
L 434.414507 268.25782 
L 436.818732 259.819362 
L 440.024366 247.742659 
L 442.628944 237.904039 
L 443.029648 236.477425 
L 443.029648 236.477425 
" clip-path="url(#pade2fcb830)" style="fill: none; stroke-dasharray: 1.5,2.475; stroke-dashoffset: 0; stroke: #ff0000; stroke-width: 1.5"/>
   </g>
   <g id="line2d_81">
    <path d="M 329.43 312.141227 
L 344.256056 312.033837 
L 347.662042 311.795247 
L 354.674366 311.056937 
L 364.090915 310.986524 
L 370.101479 310.805396 
L 373.307113 310.479992 
L 375.510986 310.011592 
L 377.113803 309.44767 
L 378.71662 308.641972 
L 380.720141 307.375733 
L 382.322958 306.106341 
L 388.734225 300.411918 
L 392.340563 297.201487 
L 394.143732 295.952809 
L 398.551479 293.399992 
L 400.955704 292.179655 
L 404.962746 290.238326 
L 406.966268 289.042702 
L 408.368732 287.961946 
L 409.570845 286.766237 
L 410.772958 285.290364 
L 411.97507 283.473453 
L 413.377535 280.916602 
L 415.982113 275.630399 
L 418.386338 270.474201 
L 419.989155 266.485182 
L 424.396901 254.345045 
L 429.205352 240.700096 
L 433.212394 230.085253 
L 435.015563 225.364505 
L 437.019085 220.917529 
L 442.027887 210.161374 
L 443.029648 207.778182 
L 443.029648 207.778182 
" clip-path="url(#pade2fcb830)" style="fill: none; stroke-dasharray: 1.5,2.475; stroke-dashoffset: 0; stroke: #0000ff; stroke-width: 1.5"/>
   </g>
   <g id="patch_18">
    <path d="M 323.74 317.36 
L 323.74 202.56 
" style="fill: none; stroke: #000000; stroke-linejoin: miter; stroke-linecap: square"/>
   </g>
   <g id="patch_19">
    <path d="M 323.74 317.36 
L 448.92 317.36 
" style="fill: none; stroke: #000000; stroke-linejoin: miter; stroke-linecap: square"/>
   </g>
   <g id="text_57">
    <!-- Init Sens:10000 Init Res:10 -->
    <g transform="translate(327.199844 196.56)scale(0.11 -0.11)">
     <use xlink:href="#Calibri-49"/>
     <use xlink:href="#Calibri-6e" x="25.195312"/>
     <use xlink:href="#Calibri-69" x="77.734375"/>
     <use xlink:href="#Calibri-74" x="100.683594"/>
     <use xlink:href="#Calibri-20" x="134.179688"/>
     <use xlink:href="#Calibri-53" x="156.787109"/>
     <use xlink:href="#Calibri-65" x="202.734375"/>
     <use xlink:href="#Calibri-6e" x="252.490234"/>
     <use xlink:href="#Calibri-73" x="305.029297"/>
     <use xlink:href="#Calibri-3a" x="344.140625"/>
     <use xlink:href="#Calibri-31" x="370.898438"/>
     <use xlink:href="#Calibri-30" x="421.582031"/>
     <use xlink:href="#Calibri-30" x="472.265625"/>
     <use xlink:href="#Calibri-30" x="522.949219"/>
     <use xlink:href="#Calibri-30" x="573.632812"/>
     <use xlink:href="#Calibri-20" x="624.316406"/>
     <use xlink:href="#Calibri-49" x="646.923828"/>
     <use xlink:href="#Calibri-6e" x="672.119141"/>
     <use xlink:href="#Calibri-69" x="724.658203"/>
     <use xlink:href="#Calibri-74" x="747.607422"/>
     <use xlink:href="#Calibri-20" x="781.103516"/>
     <use xlink:href="#Calibri-52" x="803.710938"/>
     <use xlink:href="#Calibri-65" x="858.007812"/>
     <use xlink:href="#Calibri-73" x="907.763672"/>
     <use xlink:href="#Calibri-3a" x="946.875"/>
     <use xlink:href="#Calibri-31" x="973.632812"/>
     <use xlink:href="#Calibri-30" x="1024.316406"/>
    </g>
   </g>
  </g>
  <g id="text_58">
   <!-- detectionSize_50000000 -->
   <g transform="translate(175.233281 14.388562)scale(0.11 -0.11)">
    <defs>
     <path id="Calibri-64" d="M 2888 78 
Q 2888 53 2877 34 
Q 2866 16 2839 5 
Q 2813 -6 2769 -12 
Q 2725 -19 2663 -19 
Q 2597 -19 2553 -12 
Q 2509 -6 2481 5 
Q 2453 16 2440 34 
Q 2428 53 2428 78 
L 2428 450 
Q 2206 209 1967 75 
Q 1728 -59 1444 -59 
Q 1134 -59 915 61 
Q 697 181 561 386 
Q 425 591 362 867 
Q 300 1144 300 1450 
Q 300 1813 378 2105 
Q 456 2397 609 2603 
Q 763 2809 989 2920 
Q 1216 3031 1513 3031 
Q 1759 3031 1964 2923 
Q 2169 2816 2369 2606 
L 2369 4241 
Q 2369 4263 2380 4283 
Q 2391 4303 2422 4314 
Q 2453 4325 2501 4333 
Q 2550 4341 2625 4341 
Q 2703 4341 2753 4333 
Q 2803 4325 2831 4314 
Q 2859 4303 2873 4283 
Q 2888 4263 2888 4241 
L 2888 78 
z
M 2369 2056 
Q 2159 2316 1964 2452 
Q 1769 2588 1556 2588 
Q 1359 2588 1221 2494 
Q 1084 2400 998 2247 
Q 913 2094 873 1900 
Q 834 1706 834 1506 
Q 834 1294 867 1091 
Q 900 888 981 730 
Q 1063 572 1197 476 
Q 1331 381 1534 381 
Q 1638 381 1733 409 
Q 1828 438 1928 503 
Q 2028 569 2137 673 
Q 2247 778 2369 931 
L 2369 2056 
z
" transform="scale(0.015625)"/>
     <path id="Calibri-63" d="M 2500 506 
Q 2500 453 2497 414 
Q 2494 375 2486 348 
Q 2478 322 2467 301 
Q 2456 281 2417 242 
Q 2378 203 2284 145 
Q 2191 88 2073 42 
Q 1956 -3 1818 -31 
Q 1681 -59 1534 -59 
Q 1231 -59 997 41 
Q 763 141 605 333 
Q 447 525 364 804 
Q 281 1084 281 1450 
Q 281 1866 382 2164 
Q 484 2463 661 2653 
Q 838 2844 1077 2936 
Q 1316 3028 1594 3028 
Q 1728 3028 1854 3003 
Q 1981 2978 2087 2937 
Q 2194 2897 2276 2844 
Q 2359 2791 2396 2753 
Q 2434 2716 2448 2694 
Q 2463 2672 2472 2642 
Q 2481 2613 2484 2575 
Q 2488 2538 2488 2481 
Q 2488 2359 2459 2311 
Q 2431 2263 2391 2263 
Q 2344 2263 2283 2314 
Q 2222 2366 2128 2428 
Q 2034 2491 1901 2542 
Q 1769 2594 1588 2594 
Q 1216 2594 1017 2308 
Q 819 2022 819 1478 
Q 819 1206 870 1001 
Q 922 797 1022 659 
Q 1122 522 1267 455 
Q 1413 388 1600 388 
Q 1778 388 1912 444 
Q 2047 500 2145 567 
Q 2244 634 2311 689 
Q 2378 744 2416 744 
Q 2438 744 2453 731 
Q 2469 719 2480 689 
Q 2491 659 2495 614 
Q 2500 569 2500 506 
z
" transform="scale(0.015625)"/>
     <path id="Calibri-6f" d="M 3094 1516 
Q 3094 1172 3003 883 
Q 2913 594 2733 384 
Q 2553 175 2283 58 
Q 2013 -59 1656 -59 
Q 1309 -59 1051 44 
Q 794 147 622 344 
Q 450 541 365 822 
Q 281 1103 281 1459 
Q 281 1803 370 2092 
Q 459 2381 639 2590 
Q 819 2800 1087 2915 
Q 1356 3031 1716 3031 
Q 2063 3031 2320 2928 
Q 2578 2825 2750 2628 
Q 2922 2431 3008 2150 
Q 3094 1869 3094 1516 
z
M 2550 1481 
Q 2550 1709 2508 1912 
Q 2466 2116 2369 2269 
Q 2272 2422 2106 2511 
Q 1941 2600 1694 2600 
Q 1466 2600 1302 2519 
Q 1138 2438 1031 2289 
Q 925 2141 873 1937 
Q 822 1734 822 1494 
Q 822 1263 864 1059 
Q 906 856 1004 704 
Q 1103 553 1268 464 
Q 1434 375 1681 375 
Q 1906 375 2072 456 
Q 2238 538 2344 684 
Q 2450 831 2500 1034 
Q 2550 1238 2550 1481 
z
" transform="scale(0.015625)"/>
     <path id="Calibri-7a" d="M 2272 219 
Q 2272 159 2262 117 
Q 2253 75 2240 48 
Q 2228 22 2206 11 
Q 2184 0 2159 0 
L 428 0 
Q 363 0 320 44 
Q 278 88 278 191 
L 278 297 
Q 278 341 284 375 
Q 291 409 303 443 
Q 316 478 337 517 
Q 359 556 391 606 
L 1631 2538 
L 428 2538 
Q 378 2538 348 2589 
Q 319 2641 319 2756 
Q 319 2813 325 2855 
Q 331 2897 345 2923 
Q 359 2950 379 2961 
Q 400 2972 428 2972 
L 2041 2972 
Q 2075 2972 2101 2962 
Q 2128 2953 2147 2931 
Q 2166 2909 2177 2875 
Q 2188 2841 2188 2788 
L 2188 2688 
Q 2188 2644 2181 2606 
Q 2175 2569 2162 2533 
Q 2150 2497 2128 2456 
Q 2106 2416 2075 2366 
L 841 434 
L 2159 434 
Q 2184 434 2204 423 
Q 2225 413 2239 388 
Q 2253 363 2262 320 
Q 2272 278 2272 219 
z
" transform="scale(0.015625)"/>
     <path id="Calibri-5f" d="M 3200 -931 
Q 3200 -1041 3175 -1091 
Q 3150 -1141 3097 -1141 
L 88 -1141 
Q 34 -1141 6 -1094 
Q -22 -1047 -22 -938 
Q -22 -831 6 -778 
Q 34 -725 88 -725 
L 3097 -725 
Q 3147 -725 3173 -775 
Q 3200 -825 3200 -931 
z
" transform="scale(0.015625)"/>
    </defs>
    <use xlink:href="#Calibri-64"/>
    <use xlink:href="#Calibri-65" x="52.539062"/>
    <use xlink:href="#Calibri-74" x="102.294922"/>
    <use xlink:href="#Calibri-65" x="135.791016"/>
    <use xlink:href="#Calibri-63" x="185.546875"/>
    <use xlink:href="#Calibri-74" x="227.832031"/>
    <use xlink:href="#Calibri-69" x="261.328125"/>
    <use xlink:href="#Calibri-6f" x="284.277344"/>
    <use xlink:href="#Calibri-6e" x="337.011719"/>
    <use xlink:href="#Calibri-53" x="389.550781"/>
    <use xlink:href="#Calibri-69" x="435.498047"/>
    <use xlink:href="#Calibri-7a" x="458.447266"/>
    <use xlink:href="#Calibri-65" x="497.949219"/>
    <use xlink:href="#Calibri-5f" x="547.705078"/>
    <use xlink:href="#Calibri-35" x="597.509766"/>
    <use xlink:href="#Calibri-30" x="648.193359"/>
    <use xlink:href="#Calibri-30" x="698.876953"/>
    <use xlink:href="#Calibri-30" x="749.560547"/>
    <use xlink:href="#Calibri-30" x="800.244141"/>
    <use xlink:href="#Calibri-30" x="850.927734"/>
    <use xlink:href="#Calibri-30" x="901.611328"/>
    <use xlink:href="#Calibri-30" x="952.294922"/>
   </g>
  </g>
 </g>
 <defs>
  <clipPath id="p620d2865b3">
   <rect x="24.46" y="46.32" width="125.18" height="114.8"/>
  </clipPath>
  <clipPath id="p5d0d182fa4">
   <rect x="174.1" y="46.32" width="125.18" height="114.8"/>
  </clipPath>
  <clipPath id="p2a731c0163">
   <rect x="323.74" y="46.32" width="125.18" height="114.8"/>
  </clipPath>
  <clipPath id="pa85eeb20e4">
   <rect x="24.46" y="202.56" width="125.18" height="114.8"/>
  </clipPath>
  <clipPath id="p2b1dd75a3d">
   <rect x="174.1" y="202.56" width="125.18" height="114.8"/>
  </clipPath>
  <clipPath id="pade2fcb830">
   <rect x="323.74" y="202.56" width="125.18" height="114.8"/>
  </clipPath>
 </defs>
</svg>
