<?xml version="1.0" encoding="utf-8" standalone="no"?>
<!DOCTYPE svg PUBLIC "-//W3C//DTD SVG 1.1//EN"
  "http://www.w3.org/Graphics/SVG/1.1/DTD/svg11.dtd">
<svg xmlns:xlink="http://www.w3.org/1999/xlink" width="460.8pt" height="345.6pt" viewBox="0 0 460.8 345.6" xmlns="http://www.w3.org/2000/svg" version="1.1">
 <metadata>
  <rdf:RDF xmlns:dc="http://purl.org/dc/elements/1.1/" xmlns:cc="http://creativecommons.org/ns#" xmlns:rdf="http://www.w3.org/1999/02/22-rdf-syntax-ns#">
   <cc:Work>
    <dc:type rdf:resource="http://purl.org/dc/dcmitype/StillImage"/>
    <dc:date>2022-12-02T14:53:38.850730</dc:date>
    <dc:format>image/svg+xml</dc:format>
    <dc:creator>
     <cc:Agent>
      <dc:title>Matplotlib v3.5.3, https://matplotlib.org/</dc:title>
     </cc:Agent>
    </dc:creator>
   </cc:Work>
  </rdf:RDF>
 </metadata>
 <defs>
  <style type="text/css">*{stroke-linejoin: round; stroke-linecap: butt}</style>
 </defs>
 <g id="figure_1">
  <g id="patch_1">
   <path d="M 0 345.6 
L 460.8 345.6 
L 460.8 0 
L 0 0 
z
" style="fill: #ffffff"/>
  </g>
  <g id="axes_1">
   <g id="patch_2">
    <path d="M 24.46 161.12 
L 144.06 161.12 
L 144.06 46.32 
L 24.46 46.32 
z
" style="fill: #ffffff"/>
   </g>
   <g id="matplotlib.axis_1">
    <g id="xtick_1">
     <g id="line2d_1">
      <defs>
       <path id="mc9cccd5391" d="M 0 0 
L 0 3.5 
" style="stroke: #000000; stroke-width: 0.8"/>
      </defs>
      <g>
       <use xlink:href="#mc9cccd5391" x="29.896364" y="161.12" style="stroke: #000000; stroke-width: 0.8"/>
      </g>
     </g>
     <g id="text_1">
      <!-- 0 -->
      <g transform="translate(27.108551 175.601719)scale(0.11 -0.11)">
       <defs>
        <path id="Calibri-30" d="M 3022 2031 
Q 3022 1566 2948 1181 
Q 2875 797 2704 520 
Q 2534 244 2259 92 
Q 1984 -59 1581 -59 
Q 1200 -59 939 77 
Q 678 213 518 477 
Q 359 741 292 1127 
Q 225 1513 225 2013 
Q 225 2475 300 2861 
Q 375 3247 544 3523 
Q 713 3800 988 3951 
Q 1263 4103 1663 4103 
Q 2047 4103 2308 3967 
Q 2569 3831 2728 3567 
Q 2888 3303 2955 2917 
Q 3022 2531 3022 2031 
z
M 2472 1994 
Q 2472 2297 2450 2537 
Q 2428 2778 2386 2962 
Q 2344 3147 2276 3280 
Q 2209 3413 2115 3498 
Q 2022 3584 1901 3623 
Q 1781 3663 1631 3663 
Q 1366 3663 1200 3538 
Q 1034 3413 939 3194 
Q 844 2975 809 2681 
Q 775 2388 775 2050 
Q 775 1597 822 1280 
Q 869 963 970 763 
Q 1072 563 1230 472 
Q 1388 381 1613 381 
Q 1788 381 1920 437 
Q 2053 494 2148 598 
Q 2244 703 2306 850 
Q 2369 997 2406 1175 
Q 2444 1353 2458 1561 
Q 2472 1769 2472 1994 
z
" transform="scale(0.015625)"/>
       </defs>
       <use xlink:href="#Calibri-30"/>
      </g>
     </g>
    </g>
    <g id="xtick_2">
     <g id="line2d_2">
      <g>
       <use xlink:href="#mc9cccd5391" x="79.228157" y="161.12" style="stroke: #000000; stroke-width: 0.8"/>
      </g>
     </g>
     <g id="text_2">
      <!-- 250 -->
      <g transform="translate(70.86472 175.601719)scale(0.11 -0.11)">
       <defs>
        <path id="Calibri-32" d="M 2888 231 
Q 2888 175 2880 131 
Q 2872 88 2858 58 
Q 2844 28 2820 14 
Q 2797 0 2769 0 
L 534 0 
Q 491 0 458 11 
Q 425 22 401 47 
Q 378 72 367 119 
Q 356 166 356 234 
Q 356 297 361 344 
Q 366 391 381 427 
Q 397 463 420 498 
Q 444 534 481 575 
L 1266 1406 
Q 1538 1694 1702 1922 
Q 1866 2150 1955 2337 
Q 2044 2525 2072 2678 
Q 2100 2831 2100 2966 
Q 2100 3100 2056 3220 
Q 2013 3341 1930 3431 
Q 1847 3522 1722 3575 
Q 1597 3628 1434 3628 
Q 1244 3628 1092 3575 
Q 941 3522 827 3459 
Q 713 3397 636 3344 
Q 559 3291 522 3291 
Q 500 3291 483 3303 
Q 466 3316 455 3344 
Q 444 3372 437 3419 
Q 431 3466 431 3531 
Q 431 3578 434 3612 
Q 438 3647 445 3672 
Q 453 3697 465 3719 
Q 478 3741 515 3773 
Q 553 3806 645 3862 
Q 738 3919 877 3973 
Q 1016 4028 1183 4065 
Q 1350 4103 1534 4103 
Q 1828 4103 2048 4020 
Q 2269 3938 2414 3794 
Q 2559 3650 2631 3459 
Q 2703 3269 2703 3053 
Q 2703 2859 2668 2667 
Q 2634 2475 2523 2251 
Q 2413 2028 2203 1754 
Q 1994 1481 1647 1125 
L 1006 456 
L 2766 456 
Q 2791 456 2814 442 
Q 2838 428 2855 400 
Q 2872 372 2880 330 
Q 2888 288 2888 231 
z
" transform="scale(0.015625)"/>
        <path id="Calibri-35" d="M 2869 1300 
Q 2869 975 2759 722 
Q 2650 469 2450 295 
Q 2250 122 1973 31 
Q 1697 -59 1359 -59 
Q 1172 -59 1003 -32 
Q 834 -6 703 33 
Q 572 72 487 109 
Q 403 147 379 169 
Q 356 191 347 209 
Q 338 228 330 254 
Q 322 281 319 322 
Q 316 363 316 419 
Q 316 472 320 514 
Q 325 556 337 582 
Q 350 609 367 621 
Q 384 634 406 634 
Q 438 634 503 595 
Q 569 556 680 511 
Q 791 466 955 425 
Q 1119 384 1344 384 
Q 1553 384 1728 434 
Q 1903 484 2029 590 
Q 2156 697 2228 858 
Q 2300 1019 2300 1250 
Q 2300 1444 2239 1592 
Q 2178 1741 2051 1839 
Q 1925 1938 1731 1986 
Q 1538 2034 1269 2034 
Q 1078 2034 940 2015 
Q 803 1997 684 1997 
Q 597 1997 559 2037 
Q 522 2078 522 2194 
L 522 3841 
Q 522 3944 570 3994 
Q 619 4044 709 4044 
L 2500 4044 
Q 2525 4044 2548 4030 
Q 2572 4016 2587 3987 
Q 2603 3959 2611 3915 
Q 2619 3872 2619 3813 
Q 2619 3700 2587 3637 
Q 2556 3575 2500 3575 
L 991 3575 
L 991 2441 
Q 1100 2456 1214 2459 
Q 1328 2463 1478 2463 
Q 1825 2463 2084 2380 
Q 2344 2297 2517 2145 
Q 2691 1994 2780 1778 
Q 2869 1563 2869 1300 
z
" transform="scale(0.015625)"/>
       </defs>
       <use xlink:href="#Calibri-32"/>
       <use xlink:href="#Calibri-35" x="50.683594"/>
       <use xlink:href="#Calibri-30" x="101.367188"/>
      </g>
     </g>
    </g>
    <g id="xtick_3">
     <g id="line2d_3">
      <g>
       <use xlink:href="#mc9cccd5391" x="128.559951" y="161.12" style="stroke: #000000; stroke-width: 0.8"/>
      </g>
     </g>
     <g id="text_3">
      <!-- 500 -->
      <g transform="translate(120.196513 175.601719)scale(0.11 -0.11)">
       <use xlink:href="#Calibri-35"/>
       <use xlink:href="#Calibri-30" x="50.683594"/>
       <use xlink:href="#Calibri-30" x="101.367188"/>
      </g>
     </g>
    </g>
   </g>
   <g id="matplotlib.axis_2">
    <g id="ytick_1">
     <g id="line2d_4">
      <defs>
       <path id="m44f88adbfb" d="M 0 0 
L -3.5 0 
" style="stroke: #000000; stroke-width: 0.8"/>
      </defs>
      <g>
       <use xlink:href="#m44f88adbfb" x="24.46" y="155.904576" style="stroke: #000000; stroke-width: 0.8"/>
      </g>
     </g>
     <g id="text_4">
      <!-- 0 -->
      <g transform="translate(11.884375 159.645435)scale(0.11 -0.11)">
       <use xlink:href="#Calibri-30"/>
      </g>
     </g>
    </g>
    <g id="ytick_2">
     <g id="line2d_5">
      <g>
       <use xlink:href="#m44f88adbfb" x="24.46" y="120.633305" style="stroke: #000000; stroke-width: 0.8"/>
      </g>
     </g>
     <g id="text_5">
      <!-- 1 -->
      <g transform="translate(11.884375 124.374164)scale(0.11 -0.11)">
       <defs>
        <path id="Calibri-31" d="M 2897 213 
Q 2897 153 2887 112 
Q 2878 72 2862 47 
Q 2847 22 2826 11 
Q 2806 0 2784 0 
L 672 0 
Q 650 0 631 11 
Q 613 22 595 47 
Q 578 72 568 112 
Q 559 153 559 213 
Q 559 269 568 309 
Q 578 350 592 376 
Q 606 403 626 417 
Q 647 431 672 431 
L 1516 431 
L 1516 3506 
L 734 3041 
Q 675 3009 639 3003 
Q 603 2997 581 3017 
Q 559 3038 551 3084 
Q 544 3131 544 3203 
Q 544 3256 548 3293 
Q 553 3331 562 3356 
Q 572 3381 589 3400 
Q 606 3419 634 3438 
L 1566 4034 
Q 1578 4044 1597 4050 
Q 1616 4056 1644 4062 
Q 1672 4069 1709 4070 
Q 1747 4072 1803 4072 
Q 1878 4072 1928 4065 
Q 1978 4059 2006 4048 
Q 2034 4038 2043 4020 
Q 2053 4003 2053 3984 
L 2053 431 
L 2784 431 
Q 2809 431 2831 417 
Q 2853 403 2867 376 
Q 2881 350 2889 309 
Q 2897 269 2897 213 
z
" transform="scale(0.015625)"/>
       </defs>
       <use xlink:href="#Calibri-31"/>
      </g>
     </g>
    </g>
    <g id="ytick_3">
     <g id="line2d_6">
      <g>
       <use xlink:href="#m44f88adbfb" x="24.46" y="85.362034" style="stroke: #000000; stroke-width: 0.8"/>
      </g>
     </g>
     <g id="text_6">
      <!-- 2 -->
      <g transform="translate(11.884375 89.102894)scale(0.11 -0.11)">
       <use xlink:href="#Calibri-32"/>
      </g>
     </g>
    </g>
    <g id="ytick_4">
     <g id="line2d_7">
      <g>
       <use xlink:href="#m44f88adbfb" x="24.46" y="50.090764" style="stroke: #000000; stroke-width: 0.8"/>
      </g>
     </g>
     <g id="text_7">
      <!-- 3 -->
      <g transform="translate(11.884375 53.831623)scale(0.11 -0.11)">
       <defs>
        <path id="Calibri-33" d="M 2856 1156 
Q 2856 878 2759 654 
Q 2663 431 2481 272 
Q 2300 113 2034 27 
Q 1769 -59 1434 -59 
Q 1231 -59 1054 -26 
Q 878 6 740 51 
Q 603 97 512 145 
Q 422 194 398 216 
Q 375 238 362 259 
Q 350 281 340 312 
Q 331 344 326 389 
Q 322 434 322 500 
Q 322 613 344 656 
Q 366 700 406 700 
Q 434 700 517 650 
Q 600 600 729 542 
Q 859 484 1032 434 
Q 1206 384 1419 384 
Q 1625 384 1781 437 
Q 1938 491 2044 587 
Q 2150 684 2203 817 
Q 2256 950 2256 1106 
Q 2256 1278 2189 1415 
Q 2122 1553 1992 1653 
Q 1863 1753 1673 1806 
Q 1484 1859 1244 1859 
L 859 1859 
Q 834 1859 811 1870 
Q 788 1881 770 1906 
Q 753 1931 742 1972 
Q 731 2013 731 2078 
Q 731 2138 740 2177 
Q 750 2216 767 2239 
Q 784 2263 806 2273 
Q 828 2284 856 2284 
L 1209 2284 
Q 1416 2284 1580 2337 
Q 1744 2391 1858 2491 
Q 1972 2591 2033 2730 
Q 2094 2869 2094 3041 
Q 2094 3166 2053 3280 
Q 2013 3394 1931 3478 
Q 1850 3563 1723 3611 
Q 1597 3659 1431 3659 
Q 1250 3659 1098 3604 
Q 947 3550 828 3487 
Q 709 3425 631 3370 
Q 553 3316 522 3316 
Q 500 3316 483 3323 
Q 466 3331 455 3354 
Q 444 3378 439 3420 
Q 434 3463 434 3531 
Q 434 3578 437 3614 
Q 441 3650 450 3676 
Q 459 3703 471 3725 
Q 484 3747 514 3776 
Q 544 3806 634 3862 
Q 725 3919 858 3973 
Q 991 4028 1164 4065 
Q 1338 4103 1538 4103 
Q 1819 4103 2031 4031 
Q 2244 3959 2386 3828 
Q 2528 3697 2598 3514 
Q 2669 3331 2669 3109 
Q 2669 2919 2619 2755 
Q 2569 2591 2472 2464 
Q 2375 2338 2234 2248 
Q 2094 2159 1909 2125 
L 1909 2119 
Q 2119 2097 2292 2014 
Q 2466 1931 2591 1806 
Q 2716 1681 2786 1514 
Q 2856 1347 2856 1156 
z
" transform="scale(0.015625)"/>
       </defs>
       <use xlink:href="#Calibri-33"/>
      </g>
     </g>
    </g>
    <g id="text_8">
     <!-- 1e8 -->
     <g transform="translate(24.46 43.32)scale(0.11 -0.11)">
      <defs>
       <path id="Calibri-65" d="M 2878 1606 
Q 2878 1484 2817 1432 
Q 2756 1381 2678 1381 
L 834 1381 
Q 834 1147 881 959 
Q 928 772 1037 637 
Q 1147 503 1322 431 
Q 1497 359 1750 359 
Q 1950 359 2106 392 
Q 2263 425 2377 465 
Q 2491 506 2564 539 
Q 2638 572 2675 572 
Q 2697 572 2714 561 
Q 2731 550 2740 528 
Q 2750 506 2754 467 
Q 2759 428 2759 372 
Q 2759 331 2756 301 
Q 2753 272 2748 248 
Q 2744 225 2733 206 
Q 2722 188 2705 170 
Q 2688 153 2603 114 
Q 2519 75 2384 37 
Q 2250 0 2073 -29 
Q 1897 -59 1697 -59 
Q 1350 -59 1089 37 
Q 828 134 650 325 
Q 472 516 381 803 
Q 291 1091 291 1472 
Q 291 1834 384 2123 
Q 478 2413 654 2614 
Q 831 2816 1081 2923 
Q 1331 3031 1641 3031 
Q 1972 3031 2205 2925 
Q 2438 2819 2588 2639 
Q 2738 2459 2808 2217 
Q 2878 1975 2878 1700 
L 2878 1606 
z
M 2359 1759 
Q 2369 2166 2180 2397 
Q 1991 2628 1619 2628 
Q 1428 2628 1284 2556 
Q 1141 2484 1044 2365 
Q 947 2247 894 2089 
Q 841 1931 834 1759 
L 2359 1759 
z
" transform="scale(0.015625)"/>
       <path id="Calibri-38" d="M 2981 1038 
Q 2981 775 2887 570 
Q 2794 366 2617 225 
Q 2441 84 2181 12 
Q 1922 -59 1588 -59 
Q 1275 -59 1028 6 
Q 781 72 609 200 
Q 438 328 347 515 
Q 256 703 256 944 
Q 256 1134 318 1293 
Q 381 1453 498 1587 
Q 616 1722 787 1839 
Q 959 1956 1175 2063 
Q 988 2159 844 2267 
Q 700 2375 600 2501 
Q 500 2628 448 2772 
Q 397 2916 397 3084 
Q 397 3297 473 3483 
Q 550 3669 704 3806 
Q 859 3944 1098 4023 
Q 1338 4103 1656 4103 
Q 1963 4103 2186 4029 
Q 2409 3956 2554 3829 
Q 2700 3703 2769 3531 
Q 2838 3359 2838 3163 
Q 2838 3003 2786 2856 
Q 2734 2709 2634 2578 
Q 2534 2447 2389 2333 
Q 2244 2219 2056 2119 
Q 2278 2009 2451 1893 
Q 2625 1778 2742 1645 
Q 2859 1513 2920 1364 
Q 2981 1216 2981 1038 
z
M 2306 3113 
Q 2306 3244 2261 3350 
Q 2216 3456 2128 3531 
Q 2041 3606 1911 3645 
Q 1781 3684 1616 3684 
Q 1278 3684 1104 3531 
Q 931 3378 931 3113 
Q 931 2991 973 2886 
Q 1016 2781 1105 2687 
Q 1194 2594 1330 2505 
Q 1466 2416 1653 2319 
Q 1969 2481 2137 2678 
Q 2306 2875 2306 3113 
z
M 2438 981 
Q 2438 1125 2384 1242 
Q 2331 1359 2223 1461 
Q 2116 1563 1955 1658 
Q 1794 1753 1581 1856 
Q 1384 1759 1236 1662 
Q 1088 1566 992 1462 
Q 897 1359 848 1245 
Q 800 1131 800 994 
Q 800 691 1008 525 
Q 1216 359 1628 359 
Q 2028 359 2233 526 
Q 2438 694 2438 981 
z
" transform="scale(0.015625)"/>
      </defs>
      <use xlink:href="#Calibri-31"/>
      <use xlink:href="#Calibri-65" x="50.683594"/>
      <use xlink:href="#Calibri-38" x="100.439453"/>
     </g>
    </g>
   </g>
   <g id="line2d_8">
    <path d="M 87.515898 161.12 
L 87.515898 46.32 
" clip-path="url(#pb2899dee49)" style="fill: none; stroke: #ff0000; stroke-width: 1.5; stroke-linecap: square"/>
   </g>
   <g id="line2d_9">
    <path d="M 138.623636 161.12 
L 138.623636 46.32 
" clip-path="url(#pb2899dee49)" style="fill: none; stroke-dasharray: 5.55,2.4; stroke-dashoffset: 0; stroke: #0000ff; stroke-width: 1.5"/>
   </g>
   <g id="line2d_10">
    <path d="M 29.896364 120.626705 
L 30.093691 120.427784 
L 30.685672 127.789255 
L 31.277654 132.095374 
L 32.066963 135.820879 
L 32.856271 138.429967 
L 33.053598 138.969309 
L 34.632216 131.009498 
L 36.013506 124.377091 
L 37.000142 120.596318 
L 37.197469 119.939714 
L 37.789451 126.269725 
L 38.381432 130.253445 
L 39.170741 133.852824 
L 39.960049 136.351397 
L 40.749358 138.153289 
L 41.144013 138.866722 
L 42.525303 132.445073 
L 45.287883 119.044607 
L 45.879865 124.475952 
L 46.471846 128.105514 
L 47.261155 131.470073 
L 48.050464 133.809439 
L 48.839772 135.502213 
L 49.826408 137.017586 
L 50.813044 138.092699 
L 51.207698 138.440179 
L 52.391661 134.641084 
L 53.772952 129.423544 
L 55.548896 121.688198 
L 56.140878 119.051495 
L 56.732859 123.332232 
L 57.522168 127.172517 
L 58.311477 129.773035 
L 59.100785 131.610113 
L 59.890094 132.946017 
L 60.679403 133.924455 
L 61.666039 134.76604 
L 62.652674 135.281533 
L 63.63931 135.549809 
L 64.823273 135.633616 
L 66.007236 135.495991 
L 67.191199 135.143198 
L 68.375163 134.575361 
L 69.756453 133.637582 
L 71.532397 132.115798 
L 73.900323 129.76531 
L 76.860231 126.400739 
L 78.833503 123.85826 
L 83.372028 117.873321 
L 85.739954 115.331968 
L 88.305207 112.511302 
L 91.857096 108.121726 
L 95.211658 104.147541 
L 103.104745 95.42983 
L 106.459307 91.801975 
L 109.419215 88.204113 
L 120.074882 75.230805 
L 125.205389 69.245355 
L 127.967969 65.675447 
L 131.322531 60.966752 
L 134.479766 56.635562 
L 138.426309 51.538182 
L 138.426309 51.538182 
" clip-path="url(#pb2899dee49)" style="fill: none; stroke: #ff0000; stroke-width: 1.5; stroke-linecap: square"/>
   </g>
   <g id="line2d_11">
    <path d="M 29.896364 120.598135 
L 30.093691 120.422543 
L 30.685672 128.389075 
L 31.277654 133.058319 
L 32.066963 137.116332 
L 32.856271 140.008973 
L 33.842907 142.729061 
L 34.829543 144.824731 
L 36.013506 146.799147 
L 37.197469 148.364825 
L 38.578759 149.819004 
L 39.960049 150.967985 
L 41.538667 151.990454 
L 43.117284 152.75249 
L 44.893229 153.364317 
L 47.063828 153.862134 
L 49.826408 154.24993 
L 54.759588 154.62801 
L 60.087421 154.828262 
L 65.217928 154.80659 
L 68.769817 154.588541 
L 71.137743 154.236669 
L 73.111015 153.727592 
L 75.084286 152.999829 
L 78.241521 151.516388 
L 81.004102 150.318812 
L 84.358664 149.191633 
L 91.265115 146.95659 
L 95.014331 146.120862 
L 101.920782 144.645936 
L 104.091381 143.943668 
L 106.26198 142.996763 
L 107.840597 142.055927 
L 109.221887 141.014483 
L 110.603178 139.721197 
L 112.181795 137.935514 
L 114.747048 134.608451 
L 117.904283 130.63766 
L 120.469536 127.80316 
L 122.640135 125.733405 
L 124.810734 123.961015 
L 129.941241 119.973779 
L 132.703821 117.913677 
L 136.847692 114.909016 
L 138.426309 113.560662 
L 138.426309 113.560662 
" clip-path="url(#pb2899dee49)" style="fill: none; stroke-dasharray: 5.55,2.4; stroke-dashoffset: 0; stroke: #0000ff; stroke-width: 1.5"/>
   </g>
   <g id="line2d_12">
    <path d="M 29.896364 153.64779 
L 31.672308 153.42342 
L 34.040234 152.851833 
L 38.973414 151.457697 
L 40.749358 150.611268 
L 43.709266 149.119639 
L 45.48521 148.544351 
L 46.866501 148.033627 
L 49.037099 146.958698 
L 52.588989 145.113372 
L 54.759588 144.370794 
L 58.114149 143.292434 
L 60.284748 142.21841 
L 62.455347 140.909327 
L 65.612582 138.674074 
L 67.783181 136.906058 
L 69.559126 135.194188 
L 72.124379 132.379453 
L 75.281614 128.637993 
L 78.241521 124.857976 
L 83.569355 117.707702 
L 86.331935 114.737303 
L 88.897189 111.816408 
L 96.987603 102.144421 
L 102.710091 95.843494 
L 106.853961 91.341389 
L 111.195159 86.00023 
L 117.904283 77.77467 
L 121.456172 73.673262 
L 124.810734 69.727248 
L 127.573315 66.204272 
L 130.927877 61.529931 
L 134.479766 56.635562 
L 138.426309 51.538182 
L 138.426309 51.538182 
" clip-path="url(#pb2899dee49)" style="fill: none; stroke-dasharray: 1.5,2.475; stroke-dashoffset: 0; stroke: #ff0000; stroke-width: 1.5"/>
   </g>
   <g id="line2d_13">
    <path d="M 29.896364 155.901814 
L 41.735994 155.795765 
L 45.682538 155.522459 
L 52.391661 155.052508 
L 57.916822 154.974016 
L 66.007236 154.816848 
L 69.361798 154.540021 
L 71.729724 154.118343 
L 73.900323 153.472055 
L 75.873595 152.650858 
L 81.201429 150.246932 
L 85.542627 148.789645 
L 90.87046 147.06114 
L 94.027695 146.322781 
L 103.104745 144.289869 
L 105.275344 143.465907 
L 107.051289 142.55683 
L 108.629906 141.489636 
L 110.011196 140.307951 
L 111.589814 138.642695 
L 113.563085 136.17624 
L 117.706956 130.871239 
L 120.074882 128.213922 
L 122.245481 126.086056 
L 124.41608 124.263471 
L 133.690457 117.233672 
L 136.25571 115.373853 
L 138.426309 113.560662 
L 138.426309 113.560662 
" clip-path="url(#pb2899dee49)" style="fill: none; stroke-dasharray: 1.5,2.475; stroke-dashoffset: 0; stroke: #0000ff; stroke-width: 1.5"/>
   </g>
   <g id="patch_3">
    <path d="M 24.46 161.12 
L 24.46 46.32 
" style="fill: none; stroke: #000000; stroke-linejoin: miter; stroke-linecap: square"/>
   </g>
   <g id="patch_4">
    <path d="M 24.46 161.12 
L 144.06 161.12 
" style="fill: none; stroke: #000000; stroke-linejoin: miter; stroke-linecap: square"/>
   </g>
   <g id="text_9">
    <!-- Init Sens:100 Init Res:1 -->
    <g transform="translate(33.493281 40.32)scale(0.11 -0.11)">
     <defs>
      <path id="Calibri-49" d="M 1075 81 
Q 1075 56 1062 37 
Q 1050 19 1019 8 
Q 988 -3 936 -11 
Q 884 -19 806 -19 
Q 731 -19 678 -11 
Q 625 -3 594 8 
Q 563 19 550 37 
Q 538 56 538 81 
L 538 3963 
Q 538 3988 552 4006 
Q 566 4025 598 4036 
Q 631 4047 682 4055 
Q 734 4063 806 4063 
Q 884 4063 936 4055 
Q 988 4047 1019 4036 
Q 1050 4025 1062 4006 
Q 1075 3988 1075 3963 
L 1075 81 
z
" transform="scale(0.015625)"/>
      <path id="Calibri-6e" d="M 2900 78 
Q 2900 53 2887 36 
Q 2875 19 2847 6 
Q 2819 -6 2769 -12 
Q 2719 -19 2644 -19 
Q 2566 -19 2516 -12 
Q 2466 -6 2437 6 
Q 2409 19 2396 36 
Q 2384 53 2384 78 
L 2384 1725 
Q 2384 1966 2346 2112 
Q 2309 2259 2237 2365 
Q 2166 2472 2052 2528 
Q 1938 2584 1788 2584 
Q 1594 2584 1400 2446 
Q 1206 2309 994 2044 
L 994 78 
Q 994 53 981 36 
Q 969 19 941 6 
Q 913 -6 863 -12 
Q 813 -19 734 -19 
Q 659 -19 609 -12 
Q 559 -6 529 6 
Q 500 19 489 36 
Q 478 53 478 78 
L 478 2891 
Q 478 2916 487 2933 
Q 497 2950 525 2964 
Q 553 2978 597 2983 
Q 641 2988 713 2988 
Q 781 2988 826 2983 
Q 872 2978 897 2964 
Q 922 2950 933 2933 
Q 944 2916 944 2891 
L 944 2519 
Q 1181 2784 1417 2907 
Q 1653 3031 1894 3031 
Q 2175 3031 2367 2936 
Q 2559 2841 2678 2681 
Q 2797 2522 2848 2308 
Q 2900 2094 2900 1794 
L 2900 78 
z
" transform="scale(0.015625)"/>
      <path id="Calibri-69" d="M 994 78 
Q 994 53 981 36 
Q 969 19 941 6 
Q 913 -6 863 -12 
Q 813 -19 734 -19 
Q 659 -19 609 -12 
Q 559 -6 529 6 
Q 500 19 489 36 
Q 478 53 478 78 
L 478 2891 
Q 478 2913 489 2931 
Q 500 2950 529 2962 
Q 559 2975 609 2981 
Q 659 2988 734 2988 
Q 813 2988 863 2981 
Q 913 2975 941 2962 
Q 969 2950 981 2931 
Q 994 2913 994 2891 
L 994 78 
z
M 1053 3841 
Q 1053 3659 984 3593 
Q 916 3528 731 3528 
Q 550 3528 483 3592 
Q 416 3656 416 3834 
Q 416 4016 484 4081 
Q 553 4147 738 4147 
Q 919 4147 986 4083 
Q 1053 4019 1053 3841 
z
" transform="scale(0.015625)"/>
      <path id="Calibri-74" d="M 1941 284 
Q 1941 194 1928 141 
Q 1916 88 1891 63 
Q 1866 38 1816 16 
Q 1766 -6 1702 -20 
Q 1638 -34 1566 -43 
Q 1494 -53 1422 -53 
Q 1203 -53 1047 5 
Q 891 63 791 180 
Q 691 297 645 476 
Q 600 656 600 900 
L 600 2544 
L 206 2544 
Q 159 2544 131 2594 
Q 103 2644 103 2756 
Q 103 2816 111 2856 
Q 119 2897 131 2923 
Q 144 2950 164 2961 
Q 184 2972 209 2972 
L 600 2972 
L 600 3641 
Q 600 3663 611 3681 
Q 622 3700 651 3714 
Q 681 3728 731 3734 
Q 781 3741 856 3741 
Q 934 3741 984 3734 
Q 1034 3728 1062 3714 
Q 1091 3700 1103 3681 
Q 1116 3663 1116 3641 
L 1116 2972 
L 1838 2972 
Q 1863 2972 1881 2961 
Q 1900 2950 1914 2923 
Q 1928 2897 1934 2856 
Q 1941 2816 1941 2756 
Q 1941 2644 1912 2594 
Q 1884 2544 1838 2544 
L 1116 2544 
L 1116 975 
Q 1116 684 1202 536 
Q 1288 388 1509 388 
Q 1581 388 1637 402 
Q 1694 416 1737 431 
Q 1781 447 1812 461 
Q 1844 475 1869 475 
Q 1884 475 1898 467 
Q 1913 459 1920 437 
Q 1928 416 1934 378 
Q 1941 341 1941 284 
z
" transform="scale(0.015625)"/>
      <path id="Calibri-20" transform="scale(0.015625)"/>
      <path id="Calibri-53" d="M 2709 1134 
Q 2709 850 2604 628 
Q 2500 406 2314 251 
Q 2128 97 1876 19 
Q 1625 -59 1334 -59 
Q 1131 -59 957 -25 
Q 784 9 648 59 
Q 513 109 420 162 
Q 328 216 292 253 
Q 256 291 239 348 
Q 222 406 222 503 
Q 222 572 228 617 
Q 234 663 246 691 
Q 259 719 278 730 
Q 297 741 322 741 
Q 366 741 445 687 
Q 525 634 650 571 
Q 775 509 951 454 
Q 1128 400 1359 400 
Q 1534 400 1679 447 
Q 1825 494 1929 580 
Q 2034 666 2090 791 
Q 2147 916 2147 1075 
Q 2147 1247 2069 1369 
Q 1991 1491 1862 1583 
Q 1734 1675 1570 1751 
Q 1406 1828 1234 1908 
Q 1063 1988 900 2084 
Q 738 2181 609 2312 
Q 481 2444 401 2620 
Q 322 2797 322 3044 
Q 322 3297 414 3495 
Q 506 3694 670 3828 
Q 834 3963 1061 4033 
Q 1288 4103 1550 4103 
Q 1684 4103 1820 4079 
Q 1956 4056 2076 4017 
Q 2197 3978 2290 3929 
Q 2384 3881 2414 3851 
Q 2444 3822 2453 3805 
Q 2463 3788 2469 3761 
Q 2475 3734 2478 3696 
Q 2481 3659 2481 3600 
Q 2481 3544 2476 3500 
Q 2472 3456 2462 3426 
Q 2453 3397 2436 3383 
Q 2419 3369 2397 3369 
Q 2363 3369 2289 3412 
Q 2216 3456 2109 3511 
Q 2003 3566 1858 3611 
Q 1713 3656 1531 3656 
Q 1363 3656 1238 3611 
Q 1113 3566 1031 3491 
Q 950 3416 909 3312 
Q 869 3209 869 3094 
Q 869 2925 947 2803 
Q 1025 2681 1154 2587 
Q 1284 2494 1450 2416 
Q 1616 2338 1787 2258 
Q 1959 2178 2125 2083 
Q 2291 1988 2420 1858 
Q 2550 1728 2629 1551 
Q 2709 1375 2709 1134 
z
" transform="scale(0.015625)"/>
      <path id="Calibri-73" d="M 2244 844 
Q 2244 628 2164 459 
Q 2084 291 1937 175 
Q 1791 59 1587 0 
Q 1384 -59 1141 -59 
Q 991 -59 855 -36 
Q 719 -13 611 23 
Q 503 59 428 98 
Q 353 138 318 169 
Q 284 200 268 256 
Q 253 313 253 409 
Q 253 469 259 509 
Q 266 550 275 575 
Q 284 600 301 611 
Q 319 622 341 622 
Q 375 622 442 580 
Q 509 538 607 488 
Q 706 438 840 395 
Q 975 353 1150 353 
Q 1281 353 1387 381 
Q 1494 409 1572 464 
Q 1650 519 1692 603 
Q 1734 688 1734 803 
Q 1734 922 1673 1003 
Q 1613 1084 1513 1146 
Q 1413 1209 1288 1257 
Q 1163 1306 1030 1359 
Q 897 1413 770 1480 
Q 644 1547 544 1644 
Q 444 1741 383 1875 
Q 322 2009 322 2197 
Q 322 2363 386 2514 
Q 450 2666 578 2780 
Q 706 2894 898 2962 
Q 1091 3031 1347 3031 
Q 1459 3031 1571 3012 
Q 1684 2994 1775 2966 
Q 1866 2938 1930 2905 
Q 1994 2872 2026 2847 
Q 2059 2822 2070 2803 
Q 2081 2784 2086 2761 
Q 2091 2738 2095 2703 
Q 2100 2669 2100 2619 
Q 2100 2566 2095 2527 
Q 2091 2488 2080 2463 
Q 2069 2438 2053 2427 
Q 2038 2416 2019 2416 
Q 1991 2416 1937 2450 
Q 1884 2484 1800 2523 
Q 1716 2563 1602 2597 
Q 1488 2631 1341 2631 
Q 1209 2631 1109 2601 
Q 1009 2572 945 2517 
Q 881 2463 848 2388 
Q 816 2313 816 2225 
Q 816 2103 878 2020 
Q 941 1938 1041 1875 
Q 1141 1813 1269 1763 
Q 1397 1713 1530 1659 
Q 1663 1606 1792 1540 
Q 1922 1475 2022 1381 
Q 2122 1288 2183 1156 
Q 2244 1025 2244 844 
z
" transform="scale(0.015625)"/>
      <path id="Calibri-3a" d="M 1241 2500 
Q 1241 2400 1227 2331 
Q 1213 2263 1173 2220 
Q 1134 2178 1071 2161 
Q 1009 2144 913 2144 
Q 813 2144 750 2161 
Q 688 2178 650 2220 
Q 613 2263 598 2331 
Q 584 2400 584 2500 
Q 584 2606 598 2676 
Q 613 2747 650 2789 
Q 688 2831 750 2848 
Q 813 2866 913 2866 
Q 1009 2866 1071 2848 
Q 1134 2831 1173 2789 
Q 1213 2747 1227 2676 
Q 1241 2606 1241 2500 
z
M 1241 331 
Q 1241 228 1227 159 
Q 1213 91 1173 48 
Q 1134 6 1071 -11 
Q 1009 -28 913 -28 
Q 813 -28 750 -11 
Q 688 6 650 48 
Q 613 91 598 159 
Q 584 228 584 331 
Q 584 434 598 504 
Q 613 575 650 615 
Q 688 656 750 675 
Q 813 694 913 694 
Q 1009 694 1071 675 
Q 1134 656 1173 615 
Q 1213 575 1227 504 
Q 1241 434 1241 331 
z
" transform="scale(0.015625)"/>
      <path id="Calibri-52" d="M 3234 81 
Q 3234 56 3225 37 
Q 3216 19 3184 6 
Q 3153 -6 3097 -12 
Q 3041 -19 2947 -19 
Q 2866 -19 2814 -12 
Q 2763 -6 2731 8 
Q 2700 22 2683 47 
Q 2666 72 2653 109 
L 2281 1063 
Q 2216 1225 2145 1361 
Q 2075 1497 1978 1595 
Q 1881 1694 1750 1748 
Q 1619 1803 1434 1803 
L 1075 1803 
L 1075 81 
Q 1075 56 1061 37 
Q 1047 19 1017 8 
Q 988 -3 936 -11 
Q 884 -19 806 -19 
Q 728 -19 676 -11 
Q 625 -3 594 8 
Q 563 19 550 37 
Q 538 56 538 81 
L 538 3825 
Q 538 3947 602 3995 
Q 666 4044 738 4044 
L 1597 4044 
Q 1750 4044 1851 4036 
Q 1953 4028 2034 4019 
Q 2269 3978 2448 3890 
Q 2628 3803 2750 3668 
Q 2872 3534 2933 3361 
Q 2994 3188 2994 2978 
Q 2994 2775 2939 2614 
Q 2884 2453 2781 2329 
Q 2678 2206 2534 2115 
Q 2391 2025 2213 1963 
Q 2313 1919 2394 1851 
Q 2475 1784 2545 1690 
Q 2616 1597 2678 1475 
Q 2741 1353 2803 1200 
L 3166 309 
Q 3209 197 3221 151 
Q 3234 106 3234 81 
z
M 2425 2922 
Q 2425 3159 2319 3323 
Q 2213 3488 1963 3559 
Q 1884 3581 1786 3590 
Q 1688 3600 1528 3600 
L 1075 3600 
L 1075 2238 
L 1600 2238 
Q 1813 2238 1967 2289 
Q 2122 2341 2225 2433 
Q 2328 2525 2376 2650 
Q 2425 2775 2425 2922 
z
" transform="scale(0.015625)"/>
     </defs>
     <use xlink:href="#Calibri-49"/>
     <use xlink:href="#Calibri-6e" x="25.195312"/>
     <use xlink:href="#Calibri-69" x="77.734375"/>
     <use xlink:href="#Calibri-74" x="100.683594"/>
     <use xlink:href="#Calibri-20" x="134.179688"/>
     <use xlink:href="#Calibri-53" x="156.787109"/>
     <use xlink:href="#Calibri-65" x="202.734375"/>
     <use xlink:href="#Calibri-6e" x="252.490234"/>
     <use xlink:href="#Calibri-73" x="305.029297"/>
     <use xlink:href="#Calibri-3a" x="344.140625"/>
     <use xlink:href="#Calibri-31" x="370.898438"/>
     <use xlink:href="#Calibri-30" x="421.582031"/>
     <use xlink:href="#Calibri-30" x="472.265625"/>
     <use xlink:href="#Calibri-20" x="522.949219"/>
     <use xlink:href="#Calibri-49" x="545.556641"/>
     <use xlink:href="#Calibri-6e" x="570.751953"/>
     <use xlink:href="#Calibri-69" x="623.291016"/>
     <use xlink:href="#Calibri-74" x="646.240234"/>
     <use xlink:href="#Calibri-20" x="679.736328"/>
     <use xlink:href="#Calibri-52" x="702.34375"/>
     <use xlink:href="#Calibri-65" x="756.640625"/>
     <use xlink:href="#Calibri-73" x="806.396484"/>
     <use xlink:href="#Calibri-3a" x="845.507812"/>
     <use xlink:href="#Calibri-31" x="872.265625"/>
    </g>
   </g>
  </g>
  <g id="axes_2">
   <g id="patch_5">
    <path d="M 176.89 161.12 
L 296.49 161.12 
L 296.49 46.32 
L 176.89 46.32 
z
" style="fill: #ffffff"/>
   </g>
   <g id="matplotlib.axis_3">
    <g id="xtick_4">
     <g id="line2d_14">
      <g>
       <use xlink:href="#mc9cccd5391" x="182.326364" y="161.12" style="stroke: #000000; stroke-width: 0.8"/>
      </g>
     </g>
     <g id="text_10">
      <!-- 0 -->
      <g transform="translate(179.538551 175.601719)scale(0.11 -0.11)">
       <use xlink:href="#Calibri-30"/>
      </g>
     </g>
    </g>
    <g id="xtick_5">
     <g id="line2d_15">
      <g>
       <use xlink:href="#mc9cccd5391" x="236.69" y="161.12" style="stroke: #000000; stroke-width: 0.8"/>
      </g>
     </g>
     <g id="text_11">
      <!-- 500 -->
      <g transform="translate(228.326562 175.601719)scale(0.11 -0.11)">
       <use xlink:href="#Calibri-35"/>
       <use xlink:href="#Calibri-30" x="50.683594"/>
       <use xlink:href="#Calibri-30" x="101.367188"/>
      </g>
     </g>
    </g>
    <g id="xtick_6">
     <g id="line2d_16">
      <g>
       <use xlink:href="#mc9cccd5391" x="291.053636" y="161.12" style="stroke: #000000; stroke-width: 0.8"/>
      </g>
     </g>
     <g id="text_12">
      <!-- 1000 -->
      <g transform="translate(279.902386 175.601719)scale(0.11 -0.11)">
       <use xlink:href="#Calibri-31"/>
       <use xlink:href="#Calibri-30" x="50.683594"/>
       <use xlink:href="#Calibri-30" x="101.367188"/>
       <use xlink:href="#Calibri-30" x="152.050781"/>
      </g>
     </g>
    </g>
   </g>
   <g id="matplotlib.axis_4">
    <g id="ytick_5">
     <g id="line2d_17">
      <g>
       <use xlink:href="#m44f88adbfb" x="176.89" y="155.901818" style="stroke: #000000; stroke-width: 0.8"/>
      </g>
     </g>
     <g id="text_13">
      <!-- 0 -->
      <g transform="translate(164.314375 159.642678)scale(0.11 -0.11)">
       <use xlink:href="#Calibri-30"/>
      </g>
     </g>
    </g>
    <g id="ytick_6">
     <g id="line2d_18">
      <g>
       <use xlink:href="#m44f88adbfb" x="176.89" y="128.968255" style="stroke: #000000; stroke-width: 0.8"/>
      </g>
     </g>
     <g id="text_14">
      <!-- 1 -->
      <g transform="translate(164.314375 132.709115)scale(0.11 -0.11)">
       <use xlink:href="#Calibri-31"/>
      </g>
     </g>
    </g>
    <g id="ytick_7">
     <g id="line2d_19">
      <g>
       <use xlink:href="#m44f88adbfb" x="176.89" y="102.034692" style="stroke: #000000; stroke-width: 0.8"/>
      </g>
     </g>
     <g id="text_15">
      <!-- 2 -->
      <g transform="translate(164.314375 105.775552)scale(0.11 -0.11)">
       <use xlink:href="#Calibri-32"/>
      </g>
     </g>
    </g>
    <g id="ytick_8">
     <g id="line2d_20">
      <g>
       <use xlink:href="#m44f88adbfb" x="176.89" y="75.101129" style="stroke: #000000; stroke-width: 0.8"/>
      </g>
     </g>
     <g id="text_16">
      <!-- 3 -->
      <g transform="translate(164.314375 78.841989)scale(0.11 -0.11)">
       <use xlink:href="#Calibri-33"/>
      </g>
     </g>
    </g>
    <g id="ytick_9">
     <g id="line2d_21">
      <g>
       <use xlink:href="#m44f88adbfb" x="176.89" y="48.167567" style="stroke: #000000; stroke-width: 0.8"/>
      </g>
     </g>
     <g id="text_17">
      <!-- 4 -->
      <g transform="translate(164.314375 51.908426)scale(0.11 -0.11)">
       <defs>
        <path id="Calibri-34" d="M 3059 1150 
Q 3059 1047 3028 987 
Q 2997 928 2941 928 
L 2484 928 
L 2484 78 
Q 2484 53 2471 36 
Q 2459 19 2428 6 
Q 2397 -6 2347 -12 
Q 2297 -19 2219 -19 
Q 2144 -19 2094 -12 
Q 2044 -6 2014 6 
Q 1984 19 1973 36 
Q 1963 53 1963 78 
L 1963 928 
L 294 928 
Q 256 928 231 937 
Q 206 947 186 972 
Q 166 997 158 1044 
Q 150 1091 150 1166 
Q 150 1225 153 1272 
Q 156 1319 165 1358 
Q 175 1397 190 1433 
Q 206 1469 228 1509 
L 1684 3966 
Q 1700 3991 1729 4009 
Q 1759 4028 1806 4040 
Q 1853 4053 1922 4058 
Q 1991 4063 2084 4063 
Q 2188 4063 2264 4055 
Q 2341 4047 2387 4034 
Q 2434 4022 2459 4001 
Q 2484 3981 2484 3953 
L 2484 1372 
L 2941 1372 
Q 2994 1372 3026 1317 
Q 3059 1263 3059 1150 
z
M 1963 3591 
L 1956 3591 
L 641 1372 
L 1963 1372 
L 1963 3591 
z
" transform="scale(0.015625)"/>
       </defs>
       <use xlink:href="#Calibri-34"/>
      </g>
     </g>
    </g>
    <g id="text_18">
     <!-- 1e8 -->
     <g transform="translate(176.89 43.32)scale(0.11 -0.11)">
      <use xlink:href="#Calibri-31"/>
      <use xlink:href="#Calibri-65" x="50.683594"/>
      <use xlink:href="#Calibri-38" x="100.439453"/>
     </g>
    </g>
   </g>
   <g id="line2d_22">
    <path d="M 291.053636 161.12 
L 291.053636 46.32 
" clip-path="url(#p2be9b0082b)" style="fill: none; stroke: #ff0000; stroke-width: 1.5; stroke-linecap: square"/>
   </g>
   <g id="line2d_23">
    <path d="M 254.521273 161.12 
L 254.521273 46.32 
" clip-path="url(#p2be9b0082b)" style="fill: none; stroke-dasharray: 5.55,2.4; stroke-dashoffset: 0; stroke: #0000ff; stroke-width: 1.5"/>
   </g>
   <g id="line2d_24">
    <path d="M 182.326364 128.870476 
L 182.435091 128.700842 
L 182.87 136.102335 
L 183.304909 140.008921 
L 183.848545 143.134974 
L 185.696909 130.220741 
L 186.131818 128.208102 
L 186.566727 135.238847 
L 187.110364 140.005539 
L 187.654 143.058267 
L 189.611091 128.254974 
L 190.046 134.914242 
L 190.589636 139.66601 
L 191.242 143.250563 
L 192.438 133.402634 
L 193.199091 127.614355 
L 193.634 134.297098 
L 194.177636 139.162919 
L 194.83 142.839997 
L 194.938727 143.320958 
L 196.026 134.195628 
L 196.787091 127.853351 
L 197.222 134.276523 
L 197.765636 139.078833 
L 198.418 142.732147 
L 198.526727 143.211341 
L 199.505273 134.892587 
L 200.375091 127.329698 
L 200.81 133.824215 
L 201.353636 138.716067 
L 202.006 142.440694 
L 202.114727 142.927113 
L 203.093273 134.393984 
L 203.854364 127.511678 
L 204.289273 133.833586 
L 204.832909 138.662835 
L 205.485273 142.359453 
L 205.702727 143.304403 
L 206.681273 134.81197 
L 207.442364 127.776315 
L 207.986 135.084178 
L 208.529636 139.432599 
L 209.182 142.852803 
L 209.290727 143.309107 
L 210.269273 134.767564 
L 211.030364 127.637119 
L 211.574 134.952767 
L 212.117636 139.31521 
L 212.77 142.752085 
L 212.878727 143.21144 
L 213.857273 134.57976 
L 214.618364 127.347928 
L 215.162 134.727459 
L 215.705636 139.13473 
L 216.358 142.60317 
L 216.466727 143.065129 
L 217.445273 134.325865 
L 218.206364 126.994674 
L 218.75 134.466433 
L 219.293636 138.928137 
L 219.946 142.432615 
L 220.054727 142.900235 
L 221.033273 134.045367 
L 221.685636 127.661142 
L 222.229273 134.814313 
L 222.772909 139.138661 
L 223.425273 142.564652 
L 223.534 143.022168 
L 224.512545 134.179321 
L 225.164909 127.759719 
L 225.708545 134.84987 
L 226.252182 139.154012 
L 226.904545 142.569198 
L 227.013273 143.026217 
L 227.883091 135.216548 
L 228.644182 127.70972 
L 229.187818 134.796001 
L 229.731455 139.104426 
L 230.383818 142.522388 
L 230.492545 142.981122 
L 231.362364 135.134568 
L 232.123455 127.581504 
L 232.667091 134.698532 
L 233.210727 139.022988 
L 233.863091 142.452646 
L 233.971818 142.912669 
L 234.841636 135.019653 
L 235.602727 127.42326 
L 236.146364 134.575116 
L 236.69 138.921013 
L 237.342364 142.368594 
L 237.559818 143.265744 
L 238.429636 135.483381 
L 239.299455 126.827466 
L 239.843091 134.211143 
L 240.386727 138.669242 
L 241.039091 142.190787 
L 241.256545 143.104935 
L 242.126364 135.245582 
L 242.887455 127.616429 
L 243.431091 134.667544 
L 243.974727 138.973503 
L 244.627091 142.39863 
L 244.735818 142.858291 
L 245.605636 134.905396 
L 246.366727 127.223733 
L 246.910364 134.403875 
L 247.454 138.773371 
L 248.106364 142.245904 
L 248.323818 143.150659 
L 249.193636 135.279251 
L 249.954727 127.613106 
L 250.498364 134.642658 
L 251.042 138.944933 
L 251.694364 142.3688 
L 251.911818 143.265387 
L 252.781636 135.437278 
L 253.542727 127.781674 
L 254.086364 134.748523 
L 254.63 139.017825 
L 255.282364 142.422438 
L 255.391091 142.880341 
L 256.260909 134.911933 
L 257.022 127.183017 
L 257.565636 134.353797 
L 258.109273 138.722598 
L 258.761636 142.199354 
L 258.979091 143.108472 
L 259.848909 135.19971 
L 260.61 127.48349 
L 261.153636 134.536455 
L 261.697273 138.852251 
L 262.349636 142.288163 
L 262.567091 143.186733 
L 263.436909 135.305364 
L 264.198 127.590738 
L 264.741636 134.600222 
L 265.285273 138.895474 
L 265.937636 142.321286 
L 266.155091 143.214998 
L 267.024909 135.346826 
L 267.786 127.632326 
L 268.329636 134.62373 
L 268.873273 138.911704 
L 269.525636 142.335687 
L 269.743091 143.230077 
L 270.612909 135.365306 
L 271.374 127.649472 
L 271.917636 134.633978 
L 272.461273 138.91938 
L 273.113636 142.33941 
L 273.331091 143.234997 
L 274.200909 135.372762 
L 274.962 127.650454 
L 275.505636 134.629199 
L 276.049273 138.911657 
L 276.701636 142.332019 
L 276.919091 143.227076 
L 277.788909 135.359581 
L 278.55 127.629368 
L 279.093636 134.612185 
L 279.637273 138.899104 
L 280.289636 142.322521 
L 280.507091 143.218626 
L 281.376909 135.346005 
L 282.138 127.604053 
L 282.681636 134.589891 
L 283.225273 138.878294 
L 283.877636 142.306268 
L 284.095091 143.204415 
L 284.964909 135.322299 
L 285.726 127.571794 
L 286.269636 134.567505 
L 286.813273 138.858441 
L 287.465636 142.290356 
L 287.683091 143.188995 
L 288.552909 135.298208 
L 289.314 127.534063 
L 289.857636 134.538941 
L 290.401273 138.838378 
L 290.944909 141.781386 
L 290.944909 141.781386 
" clip-path="url(#p2be9b0082b)" style="fill: none; stroke: #ff0000; stroke-width: 1.5; stroke-linecap: square"/>
   </g>
   <g id="line2d_25">
    <path d="M 182.326364 128.823777 
L 182.435091 128.655139 
L 182.87 136.075361 
L 183.304909 139.98601 
L 183.848545 143.116475 
L 184.500909 145.716452 
L 185.262 147.885655 
L 186.131818 149.699076 
L 187.110364 151.202181 
L 188.088909 152.329328 
L 189.176182 153.270836 
L 190.372182 154.030102 
L 191.785636 154.662863 
L 193.416545 155.140578 
L 195.264909 155.447797 
L 197.222 155.554617 
L 210.486727 155.548887 
L 212.661273 155.308536 
L 214.292182 154.897552 
L 216.140545 154.176935 
L 219.184909 152.909194 
L 221.468182 152.23411 
L 223.316545 151.93655 
L 227.883091 151.325702 
L 229.622727 150.805303 
L 230.927455 150.203454 
L 231.906 149.537457 
L 232.993273 148.496294 
L 234.732909 146.494672 
L 236.69 143.894316 
L 239.734364 139.950576 
L 241.800182 137.788234 
L 243.539818 136.233591 
L 245.170727 135.087726 
L 248.758727 132.759784 
L 249.737273 131.762212 
L 250.824545 130.338603 
L 252.129273 128.249233 
L 253.325273 125.897649 
L 255.064909 121.943609 
L 256.913273 117.171459 
L 260.392545 108.191006 
L 262.458364 103.557618 
L 264.089273 100.420385 
L 266.263818 96.937735 
L 269.308182 91.945994 
L 272.896182 85.552546 
L 274.853273 81.430782 
L 276.592909 77.182474 
L 281.594364 64.72417 
L 283.116545 61.696195 
L 284.638727 59.119787 
L 286.487091 56.423887 
L 288.444182 53.943279 
L 289.966364 52.38868 
L 290.944909 51.538182 
L 290.944909 51.538182 
" clip-path="url(#p2be9b0082b)" style="fill: none; stroke-dasharray: 5.55,2.4; stroke-dashoffset: 0; stroke: #0000ff; stroke-width: 1.5"/>
   </g>
   <g id="line2d_26">
    <path d="M 182.326364 155.901818 
L 290.944909 155.901818 
L 290.944909 155.901818 
" clip-path="url(#p2be9b0082b)" style="fill: none; stroke-dasharray: 1.5,2.475; stroke-dashoffset: 0; stroke: #ff0000; stroke-width: 1.5"/>
   </g>
   <g id="line2d_27">
    <path d="M 182.326364 155.901806 
L 196.787091 155.794784 
L 200.266364 155.675449 
L 210.921636 155.520371 
L 212.878727 155.267723 
L 214.509636 154.825308 
L 216.358 154.077517 
L 218.967455 152.985144 
L 221.359455 152.259343 
L 223.099091 151.961873 
L 228.100545 151.273132 
L 229.840182 150.721 
L 231.144909 150.075265 
L 232.123455 149.353502 
L 233.319455 148.144426 
L 235.167818 145.947472 
L 240.930364 138.669773 
L 242.996182 136.680181 
L 244.518364 135.515575 
L 246.258 134.462851 
L 247.997636 133.367517 
L 249.193636 132.350482 
L 250.280909 131.09039 
L 251.476909 129.347709 
L 252.672909 127.236806 
L 254.086364 124.234277 
L 255.826 120.036432 
L 261.479818 105.674004 
L 263.219455 102.017513 
L 264.524182 99.695007 
L 271.265273 88.586775 
L 273.222364 84.900347 
L 275.070727 80.928858 
L 277.027818 76.074902 
L 281.594364 64.72417 
L 283.116545 61.696195 
L 284.638727 59.119787 
L 286.487091 56.423887 
L 288.444182 53.943279 
L 289.966364 52.38868 
L 290.944909 51.538182 
L 290.944909 51.538182 
" clip-path="url(#p2be9b0082b)" style="fill: none; stroke-dasharray: 1.5,2.475; stroke-dashoffset: 0; stroke: #0000ff; stroke-width: 1.5"/>
   </g>
   <g id="patch_6">
    <path d="M 176.89 161.12 
L 176.89 46.32 
" style="fill: none; stroke: #000000; stroke-linejoin: miter; stroke-linecap: square"/>
   </g>
   <g id="patch_7">
    <path d="M 176.89 161.12 
L 296.49 161.12 
" style="fill: none; stroke: #000000; stroke-linejoin: miter; stroke-linecap: square"/>
   </g>
   <g id="text_19">
    <!-- Init Sens:1000 Init Res:1 -->
    <g transform="translate(183.135469 40.32)scale(0.11 -0.11)">
     <use xlink:href="#Calibri-49"/>
     <use xlink:href="#Calibri-6e" x="25.195312"/>
     <use xlink:href="#Calibri-69" x="77.734375"/>
     <use xlink:href="#Calibri-74" x="100.683594"/>
     <use xlink:href="#Calibri-20" x="134.179688"/>
     <use xlink:href="#Calibri-53" x="156.787109"/>
     <use xlink:href="#Calibri-65" x="202.734375"/>
     <use xlink:href="#Calibri-6e" x="252.490234"/>
     <use xlink:href="#Calibri-73" x="305.029297"/>
     <use xlink:href="#Calibri-3a" x="344.140625"/>
     <use xlink:href="#Calibri-31" x="370.898438"/>
     <use xlink:href="#Calibri-30" x="421.582031"/>
     <use xlink:href="#Calibri-30" x="472.265625"/>
     <use xlink:href="#Calibri-30" x="522.949219"/>
     <use xlink:href="#Calibri-20" x="573.632812"/>
     <use xlink:href="#Calibri-49" x="596.240234"/>
     <use xlink:href="#Calibri-6e" x="621.435547"/>
     <use xlink:href="#Calibri-69" x="673.974609"/>
     <use xlink:href="#Calibri-74" x="696.923828"/>
     <use xlink:href="#Calibri-20" x="730.419922"/>
     <use xlink:href="#Calibri-52" x="753.027344"/>
     <use xlink:href="#Calibri-65" x="807.324219"/>
     <use xlink:href="#Calibri-73" x="857.080078"/>
     <use xlink:href="#Calibri-3a" x="896.191406"/>
     <use xlink:href="#Calibri-31" x="922.949219"/>
    </g>
   </g>
  </g>
  <g id="axes_3">
   <g id="patch_8">
    <path d="M 329.32 161.12 
L 448.92 161.12 
L 448.92 46.32 
L 329.32 46.32 
z
" style="fill: #ffffff"/>
   </g>
   <g id="matplotlib.axis_5">
    <g id="xtick_7">
     <g id="line2d_28">
      <g>
       <use xlink:href="#mc9cccd5391" x="334.756364" y="161.12" style="stroke: #000000; stroke-width: 0.8"/>
      </g>
     </g>
     <g id="text_20">
      <!-- 0 -->
      <g transform="translate(331.968551 175.601719)scale(0.11 -0.11)">
       <use xlink:href="#Calibri-30"/>
      </g>
     </g>
    </g>
    <g id="xtick_8">
     <g id="line2d_29">
      <g>
       <use xlink:href="#mc9cccd5391" x="376.980547" y="161.12" style="stroke: #000000; stroke-width: 0.8"/>
      </g>
     </g>
     <g id="text_21">
      <!-- 200 -->
      <g transform="translate(368.61711 175.601719)scale(0.11 -0.11)">
       <use xlink:href="#Calibri-32"/>
       <use xlink:href="#Calibri-30" x="50.683594"/>
       <use xlink:href="#Calibri-30" x="101.367188"/>
      </g>
     </g>
    </g>
    <g id="xtick_9">
     <g id="line2d_30">
      <g>
       <use xlink:href="#mc9cccd5391" x="419.204731" y="161.12" style="stroke: #000000; stroke-width: 0.8"/>
      </g>
     </g>
     <g id="text_22">
      <!-- 400 -->
      <g transform="translate(410.841293 175.601719)scale(0.11 -0.11)">
       <use xlink:href="#Calibri-34"/>
       <use xlink:href="#Calibri-30" x="50.683594"/>
       <use xlink:href="#Calibri-30" x="101.367188"/>
      </g>
     </g>
    </g>
   </g>
   <g id="matplotlib.axis_6">
    <g id="ytick_10">
     <g id="line2d_31">
      <g>
       <use xlink:href="#m44f88adbfb" x="329.32" y="155.909689" style="stroke: #000000; stroke-width: 0.8"/>
      </g>
     </g>
     <g id="text_23">
      <!-- 0 -->
      <g transform="translate(316.744375 159.650549)scale(0.11 -0.11)">
       <use xlink:href="#Calibri-30"/>
      </g>
     </g>
    </g>
    <g id="ytick_11">
     <g id="line2d_32">
      <g>
       <use xlink:href="#m44f88adbfb" x="329.32" y="114.695061" style="stroke: #000000; stroke-width: 0.8"/>
      </g>
     </g>
     <g id="text_24">
      <!-- 1 -->
      <g transform="translate(316.744375 118.435921)scale(0.11 -0.11)">
       <use xlink:href="#Calibri-31"/>
      </g>
     </g>
    </g>
    <g id="ytick_12">
     <g id="line2d_33">
      <g>
       <use xlink:href="#m44f88adbfb" x="329.32" y="73.480433" style="stroke: #000000; stroke-width: 0.8"/>
      </g>
     </g>
     <g id="text_25">
      <!-- 2 -->
      <g transform="translate(316.744375 77.221293)scale(0.11 -0.11)">
       <use xlink:href="#Calibri-32"/>
      </g>
     </g>
    </g>
    <g id="text_26">
     <!-- 1e8 -->
     <g transform="translate(329.32 43.32)scale(0.11 -0.11)">
      <use xlink:href="#Calibri-31"/>
      <use xlink:href="#Calibri-65" x="50.683594"/>
      <use xlink:href="#Calibri-38" x="100.439453"/>
     </g>
    </g>
   </g>
   <g id="line2d_34">
    <path d="M 403.792904 161.12 
L 403.792904 46.32 
" clip-path="url(#p1a0b2cfc49)" style="fill: none; stroke: #ff0000; stroke-width: 1.5; stroke-linecap: square"/>
   </g>
   <g id="line2d_35">
    <path d="M 443.483636 161.12 
L 443.483636 46.32 
" clip-path="url(#p1a0b2cfc49)" style="fill: none; stroke-dasharray: 5.55,2.4; stroke-dashoffset: 0; stroke: #0000ff; stroke-width: 1.5"/>
   </g>
   <g id="line2d_36">
    <path d="M 334.756364 114.564559 
L 334.967485 114.298637 
L 335.389726 120.935973 
L 336.023089 127.191067 
L 336.656452 131.293166 
L 337.500936 135.157926 
L 337.923177 136.67816 
L 341.512233 117.233389 
L 342.567838 113.439323 
L 343.2012 121.850332 
L 343.834563 127.082305 
L 344.467926 130.768789 
L 345.31241 134.346333 
L 345.945772 136.365505 
L 347.63474 126.422096 
L 349.323707 116.661351 
L 349.95707 113.590175 
L 350.590432 120.914278 
L 351.223795 125.696175 
L 351.857158 129.126221 
L 352.701642 132.427085 
L 353.546125 134.809526 
L 353.968367 135.755804 
L 355.446214 127.898038 
L 358.190786 112.836629 
L 358.824148 119.379141 
L 359.457511 123.768689 
L 360.301995 127.824467 
L 361.146478 130.641008 
L 361.990962 132.67926 
L 362.835446 134.186338 
L 363.679929 135.312433 
L 363.89105 135.548984 
L 365.157776 130.554265 
L 366.846743 122.875953 
L 368.746831 113.36015 
L 369.380194 118.414375 
L 370.013557 121.960739 
L 370.858041 125.294448 
L 371.702524 127.635714 
L 372.547008 129.341476 
L 373.391492 130.605669 
L 374.447096 131.748487 
L 375.502701 132.541865 
L 376.558305 133.070311 
L 377.61391 133.369269 
L 378.669515 133.454276 
L 379.93624 133.330052 
L 381.414086 132.948404 
L 382.680812 132.411071 
L 383.947538 131.652685 
L 385.425384 130.482573 
L 387.747714 128.255187 
L 390.281165 125.558732 
L 392.181253 123.20533 
L 394.503583 119.877014 
L 404.004025 105.863106 
L 411.393257 95.330052 
L 414.137829 91.971506 
L 417.515763 88.176642 
L 420.471456 85.13989 
L 424.060512 81.540623 
L 426.805084 78.416244 
L 429.127414 75.477787 
L 431.238623 72.443434 
L 433.560953 68.739383 
L 436.938888 62.930548 
L 443.272515 51.538182 
L 443.272515 51.538182 
" clip-path="url(#p1a0b2cfc49)" style="fill: none; stroke: #ff0000; stroke-width: 1.5; stroke-linecap: square"/>
   </g>
   <g id="line2d_37">
    <path d="M 334.756364 114.519672 
L 334.967485 114.248458 
L 335.389726 120.988722 
L 336.023089 127.347648 
L 336.656452 131.529605 
L 337.500936 135.49421 
L 338.345419 138.470288 
L 339.401024 141.345309 
L 340.456628 143.592923 
L 341.723354 145.737456 
L 342.990079 147.449317 
L 344.256805 148.829387 
L 345.734651 150.109997 
L 347.212498 151.110305 
L 348.901465 151.995447 
L 350.801553 152.727221 
L 353.123883 153.392067 
L 355.868455 153.94665 
L 358.613027 154.266575 
L 362.835446 154.473421 
L 367.057864 154.477625 
L 370.013557 154.261433 
L 372.96925 153.806007 
L 375.924943 153.097362 
L 379.302877 152.110993 
L 382.25857 150.975433 
L 385.636505 149.762675 
L 391.125649 147.765839 
L 395.348067 146.128734 
L 399.781606 144.535733 
L 403.581783 142.982324 
L 409.704289 140.759251 
L 412.237741 139.519544 
L 414.137829 138.344574 
L 416.037917 136.916598 
L 417.938005 135.232176 
L 419.626973 133.434491 
L 422.371545 130.087097 
L 425.9606 125.805942 
L 433.560953 117.634407 
L 437.783372 112.854265 
L 442.00579 107.807401 
L 443.272515 106.259447 
L 443.272515 106.259447 
" clip-path="url(#p1a0b2cfc49)" style="fill: none; stroke-dasharray: 5.55,2.4; stroke-dashoffset: 0; stroke: #0000ff; stroke-width: 1.5"/>
   </g>
   <g id="line2d_38">
    <path d="M 334.756364 155.293258 
L 336.656452 155.17677 
L 344.256805 154.123394 
L 345.945772 153.542814 
L 348.268102 152.661924 
L 352.068279 151.411915 
L 353.968367 150.313587 
L 355.446214 149.480679 
L 357.135181 148.816644 
L 359.879753 147.886597 
L 361.779841 146.771601 
L 366.424501 143.939052 
L 368.746831 143.026897 
L 369.802436 142.579152 
L 372.335887 141.152866 
L 378.880635 137.202434 
L 381.836328 135.026124 
L 383.736417 133.384488 
L 385.425384 131.649418 
L 389.647802 126.787099 
L 391.970132 123.811726 
L 394.503583 120.065294 
L 401.048332 110.212377 
L 406.115234 102.833177 
L 411.182136 95.605906 
L 413.926708 92.220847 
L 417.515763 88.177294 
L 420.471456 85.14021 
L 424.060512 81.540756 
L 426.805084 78.416305 
L 429.127414 75.477821 
L 431.238623 72.443454 
L 433.560953 68.739394 
L 436.938888 62.930552 
L 443.272515 51.538182 
L 443.272515 51.538182 
" clip-path="url(#p1a0b2cfc49)" style="fill: none; stroke-dasharray: 1.5,2.475; stroke-dashoffset: 0; stroke: #ff0000; stroke-width: 1.5"/>
   </g>
   <g id="line2d_39">
    <path d="M 334.756364 155.901818 
L 344.679047 155.79217 
L 349.112586 155.504286 
L 355.023972 155.142913 
L 367.691227 154.593133 
L 370.858041 154.232341 
L 373.602613 153.716853 
L 377.61391 152.654688 
L 380.358482 151.738032 
L 386.480989 149.477572 
L 390.492286 148.026226 
L 395.770309 145.986801 
L 399.570485 144.625918 
L 404.215146 142.764017 
L 409.282048 140.943592 
L 412.02662 139.635141 
L 413.926708 138.486332 
L 415.826796 137.087839 
L 417.726884 135.435184 
L 419.415852 133.677932 
L 422.160424 130.348724 
L 425.9606 125.805943 
L 433.560953 117.634407 
L 437.783372 112.854265 
L 442.00579 107.807401 
L 443.272515 106.259447 
L 443.272515 106.259447 
" clip-path="url(#p1a0b2cfc49)" style="fill: none; stroke-dasharray: 1.5,2.475; stroke-dashoffset: 0; stroke: #0000ff; stroke-width: 1.5"/>
   </g>
   <g id="patch_9">
    <path d="M 329.32 161.12 
L 329.32 46.32 
" style="fill: none; stroke: #000000; stroke-linejoin: miter; stroke-linecap: square"/>
   </g>
   <g id="patch_10">
    <path d="M 329.32 161.12 
L 448.92 161.12 
" style="fill: none; stroke: #000000; stroke-linejoin: miter; stroke-linecap: square"/>
   </g>
   <g id="text_27">
    <!-- Init Sens:10000 Init Res:1 -->
    <g transform="translate(332.777656 40.32)scale(0.11 -0.11)">
     <use xlink:href="#Calibri-49"/>
     <use xlink:href="#Calibri-6e" x="25.195312"/>
     <use xlink:href="#Calibri-69" x="77.734375"/>
     <use xlink:href="#Calibri-74" x="100.683594"/>
     <use xlink:href="#Calibri-20" x="134.179688"/>
     <use xlink:href="#Calibri-53" x="156.787109"/>
     <use xlink:href="#Calibri-65" x="202.734375"/>
     <use xlink:href="#Calibri-6e" x="252.490234"/>
     <use xlink:href="#Calibri-73" x="305.029297"/>
     <use xlink:href="#Calibri-3a" x="344.140625"/>
     <use xlink:href="#Calibri-31" x="370.898438"/>
     <use xlink:href="#Calibri-30" x="421.582031"/>
     <use xlink:href="#Calibri-30" x="472.265625"/>
     <use xlink:href="#Calibri-30" x="522.949219"/>
     <use xlink:href="#Calibri-30" x="573.632812"/>
     <use xlink:href="#Calibri-20" x="624.316406"/>
     <use xlink:href="#Calibri-49" x="646.923828"/>
     <use xlink:href="#Calibri-6e" x="672.119141"/>
     <use xlink:href="#Calibri-69" x="724.658203"/>
     <use xlink:href="#Calibri-74" x="747.607422"/>
     <use xlink:href="#Calibri-20" x="781.103516"/>
     <use xlink:href="#Calibri-52" x="803.710938"/>
     <use xlink:href="#Calibri-65" x="858.007812"/>
     <use xlink:href="#Calibri-73" x="907.763672"/>
     <use xlink:href="#Calibri-3a" x="946.875"/>
     <use xlink:href="#Calibri-31" x="973.632812"/>
    </g>
   </g>
  </g>
  <g id="axes_4">
   <g id="patch_11">
    <path d="M 24.46 317.36 
L 144.06 317.36 
L 144.06 202.56 
L 24.46 202.56 
z
" style="fill: #ffffff"/>
   </g>
   <g id="matplotlib.axis_7">
    <g id="xtick_10">
     <g id="line2d_40">
      <g>
       <use xlink:href="#mc9cccd5391" x="29.896364" y="317.36" style="stroke: #000000; stroke-width: 0.8"/>
      </g>
     </g>
     <g id="text_28">
      <!-- 0 -->
      <g transform="translate(27.108551 331.841719)scale(0.11 -0.11)">
       <use xlink:href="#Calibri-30"/>
      </g>
     </g>
    </g>
    <g id="xtick_11">
     <g id="line2d_41">
      <g>
       <use xlink:href="#mc9cccd5391" x="102.672316" y="317.36" style="stroke: #000000; stroke-width: 0.8"/>
      </g>
     </g>
     <g id="text_29">
      <!-- 500 -->
      <g transform="translate(94.308878 331.841719)scale(0.11 -0.11)">
       <use xlink:href="#Calibri-35"/>
       <use xlink:href="#Calibri-30" x="50.683594"/>
       <use xlink:href="#Calibri-30" x="101.367188"/>
      </g>
     </g>
    </g>
   </g>
   <g id="matplotlib.axis_8">
    <g id="ytick_13">
     <g id="line2d_42">
      <g>
       <use xlink:href="#m44f88adbfb" x="24.46" y="312.141896" style="stroke: #000000; stroke-width: 0.8"/>
      </g>
     </g>
     <g id="text_30">
      <!-- 0 -->
      <g transform="translate(11.884375 315.882756)scale(0.11 -0.11)">
       <use xlink:href="#Calibri-30"/>
      </g>
     </g>
    </g>
    <g id="ytick_14">
     <g id="line2d_43">
      <g>
       <use xlink:href="#m44f88adbfb" x="24.46" y="279.104101" style="stroke: #000000; stroke-width: 0.8"/>
      </g>
     </g>
     <g id="text_31">
      <!-- 1 -->
      <g transform="translate(11.884375 282.84496)scale(0.11 -0.11)">
       <use xlink:href="#Calibri-31"/>
      </g>
     </g>
    </g>
    <g id="ytick_15">
     <g id="line2d_44">
      <g>
       <use xlink:href="#m44f88adbfb" x="24.46" y="246.066306" style="stroke: #000000; stroke-width: 0.8"/>
      </g>
     </g>
     <g id="text_32">
      <!-- 2 -->
      <g transform="translate(11.884375 249.807165)scale(0.11 -0.11)">
       <use xlink:href="#Calibri-32"/>
      </g>
     </g>
    </g>
    <g id="ytick_16">
     <g id="line2d_45">
      <g>
       <use xlink:href="#m44f88adbfb" x="24.46" y="213.02851" style="stroke: #000000; stroke-width: 0.8"/>
      </g>
     </g>
     <g id="text_33">
      <!-- 3 -->
      <g transform="translate(11.884375 216.76937)scale(0.11 -0.11)">
       <use xlink:href="#Calibri-33"/>
      </g>
     </g>
    </g>
    <g id="text_34">
     <!-- 1e8 -->
     <g transform="translate(24.46 199.56)scale(0.11 -0.11)">
      <use xlink:href="#Calibri-31"/>
      <use xlink:href="#Calibri-65" x="50.683594"/>
      <use xlink:href="#Calibri-38" x="100.439453"/>
     </g>
    </g>
   </g>
   <g id="line2d_46">
    <path d="M 138.623636 317.36 
L 138.623636 202.56 
" clip-path="url(#p51de12cc68)" style="fill: none; stroke: #ff0000; stroke-width: 1.5; stroke-linecap: square"/>
   </g>
   <g id="line2d_47">
    <path d="M 99.324622 317.36 
L 99.324622 202.56 
" clip-path="url(#p51de12cc68)" style="fill: none; stroke-dasharray: 5.55,2.4; stroke-dashoffset: 0; stroke: #0000ff; stroke-width: 1.5"/>
   </g>
   <g id="line2d_48">
    <path d="M 29.896364 279.067673 
L 30.041916 278.925759 
L 30.478571 286.430237 
L 31.060779 291.921729 
L 31.642986 295.361306 
L 31.93409 296.702512 
L 34.117369 282.805253 
L 34.845128 279.800344 
L 35.281784 278.418338 
L 35.71844 285.569498 
L 36.300647 291.077446 
L 37.028407 295.384644 
L 37.319511 296.695929 
L 40.084997 278.692842 
L 40.230549 278.043976 
L 40.667205 284.915198 
L 41.249412 290.423125 
L 41.977172 294.831961 
L 42.413827 296.785035 
L 43.723795 287.134697 
L 44.88821 279.121588 
L 45.179314 277.488589 
L 45.615969 284.236421 
L 46.198177 289.800408 
L 46.925936 294.308896 
L 47.362592 296.305948 
L 48.672559 286.270904 
L 49.836975 277.742495 
L 50.419182 285.756975 
L 51.00139 290.661538 
L 51.729149 294.803053 
L 52.165805 296.67098 
L 53.33022 287.745309 
L 54.640187 277.519089 
L 55.222395 285.41486 
L 55.804603 290.336938 
L 56.532362 294.493175 
L 56.969018 296.367516 
L 58.133433 287.26974 
L 59.297848 277.802817 
L 59.880056 285.405273 
L 60.462264 290.244687 
L 61.190023 294.363484 
L 61.626679 296.227216 
L 62.791094 287.069111 
L 63.955509 277.379656 
L 64.537717 285.003162 
L 65.119925 289.887249 
L 65.847684 294.056059 
L 66.429892 296.506481 
L 67.448755 288.588916 
L 68.758722 277.478114 
L 69.34093 284.969053 
L 69.923137 289.825635 
L 70.650897 293.971629 
L 71.233105 296.417648 
L 72.251968 288.430645 
L 73.561935 277.145591 
L 74.144143 284.670461 
L 74.72635 289.561895 
L 75.45411 293.748017 
L 76.036317 296.213335 
L 77.055181 288.113453 
L 78.365148 276.637157 
L 78.947355 284.244002 
L 79.529563 289.189327 
L 80.257323 293.396131 
L 80.985082 296.389756 
L 82.003945 288.306131 
L 83.313913 276.757269 
L 83.89612 284.134401 
L 84.478328 288.933625 
L 85.206087 292.978996 
L 85.933847 295.789208 
L 86.079399 296.252059 
L 87.098262 288.372549 
L 88.408229 277.171178 
L 88.990437 284.01101 
L 89.572645 288.498486 
L 90.300404 292.284461 
L 91.028164 294.918559 
L 91.464819 296.141824 
L 92.483683 289.284817 
L 94.084754 276.818327 
L 94.666961 283.342045 
L 95.249169 287.677114 
L 95.976928 291.399153 
L 96.704688 294.045386 
L 97.432447 296.045988 
L 98.305759 291.089433 
L 99.470174 283.14798 
L 100.197934 277.594671 
L 100.780141 283.616279 
L 101.362349 287.715788 
L 102.090108 291.304763 
L 102.817868 293.894274 
L 103.691179 296.201849 
L 104.564491 291.656438 
L 105.583354 285.123406 
L 106.602217 277.53745 
L 107.184425 283.292597 
L 107.766633 287.176472 
L 108.494392 290.49279 
L 109.222152 292.768426 
L 109.949911 294.363222 
L 110.677671 295.448597 
L 110.968774 295.757059 
L 111.987638 290.85343 
L 113.152053 283.968152 
L 114.170916 277.100728 
L 114.753124 281.464087 
L 115.335332 284.300962 
L 115.917539 286.181635 
L 116.645299 287.705265 
L 117.373058 288.630468 
L 117.955266 289.05964 
L 118.683025 289.316769 
L 119.410785 289.353014 
L 120.429648 289.139759 
L 121.739615 288.621878 
L 123.63179 287.619099 
L 125.669517 286.309076 
L 132.510456 281.424443 
L 133.820424 280.132106 
L 135.130391 278.511101 
L 136.440358 276.568239 
L 137.750325 274.183999 
L 138.478084 272.674127 
L 138.478084 272.674127 
" clip-path="url(#p51de12cc68)" style="fill: none; stroke: #ff0000; stroke-width: 1.5; stroke-linecap: square"/>
   </g>
   <g id="line2d_49">
    <path d="M 29.896364 278.990211 
L 30.041916 278.755716 
L 30.478571 286.10833 
L 31.060779 291.570292 
L 31.642986 295.052224 
L 32.370746 298.1549 
L 33.244057 300.849331 
L 34.117369 302.868018 
L 35.136232 304.658642 
L 36.155096 306.014823 
L 37.319511 307.18563 
L 38.629478 308.173233 
L 40.084997 308.964789 
L 41.686068 309.549576 
L 43.432691 309.935187 
L 45.615969 310.167937 
L 48.381456 310.220824 
L 50.564734 310.077448 
L 54.349084 309.478416 
L 57.11457 308.857738 
L 59.588952 308.117317 
L 61.335575 307.399793 
L 63.373302 306.316237 
L 65.702132 304.804729 
L 69.777585 302.098774 
L 79.675115 296.371233 
L 81.276186 295.095215 
L 83.022809 293.407793 
L 84.769432 291.420287 
L 87.389366 288.516435 
L 90.445956 285.159599 
L 92.483683 282.585841 
L 95.394721 278.299743 
L 98.451311 273.710072 
L 102.381212 267.42096 
L 104.855594 263.867942 
L 107.621081 260.28651 
L 110.677671 256.286759 
L 112.569845 253.382415 
L 114.607572 249.83558 
L 117.081954 245.040799 
L 123.777342 231.747458 
L 128.726107 222.631488 
L 131.200489 218.522964 
L 134.984839 212.541987 
L 137.459221 209.148008 
L 138.478084 207.778182 
L 138.478084 207.778182 
" clip-path="url(#p51de12cc68)" style="fill: none; stroke-dasharray: 5.55,2.4; stroke-dashoffset: 0; stroke: #0000ff; stroke-width: 1.5"/>
   </g>
   <g id="line2d_50">
    <path d="M 29.896364 312.141818 
L 56.677914 312.03191 
L 62.791094 311.871201 
L 81.130634 311.591747 
L 84.769432 311.086622 
L 86.224951 310.572686 
L 87.971574 309.91729 
L 90.0093 309.256153 
L 93.502546 307.808103 
L 95.976928 307.2207 
L 98.451311 306.582424 
L 100.197934 306.414462 
L 102.381212 306.194967 
L 105.728906 305.667358 
L 107.912184 305.162021 
L 109.0766 304.625616 
L 110.241015 303.850646 
L 111.40543 302.781157 
L 116.063091 297.860961 
L 121.594064 290.721491 
L 123.486238 288.815916 
L 126.397276 286.243883 
L 129.599418 283.793226 
L 132.364904 281.609765 
L 133.674872 280.328702 
L 134.984839 278.729505 
L 136.294806 276.820049 
L 137.604773 274.47969 
L 138.478084 272.681117 
L 138.478084 272.681117 
" clip-path="url(#p51de12cc68)" style="fill: none; stroke-dasharray: 1.5,2.475; stroke-dashoffset: 0; stroke: #ff0000; stroke-width: 1.5"/>
   </g>
   <g id="line2d_51">
    <path d="M 29.896364 312.121457 
L 34.99068 312.013123 
L 37.756166 311.735454 
L 53.039116 309.788485 
L 56.532362 309.033396 
L 59.297848 308.231076 
L 61.190023 307.476421 
L 63.373302 306.320222 
L 65.702132 304.806658 
L 69.777585 302.099257 
L 79.675115 296.371256 
L 81.276186 295.095231 
L 83.022809 293.407802 
L 84.769432 291.420291 
L 87.389366 288.516436 
L 90.445956 285.1596 
L 92.483683 282.585841 
L 95.394721 278.299743 
L 98.451311 273.710072 
L 102.381212 267.42096 
L 104.855594 263.867942 
L 107.621081 260.28651 
L 110.677671 256.286759 
L 112.569845 253.382415 
L 114.607572 249.83558 
L 117.081954 245.040799 
L 123.777342 231.747458 
L 128.726107 222.631488 
L 131.200489 218.522964 
L 134.984839 212.541987 
L 137.459221 209.148008 
L 138.478084 207.778182 
L 138.478084 207.778182 
" clip-path="url(#p51de12cc68)" style="fill: none; stroke-dasharray: 1.5,2.475; stroke-dashoffset: 0; stroke: #0000ff; stroke-width: 1.5"/>
   </g>
   <g id="patch_12">
    <path d="M 24.46 317.36 
L 24.46 202.56 
" style="fill: none; stroke: #000000; stroke-linejoin: miter; stroke-linecap: square"/>
   </g>
   <g id="patch_13">
    <path d="M 24.46 317.36 
L 144.06 317.36 
" style="fill: none; stroke: #000000; stroke-linejoin: miter; stroke-linecap: square"/>
   </g>
   <g id="text_35">
    <!-- Init Sens:100 Init Res:10 -->
    <g transform="translate(30.705469 196.56)scale(0.11 -0.11)">
     <use xlink:href="#Calibri-49"/>
     <use xlink:href="#Calibri-6e" x="25.195312"/>
     <use xlink:href="#Calibri-69" x="77.734375"/>
     <use xlink:href="#Calibri-74" x="100.683594"/>
     <use xlink:href="#Calibri-20" x="134.179688"/>
     <use xlink:href="#Calibri-53" x="156.787109"/>
     <use xlink:href="#Calibri-65" x="202.734375"/>
     <use xlink:href="#Calibri-6e" x="252.490234"/>
     <use xlink:href="#Calibri-73" x="305.029297"/>
     <use xlink:href="#Calibri-3a" x="344.140625"/>
     <use xlink:href="#Calibri-31" x="370.898438"/>
     <use xlink:href="#Calibri-30" x="421.582031"/>
     <use xlink:href="#Calibri-30" x="472.265625"/>
     <use xlink:href="#Calibri-20" x="522.949219"/>
     <use xlink:href="#Calibri-49" x="545.556641"/>
     <use xlink:href="#Calibri-6e" x="570.751953"/>
     <use xlink:href="#Calibri-69" x="623.291016"/>
     <use xlink:href="#Calibri-74" x="646.240234"/>
     <use xlink:href="#Calibri-20" x="679.736328"/>
     <use xlink:href="#Calibri-52" x="702.34375"/>
     <use xlink:href="#Calibri-65" x="756.640625"/>
     <use xlink:href="#Calibri-73" x="806.396484"/>
     <use xlink:href="#Calibri-3a" x="845.507812"/>
     <use xlink:href="#Calibri-31" x="872.265625"/>
     <use xlink:href="#Calibri-30" x="922.949219"/>
    </g>
   </g>
  </g>
  <g id="axes_5">
   <g id="patch_14">
    <path d="M 176.89 317.36 
L 296.49 317.36 
L 296.49 202.56 
L 176.89 202.56 
z
" style="fill: #ffffff"/>
   </g>
   <g id="matplotlib.axis_9">
    <g id="xtick_12">
     <g id="line2d_52">
      <g>
       <use xlink:href="#mc9cccd5391" x="182.326364" y="317.36" style="stroke: #000000; stroke-width: 0.8"/>
      </g>
     </g>
     <g id="text_36">
      <!-- 0 -->
      <g transform="translate(179.538551 331.841719)scale(0.11 -0.11)">
       <use xlink:href="#Calibri-30"/>
      </g>
     </g>
    </g>
    <g id="xtick_13">
     <g id="line2d_53">
      <g>
       <use xlink:href="#mc9cccd5391" x="251.579404" y="317.36" style="stroke: #000000; stroke-width: 0.8"/>
      </g>
     </g>
     <g id="text_37">
      <!-- 100 -->
      <g transform="translate(243.215966 331.841719)scale(0.11 -0.11)">
       <use xlink:href="#Calibri-31"/>
       <use xlink:href="#Calibri-30" x="50.683594"/>
       <use xlink:href="#Calibri-30" x="101.367188"/>
      </g>
     </g>
    </g>
   </g>
   <g id="matplotlib.axis_10">
    <g id="ytick_17">
     <g id="line2d_54">
      <g>
       <use xlink:href="#m44f88adbfb" x="176.89" y="281.380424" style="stroke: #000000; stroke-width: 0.8"/>
      </g>
     </g>
     <g id="text_38">
      <!-- 0.5 -->
      <g transform="translate(155.96125 285.121283)scale(0.11 -0.11)">
       <defs>
        <path id="Calibri-2e" d="M 1144 341 
Q 1144 119 1070 45 
Q 997 -28 803 -28 
Q 616 -28 544 44 
Q 472 116 472 331 
Q 472 553 545 626 
Q 619 700 813 700 
Q 1000 700 1072 628 
Q 1144 556 1144 341 
z
" transform="scale(0.015625)"/>
       </defs>
       <use xlink:href="#Calibri-30"/>
       <use xlink:href="#Calibri-2e" x="50.683594"/>
       <use xlink:href="#Calibri-35" x="75.927734"/>
      </g>
     </g>
    </g>
    <g id="ytick_18">
     <g id="line2d_55">
      <g>
       <use xlink:href="#m44f88adbfb" x="176.89" y="242.795103" style="stroke: #000000; stroke-width: 0.8"/>
      </g>
     </g>
     <g id="text_39">
      <!-- 1.0 -->
      <g transform="translate(155.96125 246.535963)scale(0.11 -0.11)">
       <use xlink:href="#Calibri-31"/>
       <use xlink:href="#Calibri-2e" x="50.683594"/>
       <use xlink:href="#Calibri-30" x="75.927734"/>
      </g>
     </g>
    </g>
    <g id="ytick_19">
     <g id="line2d_56">
      <g>
       <use xlink:href="#m44f88adbfb" x="176.89" y="204.209783" style="stroke: #000000; stroke-width: 0.8"/>
      </g>
     </g>
     <g id="text_40">
      <!-- 1.5 -->
      <g transform="translate(155.96125 207.950642)scale(0.11 -0.11)">
       <use xlink:href="#Calibri-31"/>
       <use xlink:href="#Calibri-2e" x="50.683594"/>
       <use xlink:href="#Calibri-35" x="75.927734"/>
      </g>
     </g>
    </g>
    <g id="text_41">
     <!-- 1e8 -->
     <g transform="translate(176.89 199.56)scale(0.11 -0.11)">
      <use xlink:href="#Calibri-31"/>
      <use xlink:href="#Calibri-65" x="50.683594"/>
      <use xlink:href="#Calibri-38" x="100.439453"/>
     </g>
    </g>
   </g>
   <g id="line2d_57">
    <path d="M 264.737481 317.36 
L 264.737481 202.56 
" clip-path="url(#pcd30046ea1)" style="fill: none; stroke: #ff0000; stroke-width: 1.5; stroke-linecap: square"/>
   </g>
   <g id="line2d_58">
    <path d="M 291.053636 317.36 
L 291.053636 202.56 
" clip-path="url(#pcd30046ea1)" style="fill: none; stroke-dasharray: 5.55,2.4; stroke-dashoffset: 0; stroke: #0000ff; stroke-width: 1.5"/>
   </g>
   <g id="line2d_59">
    <path d="M 182.326364 242.607713 
L 183.018894 242.116986 
L 183.711424 247.468068 
L 184.403955 251.748896 
L 185.096485 255.23086 
L 186.481546 260.567357 
L 187.866607 264.455467 
L 189.251668 267.44582 
L 190.636728 269.801563 
L 192.021789 271.665964 
L 193.40685 273.130332 
L 194.791911 274.27323 
L 196.176972 275.127703 
L 197.562032 275.742559 
L 198.947093 276.155791 
L 200.332154 276.386458 
L 201.717215 276.457424 
L 203.794806 276.292668 
L 205.872397 275.850061 
L 207.949988 275.171563 
L 210.02758 274.281138 
L 212.797701 272.822579 
L 215.567823 271.117028 
L 219.030475 268.693839 
L 222.493127 266.023414 
L 226.648309 262.535354 
L 231.496022 258.104026 
L 237.728796 252.110185 
L 250.194343 239.991847 
L 259.889768 231.201025 
L 264.737481 227.011022 
L 268.892664 223.683681 
L 273.740376 220.076442 
L 288.283515 209.377913 
L 290.361106 207.778182 
L 290.361106 207.778182 
" clip-path="url(#pcd30046ea1)" style="fill: none; stroke: #ff0000; stroke-width: 1.5; stroke-linecap: square"/>
   </g>
   <g id="line2d_60">
    <path d="M 182.326364 242.468084 
L 183.018894 241.909318 
L 183.711424 248.099389 
L 184.403955 253.085397 
L 185.096485 257.172508 
L 186.481546 263.50324 
L 187.866607 268.219088 
L 189.251668 271.911727 
L 190.636728 274.900742 
L 192.021789 277.342644 
L 193.40685 279.347954 
L 194.791911 280.988178 
L 196.176972 282.319346 
L 197.562032 283.395021 
L 198.947093 284.249458 
L 200.332154 284.90383 
L 202.409745 285.571192 
L 204.487336 285.918887 
L 206.564928 285.980778 
L 208.642519 285.794081 
L 210.72011 285.408633 
L 213.490232 284.651194 
L 216.952884 283.424118 
L 220.415536 281.956248 
L 223.878188 280.264453 
L 227.34084 278.325036 
L 231.496022 275.698386 
L 236.343735 272.352273 
L 242.576508 267.716684 
L 246.731691 264.420522 
L 251.579404 260.238035 
L 262.65989 250.48962 
L 273.740376 241.070333 
L 287.590984 229.676545 
L 290.361106 227.430369 
L 290.361106 227.430369 
" clip-path="url(#pcd30046ea1)" style="fill: none; stroke-dasharray: 5.55,2.4; stroke-dashoffset: 0; stroke: #0000ff; stroke-width: 1.5"/>
   </g>
   <g id="line2d_61">
    <path d="M 182.326364 303.116966 
L 184.403955 302.700293 
L 185.789016 302.202981 
L 187.866607 301.201523 
L 189.944198 299.989169 
L 192.71432 298.113846 
L 196.176972 295.436207 
L 199.639624 292.466796 
L 203.794806 288.620545 
L 209.335049 283.124956 
L 217.645414 274.472026 
L 232.881083 258.320155 
L 243.961569 246.570124 
L 249.501812 241.032885 
L 255.734586 235.195597 
L 262.65989 228.899062 
L 267.507603 224.851133 
L 272.355316 221.144766 
L 290.361106 207.79066 
L 290.361106 207.79066 
" clip-path="url(#pcd30046ea1)" style="fill: none; stroke-dasharray: 1.5,2.475; stroke-dashoffset: 0; stroke: #ff0000; stroke-width: 1.5"/>
   </g>
   <g id="line2d_62">
    <path d="M 182.326364 312.141818 
L 184.403955 311.952016 
L 186.481546 311.460805 
L 188.559137 310.741998 
L 191.329259 309.51771 
L 194.09938 308.030583 
L 196.869502 306.313657 
L 200.332154 303.892957 
L 204.487336 300.677679 
L 209.335049 296.606052 
L 219.030475 288.344601 
L 238.421326 272.316345 
L 248.116752 263.984734 
L 255.734586 256.917557 
L 261.274829 251.935543 
L 273.047846 241.746478 
L 284.820863 231.975391 
L 290.361106 227.453578 
L 290.361106 227.453578 
" clip-path="url(#pcd30046ea1)" style="fill: none; stroke-dasharray: 1.5,2.475; stroke-dashoffset: 0; stroke: #0000ff; stroke-width: 1.5"/>
   </g>
   <g id="patch_15">
    <path d="M 176.89 317.36 
L 176.89 202.56 
" style="fill: none; stroke: #000000; stroke-linejoin: miter; stroke-linecap: square"/>
   </g>
   <g id="patch_16">
    <path d="M 176.89 317.36 
L 296.49 317.36 
" style="fill: none; stroke: #000000; stroke-linejoin: miter; stroke-linecap: square"/>
   </g>
   <g id="text_42">
    <!-- Init Sens:1000 Init Res:10 -->
    <g transform="translate(180.347656 196.56)scale(0.11 -0.11)">
     <use xlink:href="#Calibri-49"/>
     <use xlink:href="#Calibri-6e" x="25.195312"/>
     <use xlink:href="#Calibri-69" x="77.734375"/>
     <use xlink:href="#Calibri-74" x="100.683594"/>
     <use xlink:href="#Calibri-20" x="134.179688"/>
     <use xlink:href="#Calibri-53" x="156.787109"/>
     <use xlink:href="#Calibri-65" x="202.734375"/>
     <use xlink:href="#Calibri-6e" x="252.490234"/>
     <use xlink:href="#Calibri-73" x="305.029297"/>
     <use xlink:href="#Calibri-3a" x="344.140625"/>
     <use xlink:href="#Calibri-31" x="370.898438"/>
     <use xlink:href="#Calibri-30" x="421.582031"/>
     <use xlink:href="#Calibri-30" x="472.265625"/>
     <use xlink:href="#Calibri-30" x="522.949219"/>
     <use xlink:href="#Calibri-20" x="573.632812"/>
     <use xlink:href="#Calibri-49" x="596.240234"/>
     <use xlink:href="#Calibri-6e" x="621.435547"/>
     <use xlink:href="#Calibri-69" x="673.974609"/>
     <use xlink:href="#Calibri-74" x="696.923828"/>
     <use xlink:href="#Calibri-20" x="730.419922"/>
     <use xlink:href="#Calibri-52" x="753.027344"/>
     <use xlink:href="#Calibri-65" x="807.324219"/>
     <use xlink:href="#Calibri-73" x="857.080078"/>
     <use xlink:href="#Calibri-3a" x="896.191406"/>
     <use xlink:href="#Calibri-31" x="922.949219"/>
     <use xlink:href="#Calibri-30" x="973.632812"/>
    </g>
   </g>
  </g>
  <g id="axes_6">
   <g id="patch_17">
    <path d="M 329.32 317.36 
L 448.92 317.36 
L 448.92 202.56 
L 329.32 202.56 
z
" style="fill: #ffffff"/>
   </g>
   <g id="matplotlib.axis_11">
    <g id="xtick_14">
     <g id="line2d_63">
      <g>
       <use xlink:href="#mc9cccd5391" x="334.756364" y="317.36" style="stroke: #000000; stroke-width: 0.8"/>
      </g>
     </g>
     <g id="text_43">
      <!-- 0 -->
      <g transform="translate(331.968551 331.841719)scale(0.11 -0.11)">
       <use xlink:href="#Calibri-30"/>
      </g>
     </g>
    </g>
    <g id="xtick_15">
     <g id="line2d_64">
      <g>
       <use xlink:href="#mc9cccd5391" x="410.68323" y="317.36" style="stroke: #000000; stroke-width: 0.8"/>
      </g>
     </g>
     <g id="text_44">
      <!-- 500 -->
      <g transform="translate(402.319793 331.841719)scale(0.11 -0.11)">
       <use xlink:href="#Calibri-35"/>
       <use xlink:href="#Calibri-30" x="50.683594"/>
       <use xlink:href="#Calibri-30" x="101.367188"/>
      </g>
     </g>
    </g>
   </g>
   <g id="matplotlib.axis_12">
    <g id="ytick_20">
     <g id="line2d_65">
      <g>
       <use xlink:href="#m44f88adbfb" x="329.32" y="312.142121" style="stroke: #000000; stroke-width: 0.8"/>
      </g>
     </g>
     <g id="text_45">
      <!-- 0.0 -->
      <g transform="translate(308.39125 315.882981)scale(0.11 -0.11)">
       <use xlink:href="#Calibri-30"/>
       <use xlink:href="#Calibri-2e" x="50.683594"/>
       <use xlink:href="#Calibri-30" x="75.927734"/>
      </g>
     </g>
    </g>
    <g id="ytick_21">
     <g id="line2d_66">
      <g>
       <use xlink:href="#m44f88adbfb" x="329.32" y="286.361788" style="stroke: #000000; stroke-width: 0.8"/>
      </g>
     </g>
     <g id="text_46">
      <!-- 0.5 -->
      <g transform="translate(308.39125 290.102648)scale(0.11 -0.11)">
       <use xlink:href="#Calibri-30"/>
       <use xlink:href="#Calibri-2e" x="50.683594"/>
       <use xlink:href="#Calibri-35" x="75.927734"/>
      </g>
     </g>
    </g>
    <g id="ytick_22">
     <g id="line2d_67">
      <g>
       <use xlink:href="#m44f88adbfb" x="329.32" y="260.581456" style="stroke: #000000; stroke-width: 0.8"/>
      </g>
     </g>
     <g id="text_47">
      <!-- 1.0 -->
      <g transform="translate(308.39125 264.322315)scale(0.11 -0.11)">
       <use xlink:href="#Calibri-31"/>
       <use xlink:href="#Calibri-2e" x="50.683594"/>
       <use xlink:href="#Calibri-30" x="75.927734"/>
      </g>
     </g>
    </g>
    <g id="ytick_23">
     <g id="line2d_68">
      <g>
       <use xlink:href="#m44f88adbfb" x="329.32" y="234.801123" style="stroke: #000000; stroke-width: 0.8"/>
      </g>
     </g>
     <g id="text_48">
      <!-- 1.5 -->
      <g transform="translate(308.39125 238.541982)scale(0.11 -0.11)">
       <use xlink:href="#Calibri-31"/>
       <use xlink:href="#Calibri-2e" x="50.683594"/>
       <use xlink:href="#Calibri-35" x="75.927734"/>
      </g>
     </g>
    </g>
    <g id="ytick_24">
     <g id="line2d_69">
      <g>
       <use xlink:href="#m44f88adbfb" x="329.32" y="209.02079" style="stroke: #000000; stroke-width: 0.8"/>
      </g>
     </g>
     <g id="text_49">
      <!-- 2.0 -->
      <g transform="translate(308.39125 212.761649)scale(0.11 -0.11)">
       <use xlink:href="#Calibri-32"/>
       <use xlink:href="#Calibri-2e" x="50.683594"/>
       <use xlink:href="#Calibri-30" x="75.927734"/>
      </g>
     </g>
    </g>
    <g id="text_50">
     <!-- 1e8 -->
     <g transform="translate(329.32 199.56)scale(0.11 -0.11)">
      <use xlink:href="#Calibri-31"/>
      <use xlink:href="#Calibri-65" x="50.683594"/>
      <use xlink:href="#Calibri-38" x="100.439453"/>
     </g>
    </g>
   </g>
   <g id="line2d_70">
    <path d="M 443.483636 317.36 
L 443.483636 202.56 
" clip-path="url(#pee83501e05)" style="fill: none; stroke: #ff0000; stroke-width: 1.5; stroke-linecap: square"/>
   </g>
   <g id="line2d_71">
    <path d="M 430.120508 317.36 
L 430.120508 202.56 
" clip-path="url(#pee83501e05)" style="fill: none; stroke-dasharray: 5.55,2.4; stroke-dashoffset: 0; stroke: #0000ff; stroke-width: 1.5"/>
   </g>
   <g id="line2d_72">
    <path d="M 334.756364 260.553321 
L 334.908217 260.216383 
L 335.363779 271.709824 
L 335.971193 280.226683 
L 336.578608 285.629197 
L 336.882316 287.746127 
L 339.463829 262.96086 
L 340.071244 259.044524 
L 340.526805 269.908165 
L 341.13422 278.524571 
L 341.741635 284.244642 
L 342.197197 287.495874 
L 343.715734 270.771983 
L 344.77871 260.300903 
L 344.930564 259.044019 
L 345.386125 269.316738 
L 345.99354 277.836949 
L 346.600955 283.600979 
L 347.20837 287.843583 
L 348.4232 274.239262 
L 349.789883 259.249034 
L 349.941737 257.835012 
L 350.397298 268.119783 
L 351.004713 276.814613 
L 351.612128 282.713765 
L 352.371397 287.981426 
L 353.586227 274.13686 
L 354.95291 258.307608 
L 355.560325 270.618267 
L 356.16774 278.307069 
L 356.927009 284.800457 
L 357.38257 287.721595 
L 358.5974 273.627418 
L 359.964083 257.285277 
L 360.571498 269.710064 
L 361.178913 277.517043 
L 361.938182 284.10915 
L 362.545597 287.956538 
L 363.608573 275.768365 
L 365.12711 257.162042 
L 365.734525 269.423464 
L 366.34194 277.223011 
L 367.101209 283.824717 
L 367.708624 287.697488 
L 368.7716 275.389037 
L 370.138283 258.228889 
L 370.745698 269.938666 
L 371.353113 277.516819 
L 372.112382 283.986486 
L 372.719797 287.791296 
L 373.782773 275.457233 
L 375.149457 258.087168 
L 375.756872 269.745022 
L 376.364286 277.314248 
L 377.123555 283.783803 
L 377.73097 287.589809 
L 378.793946 275.129272 
L 380.16063 257.553681 
L 380.768045 269.257467 
L 381.37546 276.848035 
L 382.134728 283.304918 
L 382.893997 287.871915 
L 383.956973 275.486518 
L 385.323657 257.883959 
L 385.931072 269.173309 
L 386.538487 276.519258 
L 387.297755 282.72035 
L 388.057024 287.049244 
L 388.208878 287.759542 
L 389.271854 275.911635 
L 390.790391 257.021056 
L 391.397806 268.031414 
L 392.005221 275.196493 
L 392.76449 281.221059 
L 393.523758 285.419957 
L 393.979319 287.383665 
L 395.042296 276.79323 
L 396.712687 257.52814 
L 397.320102 267.734153 
L 397.927517 274.512547 
L 398.686785 280.321018 
L 399.446054 284.457092 
L 400.053469 287.013188 
L 400.964591 279.076685 
L 402.179421 266.418808 
L 402.93869 257.716341 
L 403.546105 267.400023 
L 404.15352 273.933879 
L 404.912788 279.601544 
L 405.672057 283.671467 
L 406.583179 287.272214 
L 407.494302 280.148695 
L 408.557278 270.004013 
L 409.620254 258.320002 
L 410.227669 267.336957 
L 410.835084 273.410878 
L 411.594352 278.586784 
L 412.353621 282.143958 
L 413.11289 284.655956 
L 413.872158 286.399574 
L 414.024012 286.669028 
L 414.935135 280.273743 
L 415.998111 271.267777 
L 417.364794 257.880213 
L 417.972209 265.060411 
L 418.579624 269.828442 
L 419.187039 273.07501 
L 419.794454 275.327995 
L 420.401869 276.880454 
L 421.009284 277.892742 
L 421.616699 278.506372 
L 422.224114 278.808589 
L 422.831529 278.874316 
L 423.438944 278.748957 
L 424.198212 278.344465 
L 425.109335 277.578189 
L 427.538994 275.066277 
L 429.968654 272.270342 
L 437.10578 263.541133 
L 439.079878 260.399894 
L 440.294708 258.08956 
L 441.661392 254.921601 
L 443.179929 250.83485 
L 443.331783 250.398299 
L 443.331783 250.398299 
" clip-path="url(#pee83501e05)" style="fill: none; stroke: #ff0000; stroke-width: 1.5; stroke-linecap: square"/>
   </g>
   <g id="line2d_73">
    <path d="M 334.756364 260.244494 
L 334.908217 259.874267 
L 335.363779 271.369999 
L 335.971193 279.905948 
L 336.578608 285.337881 
L 337.337877 290.182643 
L 338.248999 294.407939 
L 339.160122 297.59525 
L 340.223098 300.473778 
L 341.286074 302.723885 
L 342.500904 304.734994 
L 343.715734 306.312676 
L 344.930564 307.553971 
L 346.297247 308.625546 
L 347.663931 309.419406 
L 349.182468 310.013319 
L 351.460274 310.622889 
L 353.889934 311.070992 
L 356.927009 311.387902 
L 360.723352 311.550987 
L 365.12711 311.527393 
L 368.012331 311.302117 
L 369.834576 310.958062 
L 371.504967 310.403598 
L 373.782773 309.392483 
L 377.73097 307.574904 
L 382.893997 305.430615 
L 385.779218 304.621798 
L 388.360731 304.137797 
L 391.853367 303.496826 
L 393.523758 302.958667 
L 394.738588 302.363722 
L 395.801564 301.63201 
L 396.86454 300.642541 
L 398.231224 299.045193 
L 399.901615 296.739036 
L 402.331275 292.946017 
L 406.127618 286.933257 
L 409.012839 282.905725 
L 413.568451 276.870608 
L 415.694403 274.485969 
L 420.098162 269.77878 
L 421.768553 267.563004 
L 423.590797 264.806883 
L 424.957481 262.30168 
L 426.627872 258.768029 
L 428.450117 254.407149 
L 429.8168 250.568554 
L 431.487191 245.167224 
L 437.409487 225.363113 
L 443.331783 207.778182 
L 443.331783 207.778182 
" clip-path="url(#pee83501e05)" style="fill: none; stroke-dasharray: 5.55,2.4; stroke-dashoffset: 0; stroke: #0000ff; stroke-width: 1.5"/>
   </g>
   <g id="line2d_74">
    <path d="M 334.756364 312.141818 
L 357.078862 312.034816 
L 367.101209 311.697867 
L 382.134728 311.29875 
L 383.956973 310.921814 
L 387.145901 310.118251 
L 388.512585 309.426257 
L 390.031122 308.727033 
L 392.308928 307.807076 
L 395.801564 305.796195 
L 400.205322 304.277822 
L 401.875714 303.777547 
L 409.012839 301.983962 
L 410.68323 301.422607 
L 411.746206 300.782031 
L 412.961036 299.752952 
L 414.024012 298.579064 
L 419.946308 290.797704 
L 421.464845 288.079461 
L 425.109335 280.956087 
L 426.779726 277.894078 
L 428.905678 274.574075 
L 431.639045 270.676561 
L 433.764997 268.013816 
L 436.042803 265.152263 
L 437.713195 262.67401 
L 439.687293 259.338106 
L 440.902123 256.758798 
L 442.42066 252.962828 
L 443.331783 250.406594 
L 443.331783 250.406594 
" clip-path="url(#pee83501e05)" style="fill: none; stroke-dasharray: 1.5,2.475; stroke-dashoffset: 0; stroke: #ff0000; stroke-width: 1.5"/>
   </g>
   <g id="line2d_75">
    <path d="M 334.756364 312.141602 
L 347.20837 312.030374 
L 355.408471 311.680949 
L 365.430818 311.544764 
L 368.164185 311.295426 
L 369.98643 310.926113 
L 371.656821 310.348617 
L 373.934627 309.32051 
L 377.73097 307.57568 
L 382.893997 305.430769 
L 385.779218 304.621875 
L 388.360731 304.137833 
L 391.853367 303.496838 
L 393.523758 302.958673 
L 394.738588 302.363727 
L 395.801564 301.632016 
L 396.86454 300.642543 
L 398.231224 299.045195 
L 399.901615 296.739036 
L 402.331275 292.946017 
L 406.127618 286.933257 
L 409.012839 282.905725 
L 413.568451 276.870608 
L 415.694403 274.485969 
L 420.098162 269.77878 
L 421.768553 267.563004 
L 423.590797 264.806883 
L 424.957481 262.30168 
L 426.627872 258.768029 
L 428.450117 254.407149 
L 429.8168 250.568554 
L 431.487191 245.167224 
L 437.409487 225.363113 
L 443.331783 207.778182 
L 443.331783 207.778182 
" clip-path="url(#pee83501e05)" style="fill: none; stroke-dasharray: 1.5,2.475; stroke-dashoffset: 0; stroke: #0000ff; stroke-width: 1.5"/>
   </g>
   <g id="patch_18">
    <path d="M 329.32 317.36 
L 329.32 202.56 
" style="fill: none; stroke: #000000; stroke-linejoin: miter; stroke-linecap: square"/>
   </g>
   <g id="patch_19">
    <path d="M 329.32 317.36 
L 448.92 317.36 
" style="fill: none; stroke: #000000; stroke-linejoin: miter; stroke-linecap: square"/>
   </g>
   <g id="text_51">
    <!-- Init Sens:10000 Init Res:10 -->
    <g transform="translate(329.989844 196.56)scale(0.11 -0.11)">
     <use xlink:href="#Calibri-49"/>
     <use xlink:href="#Calibri-6e" x="25.195312"/>
     <use xlink:href="#Calibri-69" x="77.734375"/>
     <use xlink:href="#Calibri-74" x="100.683594"/>
     <use xlink:href="#Calibri-20" x="134.179688"/>
     <use xlink:href="#Calibri-53" x="156.787109"/>
     <use xlink:href="#Calibri-65" x="202.734375"/>
     <use xlink:href="#Calibri-6e" x="252.490234"/>
     <use xlink:href="#Calibri-73" x="305.029297"/>
     <use xlink:href="#Calibri-3a" x="344.140625"/>
     <use xlink:href="#Calibri-31" x="370.898438"/>
     <use xlink:href="#Calibri-30" x="421.582031"/>
     <use xlink:href="#Calibri-30" x="472.265625"/>
     <use xlink:href="#Calibri-30" x="522.949219"/>
     <use xlink:href="#Calibri-30" x="573.632812"/>
     <use xlink:href="#Calibri-20" x="624.316406"/>
     <use xlink:href="#Calibri-49" x="646.923828"/>
     <use xlink:href="#Calibri-6e" x="672.119141"/>
     <use xlink:href="#Calibri-69" x="724.658203"/>
     <use xlink:href="#Calibri-74" x="747.607422"/>
     <use xlink:href="#Calibri-20" x="781.103516"/>
     <use xlink:href="#Calibri-52" x="803.710938"/>
     <use xlink:href="#Calibri-65" x="858.007812"/>
     <use xlink:href="#Calibri-73" x="907.763672"/>
     <use xlink:href="#Calibri-3a" x="946.875"/>
     <use xlink:href="#Calibri-31" x="973.632812"/>
     <use xlink:href="#Calibri-30" x="1024.316406"/>
    </g>
   </g>
  </g>
  <g id="text_52">
   <!-- detectionSize_100000000 -->
   <g transform="translate(172.445469 14.388562)scale(0.11 -0.11)">
    <defs>
     <path id="Calibri-64" d="M 2888 78 
Q 2888 53 2877 34 
Q 2866 16 2839 5 
Q 2813 -6 2769 -12 
Q 2725 -19 2663 -19 
Q 2597 -19 2553 -12 
Q 2509 -6 2481 5 
Q 2453 16 2440 34 
Q 2428 53 2428 78 
L 2428 450 
Q 2206 209 1967 75 
Q 1728 -59 1444 -59 
Q 1134 -59 915 61 
Q 697 181 561 386 
Q 425 591 362 867 
Q 300 1144 300 1450 
Q 300 1813 378 2105 
Q 456 2397 609 2603 
Q 763 2809 989 2920 
Q 1216 3031 1513 3031 
Q 1759 3031 1964 2923 
Q 2169 2816 2369 2606 
L 2369 4241 
Q 2369 4263 2380 4283 
Q 2391 4303 2422 4314 
Q 2453 4325 2501 4333 
Q 2550 4341 2625 4341 
Q 2703 4341 2753 4333 
Q 2803 4325 2831 4314 
Q 2859 4303 2873 4283 
Q 2888 4263 2888 4241 
L 2888 78 
z
M 2369 2056 
Q 2159 2316 1964 2452 
Q 1769 2588 1556 2588 
Q 1359 2588 1221 2494 
Q 1084 2400 998 2247 
Q 913 2094 873 1900 
Q 834 1706 834 1506 
Q 834 1294 867 1091 
Q 900 888 981 730 
Q 1063 572 1197 476 
Q 1331 381 1534 381 
Q 1638 381 1733 409 
Q 1828 438 1928 503 
Q 2028 569 2137 673 
Q 2247 778 2369 931 
L 2369 2056 
z
" transform="scale(0.015625)"/>
     <path id="Calibri-63" d="M 2500 506 
Q 2500 453 2497 414 
Q 2494 375 2486 348 
Q 2478 322 2467 301 
Q 2456 281 2417 242 
Q 2378 203 2284 145 
Q 2191 88 2073 42 
Q 1956 -3 1818 -31 
Q 1681 -59 1534 -59 
Q 1231 -59 997 41 
Q 763 141 605 333 
Q 447 525 364 804 
Q 281 1084 281 1450 
Q 281 1866 382 2164 
Q 484 2463 661 2653 
Q 838 2844 1077 2936 
Q 1316 3028 1594 3028 
Q 1728 3028 1854 3003 
Q 1981 2978 2087 2937 
Q 2194 2897 2276 2844 
Q 2359 2791 2396 2753 
Q 2434 2716 2448 2694 
Q 2463 2672 2472 2642 
Q 2481 2613 2484 2575 
Q 2488 2538 2488 2481 
Q 2488 2359 2459 2311 
Q 2431 2263 2391 2263 
Q 2344 2263 2283 2314 
Q 2222 2366 2128 2428 
Q 2034 2491 1901 2542 
Q 1769 2594 1588 2594 
Q 1216 2594 1017 2308 
Q 819 2022 819 1478 
Q 819 1206 870 1001 
Q 922 797 1022 659 
Q 1122 522 1267 455 
Q 1413 388 1600 388 
Q 1778 388 1912 444 
Q 2047 500 2145 567 
Q 2244 634 2311 689 
Q 2378 744 2416 744 
Q 2438 744 2453 731 
Q 2469 719 2480 689 
Q 2491 659 2495 614 
Q 2500 569 2500 506 
z
" transform="scale(0.015625)"/>
     <path id="Calibri-6f" d="M 3094 1516 
Q 3094 1172 3003 883 
Q 2913 594 2733 384 
Q 2553 175 2283 58 
Q 2013 -59 1656 -59 
Q 1309 -59 1051 44 
Q 794 147 622 344 
Q 450 541 365 822 
Q 281 1103 281 1459 
Q 281 1803 370 2092 
Q 459 2381 639 2590 
Q 819 2800 1087 2915 
Q 1356 3031 1716 3031 
Q 2063 3031 2320 2928 
Q 2578 2825 2750 2628 
Q 2922 2431 3008 2150 
Q 3094 1869 3094 1516 
z
M 2550 1481 
Q 2550 1709 2508 1912 
Q 2466 2116 2369 2269 
Q 2272 2422 2106 2511 
Q 1941 2600 1694 2600 
Q 1466 2600 1302 2519 
Q 1138 2438 1031 2289 
Q 925 2141 873 1937 
Q 822 1734 822 1494 
Q 822 1263 864 1059 
Q 906 856 1004 704 
Q 1103 553 1268 464 
Q 1434 375 1681 375 
Q 1906 375 2072 456 
Q 2238 538 2344 684 
Q 2450 831 2500 1034 
Q 2550 1238 2550 1481 
z
" transform="scale(0.015625)"/>
     <path id="Calibri-7a" d="M 2272 219 
Q 2272 159 2262 117 
Q 2253 75 2240 48 
Q 2228 22 2206 11 
Q 2184 0 2159 0 
L 428 0 
Q 363 0 320 44 
Q 278 88 278 191 
L 278 297 
Q 278 341 284 375 
Q 291 409 303 443 
Q 316 478 337 517 
Q 359 556 391 606 
L 1631 2538 
L 428 2538 
Q 378 2538 348 2589 
Q 319 2641 319 2756 
Q 319 2813 325 2855 
Q 331 2897 345 2923 
Q 359 2950 379 2961 
Q 400 2972 428 2972 
L 2041 2972 
Q 2075 2972 2101 2962 
Q 2128 2953 2147 2931 
Q 2166 2909 2177 2875 
Q 2188 2841 2188 2788 
L 2188 2688 
Q 2188 2644 2181 2606 
Q 2175 2569 2162 2533 
Q 2150 2497 2128 2456 
Q 2106 2416 2075 2366 
L 841 434 
L 2159 434 
Q 2184 434 2204 423 
Q 2225 413 2239 388 
Q 2253 363 2262 320 
Q 2272 278 2272 219 
z
" transform="scale(0.015625)"/>
     <path id="Calibri-5f" d="M 3200 -931 
Q 3200 -1041 3175 -1091 
Q 3150 -1141 3097 -1141 
L 88 -1141 
Q 34 -1141 6 -1094 
Q -22 -1047 -22 -938 
Q -22 -831 6 -778 
Q 34 -725 88 -725 
L 3097 -725 
Q 3147 -725 3173 -775 
Q 3200 -825 3200 -931 
z
" transform="scale(0.015625)"/>
    </defs>
    <use xlink:href="#Calibri-64"/>
    <use xlink:href="#Calibri-65" x="52.539062"/>
    <use xlink:href="#Calibri-74" x="102.294922"/>
    <use xlink:href="#Calibri-65" x="135.791016"/>
    <use xlink:href="#Calibri-63" x="185.546875"/>
    <use xlink:href="#Calibri-74" x="227.832031"/>
    <use xlink:href="#Calibri-69" x="261.328125"/>
    <use xlink:href="#Calibri-6f" x="284.277344"/>
    <use xlink:href="#Calibri-6e" x="337.011719"/>
    <use xlink:href="#Calibri-53" x="389.550781"/>
    <use xlink:href="#Calibri-69" x="435.498047"/>
    <use xlink:href="#Calibri-7a" x="458.447266"/>
    <use xlink:href="#Calibri-65" x="497.949219"/>
    <use xlink:href="#Calibri-5f" x="547.705078"/>
    <use xlink:href="#Calibri-31" x="597.509766"/>
    <use xlink:href="#Calibri-30" x="648.193359"/>
    <use xlink:href="#Calibri-30" x="698.876953"/>
    <use xlink:href="#Calibri-30" x="749.560547"/>
    <use xlink:href="#Calibri-30" x="800.244141"/>
    <use xlink:href="#Calibri-30" x="850.927734"/>
    <use xlink:href="#Calibri-30" x="901.611328"/>
    <use xlink:href="#Calibri-30" x="952.294922"/>
    <use xlink:href="#Calibri-30" x="1002.978516"/>
   </g>
  </g>
 </g>
 <defs>
  <clipPath id="pb2899dee49">
   <rect x="24.46" y="46.32" width="119.6" height="114.8"/>
  </clipPath>
  <clipPath id="p2be9b0082b">
   <rect x="176.89" y="46.32" width="119.6" height="114.8"/>
  </clipPath>
  <clipPath id="p1a0b2cfc49">
   <rect x="329.32" y="46.32" width="119.6" height="114.8"/>
  </clipPath>
  <clipPath id="p51de12cc68">
   <rect x="24.46" y="202.56" width="119.6" height="114.8"/>
  </clipPath>
  <clipPath id="pcd30046ea1">
   <rect x="176.89" y="202.56" width="119.6" height="114.8"/>
  </clipPath>
  <clipPath id="pee83501e05">
   <rect x="329.32" y="202.56" width="119.6" height="114.8"/>
  </clipPath>
 </defs>
</svg>
