<?xml version="1.0" encoding="utf-8" standalone="no"?>
<!DOCTYPE svg PUBLIC "-//W3C//DTD SVG 1.1//EN"
  "http://www.w3.org/Graphics/SVG/1.1/DTD/svg11.dtd">
<svg xmlns:xlink="http://www.w3.org/1999/xlink" width="460.8pt" height="345.6pt" viewBox="0 0 460.8 345.6" xmlns="http://www.w3.org/2000/svg" version="1.1">
 <metadata>
  <rdf:RDF xmlns:dc="http://purl.org/dc/elements/1.1/" xmlns:cc="http://creativecommons.org/ns#" xmlns:rdf="http://www.w3.org/1999/02/22-rdf-syntax-ns#">
   <cc:Work>
    <dc:type rdf:resource="http://purl.org/dc/dcmitype/StillImage"/>
    <dc:date>2022-12-02T14:53:38.155583</dc:date>
    <dc:format>image/svg+xml</dc:format>
    <dc:creator>
     <cc:Agent>
      <dc:title>Matplotlib v3.5.3, https://matplotlib.org/</dc:title>
     </cc:Agent>
    </dc:creator>
   </cc:Work>
  </rdf:RDF>
 </metadata>
 <defs>
  <style type="text/css">*{stroke-linejoin: round; stroke-linecap: butt}</style>
 </defs>
 <g id="figure_1">
  <g id="patch_1">
   <path d="M 0 345.6 
L 460.8 345.6 
L 460.8 0 
L 0 0 
z
" style="fill: #ffffff"/>
  </g>
  <g id="axes_1">
   <g id="patch_2">
    <path d="M 32.83 161.12 
L 145.382888 161.12 
L 145.382888 46.32 
L 32.83 46.32 
z
" style="fill: #ffffff"/>
   </g>
   <g id="matplotlib.axis_1">
    <g id="xtick_1">
     <g id="line2d_1">
      <defs>
       <path id="mdc5dd479cc" d="M 0 0 
L 0 3.5 
" style="stroke: #000000; stroke-width: 0.8"/>
      </defs>
      <g>
       <use xlink:href="#mdc5dd479cc" x="37.94604" y="161.12" style="stroke: #000000; stroke-width: 0.8"/>
      </g>
     </g>
     <g id="text_1">
      <!-- 0 -->
      <g transform="translate(35.158228 175.601719)scale(0.11 -0.11)">
       <defs>
        <path id="Calibri-30" d="M 3022 2031 
Q 3022 1566 2948 1181 
Q 2875 797 2704 520 
Q 2534 244 2259 92 
Q 1984 -59 1581 -59 
Q 1200 -59 939 77 
Q 678 213 518 477 
Q 359 741 292 1127 
Q 225 1513 225 2013 
Q 225 2475 300 2861 
Q 375 3247 544 3523 
Q 713 3800 988 3951 
Q 1263 4103 1663 4103 
Q 2047 4103 2308 3967 
Q 2569 3831 2728 3567 
Q 2888 3303 2955 2917 
Q 3022 2531 3022 2031 
z
M 2472 1994 
Q 2472 2297 2450 2537 
Q 2428 2778 2386 2962 
Q 2344 3147 2276 3280 
Q 2209 3413 2115 3498 
Q 2022 3584 1901 3623 
Q 1781 3663 1631 3663 
Q 1366 3663 1200 3538 
Q 1034 3413 939 3194 
Q 844 2975 809 2681 
Q 775 2388 775 2050 
Q 775 1597 822 1280 
Q 869 963 970 763 
Q 1072 563 1230 472 
Q 1388 381 1613 381 
Q 1788 381 1920 437 
Q 2053 494 2148 598 
Q 2244 703 2306 850 
Q 2369 997 2406 1175 
Q 2444 1353 2458 1561 
Q 2472 1769 2472 1994 
z
" transform="scale(0.015625)"/>
       </defs>
       <use xlink:href="#Calibri-30"/>
      </g>
     </g>
    </g>
    <g id="xtick_2">
     <g id="line2d_2">
      <g>
       <use xlink:href="#mdc5dd479cc" x="77.149415" y="161.12" style="stroke: #000000; stroke-width: 0.8"/>
      </g>
     </g>
     <g id="text_2">
      <!-- 100 -->
      <g transform="translate(68.785977 175.601719)scale(0.11 -0.11)">
       <defs>
        <path id="Calibri-31" d="M 2897 213 
Q 2897 153 2887 112 
Q 2878 72 2862 47 
Q 2847 22 2826 11 
Q 2806 0 2784 0 
L 672 0 
Q 650 0 631 11 
Q 613 22 595 47 
Q 578 72 568 112 
Q 559 153 559 213 
Q 559 269 568 309 
Q 578 350 592 376 
Q 606 403 626 417 
Q 647 431 672 431 
L 1516 431 
L 1516 3506 
L 734 3041 
Q 675 3009 639 3003 
Q 603 2997 581 3017 
Q 559 3038 551 3084 
Q 544 3131 544 3203 
Q 544 3256 548 3293 
Q 553 3331 562 3356 
Q 572 3381 589 3400 
Q 606 3419 634 3438 
L 1566 4034 
Q 1578 4044 1597 4050 
Q 1616 4056 1644 4062 
Q 1672 4069 1709 4070 
Q 1747 4072 1803 4072 
Q 1878 4072 1928 4065 
Q 1978 4059 2006 4048 
Q 2034 4038 2043 4020 
Q 2053 4003 2053 3984 
L 2053 431 
L 2784 431 
Q 2809 431 2831 417 
Q 2853 403 2867 376 
Q 2881 350 2889 309 
Q 2897 269 2897 213 
z
" transform="scale(0.015625)"/>
       </defs>
       <use xlink:href="#Calibri-31"/>
       <use xlink:href="#Calibri-30" x="50.683594"/>
       <use xlink:href="#Calibri-30" x="101.367188"/>
      </g>
     </g>
    </g>
    <g id="xtick_3">
     <g id="line2d_3">
      <g>
       <use xlink:href="#mdc5dd479cc" x="116.352789" y="161.12" style="stroke: #000000; stroke-width: 0.8"/>
      </g>
     </g>
     <g id="text_3">
      <!-- 200 -->
      <g transform="translate(107.989352 175.601719)scale(0.11 -0.11)">
       <defs>
        <path id="Calibri-32" d="M 2888 231 
Q 2888 175 2880 131 
Q 2872 88 2858 58 
Q 2844 28 2820 14 
Q 2797 0 2769 0 
L 534 0 
Q 491 0 458 11 
Q 425 22 401 47 
Q 378 72 367 119 
Q 356 166 356 234 
Q 356 297 361 344 
Q 366 391 381 427 
Q 397 463 420 498 
Q 444 534 481 575 
L 1266 1406 
Q 1538 1694 1702 1922 
Q 1866 2150 1955 2337 
Q 2044 2525 2072 2678 
Q 2100 2831 2100 2966 
Q 2100 3100 2056 3220 
Q 2013 3341 1930 3431 
Q 1847 3522 1722 3575 
Q 1597 3628 1434 3628 
Q 1244 3628 1092 3575 
Q 941 3522 827 3459 
Q 713 3397 636 3344 
Q 559 3291 522 3291 
Q 500 3291 483 3303 
Q 466 3316 455 3344 
Q 444 3372 437 3419 
Q 431 3466 431 3531 
Q 431 3578 434 3612 
Q 438 3647 445 3672 
Q 453 3697 465 3719 
Q 478 3741 515 3773 
Q 553 3806 645 3862 
Q 738 3919 877 3973 
Q 1016 4028 1183 4065 
Q 1350 4103 1534 4103 
Q 1828 4103 2048 4020 
Q 2269 3938 2414 3794 
Q 2559 3650 2631 3459 
Q 2703 3269 2703 3053 
Q 2703 2859 2668 2667 
Q 2634 2475 2523 2251 
Q 2413 2028 2203 1754 
Q 1994 1481 1647 1125 
L 1006 456 
L 2766 456 
Q 2791 456 2814 442 
Q 2838 428 2855 400 
Q 2872 372 2880 330 
Q 2888 288 2888 231 
z
" transform="scale(0.015625)"/>
       </defs>
       <use xlink:href="#Calibri-32"/>
       <use xlink:href="#Calibri-30" x="50.683594"/>
       <use xlink:href="#Calibri-30" x="101.367188"/>
      </g>
     </g>
    </g>
   </g>
   <g id="matplotlib.axis_2">
    <g id="ytick_1">
     <g id="line2d_4">
      <defs>
       <path id="m0597d7ef7e" d="M 0 0 
L -3.5 0 
" style="stroke: #000000; stroke-width: 0.8"/>
      </defs>
      <g>
       <use xlink:href="#m0597d7ef7e" x="32.83" y="156.045653" style="stroke: #000000; stroke-width: 0.8"/>
      </g>
     </g>
     <g id="text_4">
      <!-- 0.0 -->
      <g transform="translate(11.90125 159.786512)scale(0.11 -0.11)">
       <defs>
        <path id="Calibri-2e" d="M 1144 341 
Q 1144 119 1070 45 
Q 997 -28 803 -28 
Q 616 -28 544 44 
Q 472 116 472 331 
Q 472 553 545 626 
Q 619 700 813 700 
Q 1000 700 1072 628 
Q 1144 556 1144 341 
z
" transform="scale(0.015625)"/>
       </defs>
       <use xlink:href="#Calibri-30"/>
       <use xlink:href="#Calibri-2e" x="50.683594"/>
       <use xlink:href="#Calibri-30" x="75.927734"/>
      </g>
     </g>
    </g>
    <g id="ytick_2">
     <g id="line2d_5">
      <g>
       <use xlink:href="#m0597d7ef7e" x="32.83" y="116.325413" style="stroke: #000000; stroke-width: 0.8"/>
      </g>
     </g>
     <g id="text_5">
      <!-- 0.5 -->
      <g transform="translate(11.90125 120.066272)scale(0.11 -0.11)">
       <defs>
        <path id="Calibri-35" d="M 2869 1300 
Q 2869 975 2759 722 
Q 2650 469 2450 295 
Q 2250 122 1973 31 
Q 1697 -59 1359 -59 
Q 1172 -59 1003 -32 
Q 834 -6 703 33 
Q 572 72 487 109 
Q 403 147 379 169 
Q 356 191 347 209 
Q 338 228 330 254 
Q 322 281 319 322 
Q 316 363 316 419 
Q 316 472 320 514 
Q 325 556 337 582 
Q 350 609 367 621 
Q 384 634 406 634 
Q 438 634 503 595 
Q 569 556 680 511 
Q 791 466 955 425 
Q 1119 384 1344 384 
Q 1553 384 1728 434 
Q 1903 484 2029 590 
Q 2156 697 2228 858 
Q 2300 1019 2300 1250 
Q 2300 1444 2239 1592 
Q 2178 1741 2051 1839 
Q 1925 1938 1731 1986 
Q 1538 2034 1269 2034 
Q 1078 2034 940 2015 
Q 803 1997 684 1997 
Q 597 1997 559 2037 
Q 522 2078 522 2194 
L 522 3841 
Q 522 3944 570 3994 
Q 619 4044 709 4044 
L 2500 4044 
Q 2525 4044 2548 4030 
Q 2572 4016 2587 3987 
Q 2603 3959 2611 3915 
Q 2619 3872 2619 3813 
Q 2619 3700 2587 3637 
Q 2556 3575 2500 3575 
L 991 3575 
L 991 2441 
Q 1100 2456 1214 2459 
Q 1328 2463 1478 2463 
Q 1825 2463 2084 2380 
Q 2344 2297 2517 2145 
Q 2691 1994 2780 1778 
Q 2869 1563 2869 1300 
z
" transform="scale(0.015625)"/>
       </defs>
       <use xlink:href="#Calibri-30"/>
       <use xlink:href="#Calibri-2e" x="50.683594"/>
       <use xlink:href="#Calibri-35" x="75.927734"/>
      </g>
     </g>
    </g>
    <g id="ytick_3">
     <g id="line2d_6">
      <g>
       <use xlink:href="#m0597d7ef7e" x="32.83" y="76.605173" style="stroke: #000000; stroke-width: 0.8"/>
      </g>
     </g>
     <g id="text_6">
      <!-- 1.0 -->
      <g transform="translate(11.90125 80.346032)scale(0.11 -0.11)">
       <use xlink:href="#Calibri-31"/>
       <use xlink:href="#Calibri-2e" x="50.683594"/>
       <use xlink:href="#Calibri-30" x="75.927734"/>
      </g>
     </g>
    </g>
    <g id="text_7">
     <!-- 1e7 -->
     <g transform="translate(32.83 43.32)scale(0.11 -0.11)">
      <defs>
       <path id="Calibri-65" d="M 2878 1606 
Q 2878 1484 2817 1432 
Q 2756 1381 2678 1381 
L 834 1381 
Q 834 1147 881 959 
Q 928 772 1037 637 
Q 1147 503 1322 431 
Q 1497 359 1750 359 
Q 1950 359 2106 392 
Q 2263 425 2377 465 
Q 2491 506 2564 539 
Q 2638 572 2675 572 
Q 2697 572 2714 561 
Q 2731 550 2740 528 
Q 2750 506 2754 467 
Q 2759 428 2759 372 
Q 2759 331 2756 301 
Q 2753 272 2748 248 
Q 2744 225 2733 206 
Q 2722 188 2705 170 
Q 2688 153 2603 114 
Q 2519 75 2384 37 
Q 2250 0 2073 -29 
Q 1897 -59 1697 -59 
Q 1350 -59 1089 37 
Q 828 134 650 325 
Q 472 516 381 803 
Q 291 1091 291 1472 
Q 291 1834 384 2123 
Q 478 2413 654 2614 
Q 831 2816 1081 2923 
Q 1331 3031 1641 3031 
Q 1972 3031 2205 2925 
Q 2438 2819 2588 2639 
Q 2738 2459 2808 2217 
Q 2878 1975 2878 1700 
L 2878 1606 
z
M 2359 1759 
Q 2369 2166 2180 2397 
Q 1991 2628 1619 2628 
Q 1428 2628 1284 2556 
Q 1141 2484 1044 2365 
Q 947 2247 894 2089 
Q 841 1931 834 1759 
L 2359 1759 
z
" transform="scale(0.015625)"/>
       <path id="Calibri-37" d="M 2947 3813 
Q 2947 3756 2942 3711 
Q 2938 3666 2930 3623 
Q 2922 3581 2908 3542 
Q 2894 3503 2875 3459 
L 1419 103 
Q 1403 66 1379 42 
Q 1356 19 1320 5 
Q 1284 -9 1228 -14 
Q 1172 -19 1091 -19 
Q 984 -19 925 -9 
Q 866 0 839 20 
Q 813 41 816 70 
Q 819 100 838 141 
L 2369 3572 
L 428 3572 
Q 369 3572 339 3634 
Q 309 3697 309 3809 
Q 309 3869 317 3912 
Q 325 3956 340 3986 
Q 356 4016 378 4030 
Q 400 4044 428 4044 
L 2784 4044 
Q 2828 4044 2861 4034 
Q 2894 4025 2911 3997 
Q 2928 3969 2937 3925 
Q 2947 3881 2947 3813 
z
" transform="scale(0.015625)"/>
      </defs>
      <use xlink:href="#Calibri-31"/>
      <use xlink:href="#Calibri-65" x="50.683594"/>
      <use xlink:href="#Calibri-37" x="100.439453"/>
     </g>
    </g>
   </g>
   <g id="line2d_7">
    <path d="M 140.266847 161.12 
L 140.266847 46.32 
" clip-path="url(#p67eccabcd4)" style="fill: none; stroke: #ff0000; stroke-width: 1.5; stroke-linecap: square"/>
   </g>
   <g id="line2d_8">
    <path d="M 137.914645 161.12 
L 137.914645 46.32 
" clip-path="url(#p67eccabcd4)" style="fill: none; stroke-dasharray: 5.55,2.4; stroke-dashoffset: 0; stroke: #0000ff; stroke-width: 1.5"/>
   </g>
   <g id="line2d_9">
    <path d="M 37.94604 75.512318 
L 38.338074 74.285129 
L 39.122142 86.515976 
L 39.906209 95.239868 
L 40.690277 101.864608 
L 41.866378 109.43322 
L 43.042479 115.362785 
L 43.826546 118.771409 
L 45.002648 111.94945 
L 46.570783 101.464395 
L 49.315019 82.86196 
L 50.883154 73.539564 
L 51.667221 84.445749 
L 52.451289 92.530709 
L 53.235356 98.774659 
L 54.411458 106.197053 
L 55.587559 112.267156 
L 56.76366 117.372748 
L 57.155694 118.886423 
L 58.331795 111.965251 
L 59.89993 101.166636 
L 63.820267 72.139092 
L 64.604335 82.29802 
L 65.388402 89.882426 
L 66.564504 98.309535 
L 67.740605 104.868181 
L 68.916706 110.155525 
L 70.092807 114.389488 
L 71.268909 117.749352 
L 72.837044 108.482381 
L 74.797212 95.475528 
L 77.149415 77.957567 
L 77.933482 72.24022 
L 78.71755 80.56822 
L 79.501617 86.83315 
L 80.677718 94.213854 
L 81.85382 99.997653 
L 83.029921 104.604312 
L 84.206022 108.294616 
L 85.382123 111.322807 
L 86.558225 113.800834 
L 87.734326 115.848587 
L 88.126359 116.449578 
L 89.694494 110.24051 
L 91.262629 103.112777 
L 92.830764 94.763876 
L 94.398899 84.948616 
L 95.967034 73.599367 
L 96.751102 78.99703 
L 97.927203 85.383258 
L 99.103304 90.31876 
L 100.279406 94.087337 
L 101.455507 96.957943 
L 102.631608 99.186447 
L 103.807709 100.888904 
L 104.98381 102.16954 
L 106.159912 103.144911 
L 107.336013 103.869884 
L 108.512114 104.379511 
L 110.080249 104.789082 
L 111.25635 104.872026 
L 113.216519 104.715886 
L 115.960755 104.233475 
L 118.312958 103.630689 
L 120.273126 102.932955 
L 121.841261 102.198822 
L 123.409396 101.249191 
L 124.977531 100.01042 
L 126.545666 98.417558 
L 127.721768 96.941038 
L 128.897869 95.178285 
L 130.07397 93.103594 
L 131.250071 90.646857 
L 132.818206 86.776835 
L 134.386341 82.17434 
L 135.954476 76.826486 
L 137.914645 69.169027 
L 139.874814 60.337844 
L 139.874814 60.337844 
" clip-path="url(#p67eccabcd4)" style="fill: none; stroke: #ff0000; stroke-width: 1.5; stroke-linecap: square"/>
   </g>
   <g id="line2d_10">
    <path d="M 37.94604 76.543217 
L 38.338074 75.835736 
L 39.122142 88.687013 
L 39.906209 97.728333 
L 40.690277 104.47615 
L 41.474344 109.704025 
L 42.650445 115.821832 
L 43.826546 120.900422 
L 45.394681 126.48044 
L 46.962816 131.002812 
L 48.530951 134.713676 
L 50.099086 137.755396 
L 51.667221 140.252886 
L 53.235356 142.264469 
L 54.803491 143.875681 
L 56.371626 145.132239 
L 57.939761 146.03999 
L 59.507896 146.632902 
L 60.683997 146.861849 
L 62.252132 146.886333 
L 63.820267 146.654128 
L 65.388402 146.19126 
L 67.348571 145.340127 
L 69.30874 144.189511 
L 72.052976 142.201847 
L 75.189246 140.038317 
L 77.149415 138.978184 
L 79.109583 138.183787 
L 81.461786 137.540859 
L 84.206022 137.075934 
L 88.518393 136.633315 
L 97.535169 135.797951 
L 101.063473 135.268464 
L 104.199743 134.592243 
L 106.551945 133.880774 
L 108.512114 133.104688 
L 110.472283 132.102094 
L 112.432452 130.806316 
L 114.000587 129.498329 
L 115.568722 127.891144 
L 117.136856 125.913474 
L 118.704991 123.468177 
L 120.273126 120.514166 
L 121.841261 117.080669 
L 123.409396 113.192828 
L 125.369565 107.767338 
L 127.329734 101.700714 
L 129.289903 94.966179 
L 132.034139 84.69331 
L 134.778375 73.49113 
L 139.874814 51.538182 
L 139.874814 51.538182 
" clip-path="url(#p67eccabcd4)" style="fill: none; stroke-dasharray: 5.55,2.4; stroke-dashoffset: 0; stroke: #0000ff; stroke-width: 1.5"/>
   </g>
   <g id="line2d_11">
    <path d="M 37.94604 155.855806 
L 43.042479 155.750524 
L 53.235356 155.219488 
L 56.371626 154.781771 
L 59.115862 154.180581 
L 63.0362 153.252716 
L 65.388402 152.765063 
L 66.956537 152.133297 
L 68.524672 151.256179 
L 70.092807 150.136886 
L 72.052976 148.397227 
L 74.013145 146.776633 
L 75.58128 145.783746 
L 77.149415 145.051639 
L 79.109583 144.274925 
L 80.285685 143.493684 
L 82.245853 141.857663 
L 88.126359 136.640409 
L 89.694494 135.503314 
L 92.046697 134.106647 
L 95.967034 131.79021 
L 97.143136 130.952058 
L 98.711271 129.525934 
L 100.279406 127.764365 
L 108.512114 117.676521 
L 112.432452 113.376034 
L 115.176688 110.669854 
L 118.312958 108.009917 
L 122.625329 104.4253 
L 124.585498 102.494619 
L 126.153633 100.645244 
L 127.721768 98.446395 
L 129.289903 95.790279 
L 130.466004 93.430142 
L 132.034139 89.714044 
L 133.602274 85.332607 
L 135.170409 80.221422 
L 137.130577 72.867458 
L 138.698712 66.190025 
L 139.874814 60.689336 
L 139.874814 60.689336 
" clip-path="url(#p67eccabcd4)" style="fill: none; stroke-dasharray: 1.5,2.475; stroke-dashoffset: 0; stroke: #ff0000; stroke-width: 1.5"/>
   </g>
   <g id="line2d_12">
    <path d="M 37.94604 155.901818 
L 44.21858 155.767707 
L 49.315019 155.458246 
L 52.843323 155.043766 
L 55.587559 154.525861 
L 57.939761 153.872408 
L 59.89993 153.122418 
L 61.860099 152.122342 
L 64.212301 150.626112 
L 66.564504 148.876062 
L 68.916706 146.896064 
L 75.189246 141.234103 
L 77.149415 139.92235 
L 79.109583 138.928319 
L 81.069752 138.22021 
L 83.029921 137.711799 
L 86.166191 137.163445 
L 91.262629 136.589361 
L 98.711271 135.717041 
L 102.631608 135.009838 
L 105.767878 134.177381 
L 108.12008 133.303536 
L 110.080249 132.345777 
L 112.040418 131.106895 
L 113.608553 129.869554 
L 115.176688 128.338402 
L 116.744823 126.454392 
L 117.920924 124.759029 
L 119.489059 122.058601 
L 121.057194 118.858738 
L 122.625329 115.202426 
L 124.585498 110.013152 
L 126.545666 104.2163 
L 128.505835 97.738215 
L 130.858038 89.186408 
L 133.602274 78.414668 
L 137.522611 61.726288 
L 139.874814 51.538611 
L 139.874814 51.538611 
" clip-path="url(#p67eccabcd4)" style="fill: none; stroke-dasharray: 1.5,2.475; stroke-dashoffset: 0; stroke: #0000ff; stroke-width: 1.5"/>
   </g>
   <g id="patch_3">
    <path d="M 32.83 161.12 
L 32.83 46.32 
" style="fill: none; stroke: #000000; stroke-linejoin: miter; stroke-linecap: square"/>
   </g>
   <g id="patch_4">
    <path d="M 32.83 161.12 
L 145.382888 161.12 
" style="fill: none; stroke: #000000; stroke-linejoin: miter; stroke-linecap: square"/>
   </g>
   <g id="text_8">
    <!-- Init Sens:100 Init Res:1 -->
    <g transform="translate(38.339725 40.32)scale(0.11 -0.11)">
     <defs>
      <path id="Calibri-49" d="M 1075 81 
Q 1075 56 1062 37 
Q 1050 19 1019 8 
Q 988 -3 936 -11 
Q 884 -19 806 -19 
Q 731 -19 678 -11 
Q 625 -3 594 8 
Q 563 19 550 37 
Q 538 56 538 81 
L 538 3963 
Q 538 3988 552 4006 
Q 566 4025 598 4036 
Q 631 4047 682 4055 
Q 734 4063 806 4063 
Q 884 4063 936 4055 
Q 988 4047 1019 4036 
Q 1050 4025 1062 4006 
Q 1075 3988 1075 3963 
L 1075 81 
z
" transform="scale(0.015625)"/>
      <path id="Calibri-6e" d="M 2900 78 
Q 2900 53 2887 36 
Q 2875 19 2847 6 
Q 2819 -6 2769 -12 
Q 2719 -19 2644 -19 
Q 2566 -19 2516 -12 
Q 2466 -6 2437 6 
Q 2409 19 2396 36 
Q 2384 53 2384 78 
L 2384 1725 
Q 2384 1966 2346 2112 
Q 2309 2259 2237 2365 
Q 2166 2472 2052 2528 
Q 1938 2584 1788 2584 
Q 1594 2584 1400 2446 
Q 1206 2309 994 2044 
L 994 78 
Q 994 53 981 36 
Q 969 19 941 6 
Q 913 -6 863 -12 
Q 813 -19 734 -19 
Q 659 -19 609 -12 
Q 559 -6 529 6 
Q 500 19 489 36 
Q 478 53 478 78 
L 478 2891 
Q 478 2916 487 2933 
Q 497 2950 525 2964 
Q 553 2978 597 2983 
Q 641 2988 713 2988 
Q 781 2988 826 2983 
Q 872 2978 897 2964 
Q 922 2950 933 2933 
Q 944 2916 944 2891 
L 944 2519 
Q 1181 2784 1417 2907 
Q 1653 3031 1894 3031 
Q 2175 3031 2367 2936 
Q 2559 2841 2678 2681 
Q 2797 2522 2848 2308 
Q 2900 2094 2900 1794 
L 2900 78 
z
" transform="scale(0.015625)"/>
      <path id="Calibri-69" d="M 994 78 
Q 994 53 981 36 
Q 969 19 941 6 
Q 913 -6 863 -12 
Q 813 -19 734 -19 
Q 659 -19 609 -12 
Q 559 -6 529 6 
Q 500 19 489 36 
Q 478 53 478 78 
L 478 2891 
Q 478 2913 489 2931 
Q 500 2950 529 2962 
Q 559 2975 609 2981 
Q 659 2988 734 2988 
Q 813 2988 863 2981 
Q 913 2975 941 2962 
Q 969 2950 981 2931 
Q 994 2913 994 2891 
L 994 78 
z
M 1053 3841 
Q 1053 3659 984 3593 
Q 916 3528 731 3528 
Q 550 3528 483 3592 
Q 416 3656 416 3834 
Q 416 4016 484 4081 
Q 553 4147 738 4147 
Q 919 4147 986 4083 
Q 1053 4019 1053 3841 
z
" transform="scale(0.015625)"/>
      <path id="Calibri-74" d="M 1941 284 
Q 1941 194 1928 141 
Q 1916 88 1891 63 
Q 1866 38 1816 16 
Q 1766 -6 1702 -20 
Q 1638 -34 1566 -43 
Q 1494 -53 1422 -53 
Q 1203 -53 1047 5 
Q 891 63 791 180 
Q 691 297 645 476 
Q 600 656 600 900 
L 600 2544 
L 206 2544 
Q 159 2544 131 2594 
Q 103 2644 103 2756 
Q 103 2816 111 2856 
Q 119 2897 131 2923 
Q 144 2950 164 2961 
Q 184 2972 209 2972 
L 600 2972 
L 600 3641 
Q 600 3663 611 3681 
Q 622 3700 651 3714 
Q 681 3728 731 3734 
Q 781 3741 856 3741 
Q 934 3741 984 3734 
Q 1034 3728 1062 3714 
Q 1091 3700 1103 3681 
Q 1116 3663 1116 3641 
L 1116 2972 
L 1838 2972 
Q 1863 2972 1881 2961 
Q 1900 2950 1914 2923 
Q 1928 2897 1934 2856 
Q 1941 2816 1941 2756 
Q 1941 2644 1912 2594 
Q 1884 2544 1838 2544 
L 1116 2544 
L 1116 975 
Q 1116 684 1202 536 
Q 1288 388 1509 388 
Q 1581 388 1637 402 
Q 1694 416 1737 431 
Q 1781 447 1812 461 
Q 1844 475 1869 475 
Q 1884 475 1898 467 
Q 1913 459 1920 437 
Q 1928 416 1934 378 
Q 1941 341 1941 284 
z
" transform="scale(0.015625)"/>
      <path id="Calibri-20" transform="scale(0.015625)"/>
      <path id="Calibri-53" d="M 2709 1134 
Q 2709 850 2604 628 
Q 2500 406 2314 251 
Q 2128 97 1876 19 
Q 1625 -59 1334 -59 
Q 1131 -59 957 -25 
Q 784 9 648 59 
Q 513 109 420 162 
Q 328 216 292 253 
Q 256 291 239 348 
Q 222 406 222 503 
Q 222 572 228 617 
Q 234 663 246 691 
Q 259 719 278 730 
Q 297 741 322 741 
Q 366 741 445 687 
Q 525 634 650 571 
Q 775 509 951 454 
Q 1128 400 1359 400 
Q 1534 400 1679 447 
Q 1825 494 1929 580 
Q 2034 666 2090 791 
Q 2147 916 2147 1075 
Q 2147 1247 2069 1369 
Q 1991 1491 1862 1583 
Q 1734 1675 1570 1751 
Q 1406 1828 1234 1908 
Q 1063 1988 900 2084 
Q 738 2181 609 2312 
Q 481 2444 401 2620 
Q 322 2797 322 3044 
Q 322 3297 414 3495 
Q 506 3694 670 3828 
Q 834 3963 1061 4033 
Q 1288 4103 1550 4103 
Q 1684 4103 1820 4079 
Q 1956 4056 2076 4017 
Q 2197 3978 2290 3929 
Q 2384 3881 2414 3851 
Q 2444 3822 2453 3805 
Q 2463 3788 2469 3761 
Q 2475 3734 2478 3696 
Q 2481 3659 2481 3600 
Q 2481 3544 2476 3500 
Q 2472 3456 2462 3426 
Q 2453 3397 2436 3383 
Q 2419 3369 2397 3369 
Q 2363 3369 2289 3412 
Q 2216 3456 2109 3511 
Q 2003 3566 1858 3611 
Q 1713 3656 1531 3656 
Q 1363 3656 1238 3611 
Q 1113 3566 1031 3491 
Q 950 3416 909 3312 
Q 869 3209 869 3094 
Q 869 2925 947 2803 
Q 1025 2681 1154 2587 
Q 1284 2494 1450 2416 
Q 1616 2338 1787 2258 
Q 1959 2178 2125 2083 
Q 2291 1988 2420 1858 
Q 2550 1728 2629 1551 
Q 2709 1375 2709 1134 
z
" transform="scale(0.015625)"/>
      <path id="Calibri-73" d="M 2244 844 
Q 2244 628 2164 459 
Q 2084 291 1937 175 
Q 1791 59 1587 0 
Q 1384 -59 1141 -59 
Q 991 -59 855 -36 
Q 719 -13 611 23 
Q 503 59 428 98 
Q 353 138 318 169 
Q 284 200 268 256 
Q 253 313 253 409 
Q 253 469 259 509 
Q 266 550 275 575 
Q 284 600 301 611 
Q 319 622 341 622 
Q 375 622 442 580 
Q 509 538 607 488 
Q 706 438 840 395 
Q 975 353 1150 353 
Q 1281 353 1387 381 
Q 1494 409 1572 464 
Q 1650 519 1692 603 
Q 1734 688 1734 803 
Q 1734 922 1673 1003 
Q 1613 1084 1513 1146 
Q 1413 1209 1288 1257 
Q 1163 1306 1030 1359 
Q 897 1413 770 1480 
Q 644 1547 544 1644 
Q 444 1741 383 1875 
Q 322 2009 322 2197 
Q 322 2363 386 2514 
Q 450 2666 578 2780 
Q 706 2894 898 2962 
Q 1091 3031 1347 3031 
Q 1459 3031 1571 3012 
Q 1684 2994 1775 2966 
Q 1866 2938 1930 2905 
Q 1994 2872 2026 2847 
Q 2059 2822 2070 2803 
Q 2081 2784 2086 2761 
Q 2091 2738 2095 2703 
Q 2100 2669 2100 2619 
Q 2100 2566 2095 2527 
Q 2091 2488 2080 2463 
Q 2069 2438 2053 2427 
Q 2038 2416 2019 2416 
Q 1991 2416 1937 2450 
Q 1884 2484 1800 2523 
Q 1716 2563 1602 2597 
Q 1488 2631 1341 2631 
Q 1209 2631 1109 2601 
Q 1009 2572 945 2517 
Q 881 2463 848 2388 
Q 816 2313 816 2225 
Q 816 2103 878 2020 
Q 941 1938 1041 1875 
Q 1141 1813 1269 1763 
Q 1397 1713 1530 1659 
Q 1663 1606 1792 1540 
Q 1922 1475 2022 1381 
Q 2122 1288 2183 1156 
Q 2244 1025 2244 844 
z
" transform="scale(0.015625)"/>
      <path id="Calibri-3a" d="M 1241 2500 
Q 1241 2400 1227 2331 
Q 1213 2263 1173 2220 
Q 1134 2178 1071 2161 
Q 1009 2144 913 2144 
Q 813 2144 750 2161 
Q 688 2178 650 2220 
Q 613 2263 598 2331 
Q 584 2400 584 2500 
Q 584 2606 598 2676 
Q 613 2747 650 2789 
Q 688 2831 750 2848 
Q 813 2866 913 2866 
Q 1009 2866 1071 2848 
Q 1134 2831 1173 2789 
Q 1213 2747 1227 2676 
Q 1241 2606 1241 2500 
z
M 1241 331 
Q 1241 228 1227 159 
Q 1213 91 1173 48 
Q 1134 6 1071 -11 
Q 1009 -28 913 -28 
Q 813 -28 750 -11 
Q 688 6 650 48 
Q 613 91 598 159 
Q 584 228 584 331 
Q 584 434 598 504 
Q 613 575 650 615 
Q 688 656 750 675 
Q 813 694 913 694 
Q 1009 694 1071 675 
Q 1134 656 1173 615 
Q 1213 575 1227 504 
Q 1241 434 1241 331 
z
" transform="scale(0.015625)"/>
      <path id="Calibri-52" d="M 3234 81 
Q 3234 56 3225 37 
Q 3216 19 3184 6 
Q 3153 -6 3097 -12 
Q 3041 -19 2947 -19 
Q 2866 -19 2814 -12 
Q 2763 -6 2731 8 
Q 2700 22 2683 47 
Q 2666 72 2653 109 
L 2281 1063 
Q 2216 1225 2145 1361 
Q 2075 1497 1978 1595 
Q 1881 1694 1750 1748 
Q 1619 1803 1434 1803 
L 1075 1803 
L 1075 81 
Q 1075 56 1061 37 
Q 1047 19 1017 8 
Q 988 -3 936 -11 
Q 884 -19 806 -19 
Q 728 -19 676 -11 
Q 625 -3 594 8 
Q 563 19 550 37 
Q 538 56 538 81 
L 538 3825 
Q 538 3947 602 3995 
Q 666 4044 738 4044 
L 1597 4044 
Q 1750 4044 1851 4036 
Q 1953 4028 2034 4019 
Q 2269 3978 2448 3890 
Q 2628 3803 2750 3668 
Q 2872 3534 2933 3361 
Q 2994 3188 2994 2978 
Q 2994 2775 2939 2614 
Q 2884 2453 2781 2329 
Q 2678 2206 2534 2115 
Q 2391 2025 2213 1963 
Q 2313 1919 2394 1851 
Q 2475 1784 2545 1690 
Q 2616 1597 2678 1475 
Q 2741 1353 2803 1200 
L 3166 309 
Q 3209 197 3221 151 
Q 3234 106 3234 81 
z
M 2425 2922 
Q 2425 3159 2319 3323 
Q 2213 3488 1963 3559 
Q 1884 3581 1786 3590 
Q 1688 3600 1528 3600 
L 1075 3600 
L 1075 2238 
L 1600 2238 
Q 1813 2238 1967 2289 
Q 2122 2341 2225 2433 
Q 2328 2525 2376 2650 
Q 2425 2775 2425 2922 
z
" transform="scale(0.015625)"/>
     </defs>
     <use xlink:href="#Calibri-49"/>
     <use xlink:href="#Calibri-6e" x="25.195312"/>
     <use xlink:href="#Calibri-69" x="77.734375"/>
     <use xlink:href="#Calibri-74" x="100.683594"/>
     <use xlink:href="#Calibri-20" x="134.179688"/>
     <use xlink:href="#Calibri-53" x="156.787109"/>
     <use xlink:href="#Calibri-65" x="202.734375"/>
     <use xlink:href="#Calibri-6e" x="252.490234"/>
     <use xlink:href="#Calibri-73" x="305.029297"/>
     <use xlink:href="#Calibri-3a" x="344.140625"/>
     <use xlink:href="#Calibri-31" x="370.898438"/>
     <use xlink:href="#Calibri-30" x="421.582031"/>
     <use xlink:href="#Calibri-30" x="472.265625"/>
     <use xlink:href="#Calibri-20" x="522.949219"/>
     <use xlink:href="#Calibri-49" x="545.556641"/>
     <use xlink:href="#Calibri-6e" x="570.751953"/>
     <use xlink:href="#Calibri-69" x="623.291016"/>
     <use xlink:href="#Calibri-74" x="646.240234"/>
     <use xlink:href="#Calibri-20" x="679.736328"/>
     <use xlink:href="#Calibri-52" x="702.34375"/>
     <use xlink:href="#Calibri-65" x="756.640625"/>
     <use xlink:href="#Calibri-73" x="806.396484"/>
     <use xlink:href="#Calibri-3a" x="845.507812"/>
     <use xlink:href="#Calibri-31" x="872.265625"/>
    </g>
   </g>
  </g>
  <g id="axes_2">
   <g id="patch_5">
    <path d="M 184.598556 161.12 
L 297.151444 161.12 
L 297.151444 46.32 
L 184.598556 46.32 
z
" style="fill: #ffffff"/>
   </g>
   <g id="matplotlib.axis_3">
    <g id="xtick_4">
     <g id="line2d_13">
      <g>
       <use xlink:href="#mdc5dd479cc" x="189.714596" y="161.12" style="stroke: #000000; stroke-width: 0.8"/>
      </g>
     </g>
     <g id="text_9">
      <!-- 0 -->
      <g transform="translate(186.926784 175.601719)scale(0.11 -0.11)">
       <use xlink:href="#Calibri-30"/>
      </g>
     </g>
    </g>
    <g id="xtick_5">
     <g id="line2d_14">
      <g>
       <use xlink:href="#mdc5dd479cc" x="235.909092" y="161.12" style="stroke: #000000; stroke-width: 0.8"/>
      </g>
     </g>
     <g id="text_10">
      <!-- 200 -->
      <g transform="translate(227.545654 175.601719)scale(0.11 -0.11)">
       <use xlink:href="#Calibri-32"/>
       <use xlink:href="#Calibri-30" x="50.683594"/>
       <use xlink:href="#Calibri-30" x="101.367188"/>
      </g>
     </g>
    </g>
    <g id="xtick_6">
     <g id="line2d_15">
      <g>
       <use xlink:href="#mdc5dd479cc" x="282.103587" y="161.12" style="stroke: #000000; stroke-width: 0.8"/>
      </g>
     </g>
     <g id="text_11">
      <!-- 400 -->
      <g transform="translate(273.74015 175.601719)scale(0.11 -0.11)">
       <defs>
        <path id="Calibri-34" d="M 3059 1150 
Q 3059 1047 3028 987 
Q 2997 928 2941 928 
L 2484 928 
L 2484 78 
Q 2484 53 2471 36 
Q 2459 19 2428 6 
Q 2397 -6 2347 -12 
Q 2297 -19 2219 -19 
Q 2144 -19 2094 -12 
Q 2044 -6 2014 6 
Q 1984 19 1973 36 
Q 1963 53 1963 78 
L 1963 928 
L 294 928 
Q 256 928 231 937 
Q 206 947 186 972 
Q 166 997 158 1044 
Q 150 1091 150 1166 
Q 150 1225 153 1272 
Q 156 1319 165 1358 
Q 175 1397 190 1433 
Q 206 1469 228 1509 
L 1684 3966 
Q 1700 3991 1729 4009 
Q 1759 4028 1806 4040 
Q 1853 4053 1922 4058 
Q 1991 4063 2084 4063 
Q 2188 4063 2264 4055 
Q 2341 4047 2387 4034 
Q 2434 4022 2459 4001 
Q 2484 3981 2484 3953 
L 2484 1372 
L 2941 1372 
Q 2994 1372 3026 1317 
Q 3059 1263 3059 1150 
z
M 1963 3591 
L 1956 3591 
L 641 1372 
L 1963 1372 
L 1963 3591 
z
" transform="scale(0.015625)"/>
       </defs>
       <use xlink:href="#Calibri-34"/>
       <use xlink:href="#Calibri-30" x="50.683594"/>
       <use xlink:href="#Calibri-30" x="101.367188"/>
      </g>
     </g>
    </g>
   </g>
   <g id="matplotlib.axis_4">
    <g id="ytick_4">
     <g id="line2d_16">
      <g>
       <use xlink:href="#m0597d7ef7e" x="184.598556" y="155.901915" style="stroke: #000000; stroke-width: 0.8"/>
      </g>
     </g>
     <g id="text_12">
      <!-- 0.0 -->
      <g transform="translate(163.669806 159.642774)scale(0.11 -0.11)">
       <use xlink:href="#Calibri-30"/>
       <use xlink:href="#Calibri-2e" x="50.683594"/>
       <use xlink:href="#Calibri-30" x="75.927734"/>
      </g>
     </g>
    </g>
    <g id="ytick_5">
     <g id="line2d_17">
      <g>
       <use xlink:href="#m0597d7ef7e" x="184.598556" y="125.772284" style="stroke: #000000; stroke-width: 0.8"/>
      </g>
     </g>
     <g id="text_13">
      <!-- 0.5 -->
      <g transform="translate(163.669806 129.513143)scale(0.11 -0.11)">
       <use xlink:href="#Calibri-30"/>
       <use xlink:href="#Calibri-2e" x="50.683594"/>
       <use xlink:href="#Calibri-35" x="75.927734"/>
      </g>
     </g>
    </g>
    <g id="ytick_6">
     <g id="line2d_18">
      <g>
       <use xlink:href="#m0597d7ef7e" x="184.598556" y="95.642653" style="stroke: #000000; stroke-width: 0.8"/>
      </g>
     </g>
     <g id="text_14">
      <!-- 1.0 -->
      <g transform="translate(163.669806 99.383512)scale(0.11 -0.11)">
       <use xlink:href="#Calibri-31"/>
       <use xlink:href="#Calibri-2e" x="50.683594"/>
       <use xlink:href="#Calibri-30" x="75.927734"/>
      </g>
     </g>
    </g>
    <g id="ytick_7">
     <g id="line2d_19">
      <g>
       <use xlink:href="#m0597d7ef7e" x="184.598556" y="65.513022" style="stroke: #000000; stroke-width: 0.8"/>
      </g>
     </g>
     <g id="text_15">
      <!-- 1.5 -->
      <g transform="translate(163.669806 69.253881)scale(0.11 -0.11)">
       <use xlink:href="#Calibri-31"/>
       <use xlink:href="#Calibri-2e" x="50.683594"/>
       <use xlink:href="#Calibri-35" x="75.927734"/>
      </g>
     </g>
    </g>
    <g id="text_16">
     <!-- 1e7 -->
     <g transform="translate(184.598556 43.32)scale(0.11 -0.11)">
      <use xlink:href="#Calibri-31"/>
      <use xlink:href="#Calibri-65" x="50.683594"/>
      <use xlink:href="#Calibri-37" x="100.439453"/>
     </g>
    </g>
   </g>
   <g id="line2d_20">
    <path d="M 292.035404 161.12 
L 292.035404 46.32 
" clip-path="url(#pacbc479763)" style="fill: none; stroke: #ff0000; stroke-width: 1.5; stroke-linecap: square"/>
   </g>
   <g id="line2d_21">
    <path d="M 277.022193 161.12 
L 277.022193 46.32 
" clip-path="url(#pacbc479763)" style="fill: none; stroke-dasharray: 5.55,2.4; stroke-dashoffset: 0; stroke: #0000ff; stroke-width: 1.5"/>
   </g>
   <g id="line2d_22">
    <path d="M 189.714596 95.44123 
L 189.945569 94.670436 
L 190.638486 107.719615 
L 191.331404 115.910657 
L 192.024321 121.62541 
L 192.948211 127.411076 
L 194.103074 118.47508 
L 196.181826 101.461486 
L 197.336688 93.808584 
L 198.029606 105.964112 
L 198.722523 113.804035 
L 199.646413 121.148663 
L 200.570303 126.863934 
L 200.801275 128.116845 
L 201.725165 121.093556 
L 202.880028 110.519152 
L 204.496835 96.060075 
L 204.95878 92.551286 
L 205.651697 104.372593 
L 206.344615 112.127972 
L 207.268505 119.615643 
L 208.192395 125.524937 
L 208.65434 128.044606 
L 209.578229 120.882425 
L 210.733092 109.9827 
L 212.349899 94.164186 
L 212.580872 92.191852 
L 213.273789 103.572175 
L 213.966707 111.165878 
L 214.890596 118.790977 
L 215.814486 124.79104 
L 216.276431 127.337331 
L 217.200321 119.954788 
L 218.355184 108.705704 
L 219.971991 91.99584 
L 220.664908 102.999784 
L 221.357826 110.456844 
L 222.281716 118.159321 
L 223.205606 124.251352 
L 223.898523 128.023063 
L 224.822413 120.72078 
L 225.977275 109.574582 
L 227.594083 91.998058 
L 228.287 102.660501 
L 229.21089 112.105495 
L 230.13478 119.302783 
L 231.05867 125.01283 
L 231.520615 127.427196 
L 232.444505 119.967256 
L 233.599367 108.588216 
L 234.985202 93.033228 
L 235.678119 102.894963 
L 236.602009 111.918113 
L 237.525899 118.790176 
L 238.449789 124.156347 
L 239.142706 127.432529 
L 240.297569 118.177863 
L 241.452431 107.055817 
L 242.838266 91.762607 
L 243.531183 101.376785 
L 244.455073 110.303225 
L 245.378963 117.123669 
L 246.302853 122.490787 
L 247.226743 126.809876 
L 248.150633 120.169486 
L 249.305495 110.150215 
L 250.460358 97.967907 
L 250.922303 92.777457 
L 251.61522 101.534773 
L 252.53911 110.149504 
L 253.463 116.842934 
L 254.38689 122.181043 
L 255.541752 127.473523 
L 256.465642 121.326006 
L 257.389532 113.894339 
L 258.544394 102.625731 
L 259.468284 92.255883 
L 260.161202 100.893169 
L 261.085092 109.534485 
L 262.008982 116.239618 
L 262.932871 121.599245 
L 263.856761 125.916364 
L 264.087734 126.863723 
L 265.011624 120.628053 
L 265.935514 113.074199 
L 267.090376 101.614466 
L 268.014266 91.057724 
L 268.707183 99.594666 
L 269.631073 107.984129 
L 270.554963 114.416878 
L 271.478853 119.389749 
L 272.402743 123.192048 
L 273.326633 126.003872 
L 273.557605 126.578709 
L 274.481495 120.321484 
L 275.636358 110.690541 
L 277.022193 96.970092 
L 277.484137 91.9961 
L 278.177055 98.249565 
L 278.869972 102.782375 
L 279.56289 106.037598 
L 280.255807 108.30081 
L 280.948725 109.727592 
L 281.641642 110.487986 
L 282.103587 110.654404 
L 282.565532 110.594904 
L 283.027477 110.319772 
L 283.720394 109.533708 
L 284.413312 108.296224 
L 285.337202 106.072139 
L 286.492064 102.516577 
L 288.339844 95.835458 
L 290.880541 86.831061 
L 291.804431 83.795543 
L 291.804431 83.795543 
" clip-path="url(#pacbc479763)" style="fill: none; stroke: #ff0000; stroke-width: 1.5; stroke-linecap: square"/>
   </g>
   <g id="line2d_23">
    <path d="M 189.714596 95.500152 
L 189.945569 94.810605 
L 190.638486 107.995958 
L 191.331404 116.136581 
L 192.024321 121.805923 
L 192.948211 127.520122 
L 193.872101 132.098289 
L 195.026963 136.66147 
L 196.181826 140.265902 
L 197.336688 143.146662 
L 198.491551 145.461286 
L 199.646413 147.355066 
L 201.032248 149.175963 
L 202.418083 150.582287 
L 203.803918 151.698283 
L 205.189752 152.574904 
L 207.037532 153.460173 
L 209.116285 154.164001 
L 211.195037 154.63321 
L 213.504762 154.946402 
L 216.045459 155.064251 
L 218.355184 154.95447 
L 220.433936 154.61879 
L 222.050743 154.137415 
L 223.436578 153.518588 
L 227.132138 151.601362 
L 228.748945 151.209231 
L 230.827697 150.975913 
L 235.447147 150.79772 
L 241.683404 150.578545 
L 245.378963 150.277309 
L 247.919661 149.877447 
L 249.998413 149.32323 
L 251.61522 148.662186 
L 253.001055 147.848602 
L 254.155917 146.94317 
L 255.31078 145.76016 
L 256.465642 144.204664 
L 257.620505 142.19982 
L 258.775367 139.734825 
L 259.930229 136.780614 
L 261.316064 132.586925 
L 267.552321 112.598103 
L 270.554963 103.754568 
L 272.864688 96.04783 
L 275.174413 88.447781 
L 276.79122 83.837881 
L 278.869972 78.601906 
L 280.255807 75.628009 
L 282.103587 72.247296 
L 284.875257 67.30873 
L 287.415954 62.397763 
L 289.032761 58.803569 
L 290.880541 54.164985 
L 291.804431 51.538182 
L 291.804431 51.538182 
" clip-path="url(#pacbc479763)" style="fill: none; stroke-dasharray: 5.55,2.4; stroke-dashoffset: 0; stroke: #0000ff; stroke-width: 1.5"/>
   </g>
   <g id="line2d_24">
    <path d="M 189.714596 155.901818 
L 224.822413 155.796117 
L 230.596725 155.549289 
L 233.599367 155.17855 
L 237.294927 154.515692 
L 238.911734 153.902898 
L 240.990486 153.079106 
L 242.607294 152.748029 
L 243.993128 152.48563 
L 246.533826 151.623658 
L 248.381605 151.115467 
L 250.229385 150.907157 
L 254.155917 150.563426 
L 257.620505 150.320539 
L 263.163844 149.974904 
L 265.935514 149.575542 
L 268.707183 148.952883 
L 270.323991 148.348422 
L 271.709826 147.569318 
L 272.864688 146.661024 
L 274.01955 145.423612 
L 275.174413 143.83704 
L 278.639 138.399919 
L 279.56289 136.280824 
L 280.717752 133.021804 
L 282.103587 128.372459 
L 283.720394 122.108605 
L 285.337202 114.958831 
L 287.877899 102.515499 
L 289.956651 92.971336 
L 291.804431 85.61004 
L 291.804431 85.61004 
" clip-path="url(#pacbc479763)" style="fill: none; stroke-dasharray: 1.5,2.475; stroke-dashoffset: 0; stroke: #ff0000; stroke-width: 1.5"/>
   </g>
   <g id="line2d_25">
    <path d="M 189.714596 155.901433 
L 211.887954 155.793526 
L 216.045459 155.570031 
L 218.817129 155.209463 
L 220.895881 154.715982 
L 222.512688 154.113378 
L 223.898523 153.379817 
L 225.977275 152.151215 
L 227.36311 151.592835 
L 228.979917 151.217052 
L 231.05867 150.9919 
L 235.909092 150.799582 
L 243.300211 150.477617 
L 246.533826 150.1273 
L 248.84355 149.667407 
L 250.69133 149.069822 
L 252.077165 148.420908 
L 253.463 147.516477 
L 254.617862 146.510677 
L 255.772725 145.188649 
L 256.696615 143.843108 
L 257.851477 141.740144 
L 259.006339 139.183175 
L 260.161202 136.126844 
L 261.778009 131.07828 
L 266.397459 115.972013 
L 271.940798 99.21666 
L 275.405385 87.748111 
L 277.253165 82.611756 
L 279.100945 78.07148 
L 280.48678 75.177023 
L 282.565532 71.448372 
L 285.337202 66.444377 
L 287.877899 61.420195 
L 289.725679 57.139961 
L 291.342486 52.881897 
L 291.804431 51.538182 
L 291.804431 51.538182 
" clip-path="url(#pacbc479763)" style="fill: none; stroke-dasharray: 1.5,2.475; stroke-dashoffset: 0; stroke: #0000ff; stroke-width: 1.5"/>
   </g>
   <g id="patch_6">
    <path d="M 184.598556 161.12 
L 184.598556 46.32 
" style="fill: none; stroke: #000000; stroke-linejoin: miter; stroke-linecap: square"/>
   </g>
   <g id="patch_7">
    <path d="M 184.598556 161.12 
L 297.151444 161.12 
" style="fill: none; stroke: #000000; stroke-linejoin: miter; stroke-linecap: square"/>
   </g>
   <g id="text_17">
    <!-- Init Sens:1000 Init Res:1 -->
    <g transform="translate(187.320469 40.32)scale(0.11 -0.11)">
     <use xlink:href="#Calibri-49"/>
     <use xlink:href="#Calibri-6e" x="25.195312"/>
     <use xlink:href="#Calibri-69" x="77.734375"/>
     <use xlink:href="#Calibri-74" x="100.683594"/>
     <use xlink:href="#Calibri-20" x="134.179688"/>
     <use xlink:href="#Calibri-53" x="156.787109"/>
     <use xlink:href="#Calibri-65" x="202.734375"/>
     <use xlink:href="#Calibri-6e" x="252.490234"/>
     <use xlink:href="#Calibri-73" x="305.029297"/>
     <use xlink:href="#Calibri-3a" x="344.140625"/>
     <use xlink:href="#Calibri-31" x="370.898438"/>
     <use xlink:href="#Calibri-30" x="421.582031"/>
     <use xlink:href="#Calibri-30" x="472.265625"/>
     <use xlink:href="#Calibri-30" x="522.949219"/>
     <use xlink:href="#Calibri-20" x="573.632812"/>
     <use xlink:href="#Calibri-49" x="596.240234"/>
     <use xlink:href="#Calibri-6e" x="621.435547"/>
     <use xlink:href="#Calibri-69" x="673.974609"/>
     <use xlink:href="#Calibri-74" x="696.923828"/>
     <use xlink:href="#Calibri-20" x="730.419922"/>
     <use xlink:href="#Calibri-52" x="753.027344"/>
     <use xlink:href="#Calibri-65" x="807.324219"/>
     <use xlink:href="#Calibri-73" x="857.080078"/>
     <use xlink:href="#Calibri-3a" x="896.191406"/>
     <use xlink:href="#Calibri-31" x="922.949219"/>
    </g>
   </g>
  </g>
  <g id="axes_3">
   <g id="patch_8">
    <path d="M 336.367112 161.12 
L 448.92 161.12 
L 448.92 46.32 
L 336.367112 46.32 
z
" style="fill: #ffffff"/>
   </g>
   <g id="matplotlib.axis_5">
    <g id="xtick_7">
     <g id="line2d_26">
      <g>
       <use xlink:href="#mdc5dd479cc" x="341.483153" y="161.12" style="stroke: #000000; stroke-width: 0.8"/>
      </g>
     </g>
     <g id="text_18">
      <!-- 0 -->
      <g transform="translate(338.69534 175.601719)scale(0.11 -0.11)">
       <use xlink:href="#Calibri-30"/>
      </g>
     </g>
    </g>
    <g id="xtick_8">
     <g id="line2d_27">
      <g>
       <use xlink:href="#mdc5dd479cc" x="379.520627" y="161.12" style="stroke: #000000; stroke-width: 0.8"/>
      </g>
     </g>
     <g id="text_19">
      <!-- 100 -->
      <g transform="translate(371.15719 175.601719)scale(0.11 -0.11)">
       <use xlink:href="#Calibri-31"/>
       <use xlink:href="#Calibri-30" x="50.683594"/>
       <use xlink:href="#Calibri-30" x="101.367188"/>
      </g>
     </g>
    </g>
    <g id="xtick_9">
     <g id="line2d_28">
      <g>
       <use xlink:href="#mdc5dd479cc" x="417.558102" y="161.12" style="stroke: #000000; stroke-width: 0.8"/>
      </g>
     </g>
     <g id="text_20">
      <!-- 200 -->
      <g transform="translate(409.194665 175.601719)scale(0.11 -0.11)">
       <use xlink:href="#Calibri-32"/>
       <use xlink:href="#Calibri-30" x="50.683594"/>
       <use xlink:href="#Calibri-30" x="101.367188"/>
      </g>
     </g>
    </g>
   </g>
   <g id="matplotlib.axis_6">
    <g id="ytick_8">
     <g id="line2d_29">
      <g>
       <use xlink:href="#m0597d7ef7e" x="336.367112" y="156.004991" style="stroke: #000000; stroke-width: 0.8"/>
      </g>
     </g>
     <g id="text_21">
      <!-- 0 -->
      <g transform="translate(323.791487 159.745851)scale(0.11 -0.11)">
       <use xlink:href="#Calibri-30"/>
      </g>
     </g>
    </g>
    <g id="ytick_9">
     <g id="line2d_30">
      <g>
       <use xlink:href="#m0597d7ef7e" x="336.367112" y="115.356851" style="stroke: #000000; stroke-width: 0.8"/>
      </g>
     </g>
     <g id="text_22">
      <!-- 1 -->
      <g transform="translate(323.791487 119.097711)scale(0.11 -0.11)">
       <use xlink:href="#Calibri-31"/>
      </g>
     </g>
    </g>
    <g id="ytick_10">
     <g id="line2d_31">
      <g>
       <use xlink:href="#m0597d7ef7e" x="336.367112" y="74.708711" style="stroke: #000000; stroke-width: 0.8"/>
      </g>
     </g>
     <g id="text_23">
      <!-- 2 -->
      <g transform="translate(323.791487 78.44957)scale(0.11 -0.11)">
       <use xlink:href="#Calibri-32"/>
      </g>
     </g>
    </g>
    <g id="text_24">
     <!-- 1e7 -->
     <g transform="translate(336.367112 43.32)scale(0.11 -0.11)">
      <use xlink:href="#Calibri-31"/>
      <use xlink:href="#Calibri-65" x="50.683594"/>
      <use xlink:href="#Calibri-37" x="100.439453"/>
     </g>
    </g>
   </g>
   <g id="line2d_32">
    <path d="M 443.80396 161.12 
L 443.80396 46.32 
" clip-path="url(#p2caa761569)" style="fill: none; stroke: #ff0000; stroke-width: 1.5; stroke-linecap: square"/>
   </g>
   <g id="line2d_33">
    <path d="M 416.416978 161.12 
L 416.416978 46.32 
" clip-path="url(#p2caa761569)" style="fill: none; stroke-dasharray: 5.55,2.4; stroke-dashoffset: 0; stroke: #0000ff; stroke-width: 1.5"/>
   </g>
   <g id="line2d_34">
    <path d="M 341.483153 114.945577 
L 341.863527 114.45454 
L 342.624277 120.896774 
L 343.385026 125.448447 
L 344.145776 128.866586 
L 345.2869 132.701982 
L 346.428024 135.677511 
L 346.808399 136.562709 
L 348.329898 131.770318 
L 351.753271 120.181789 
L 353.27477 115.848775 
L 354.035519 113.933703 
L 354.796269 119.796778 
L 355.557018 124.07404 
L 356.317768 127.348508 
L 357.458892 131.101672 
L 358.600016 134.156136 
L 359.741141 136.700088 
L 360.882265 133.136726 
L 362.403764 127.620086 
L 365.066387 117.519275 
L 366.207511 113.73797 
L 366.968261 119.029118 
L 367.72901 122.965915 
L 368.48976 125.994209 
L 369.630884 129.587513 
L 370.772008 132.47934 
L 371.913132 134.839281 
L 372.673882 136.165927 
L 374.195381 131.343358 
L 375.71688 125.892008 
L 379.140253 112.744859 
L 379.901002 117.479444 
L 380.661752 121.00013 
L 381.802876 124.970226 
L 382.944 128.071927 
L 384.085124 130.565255 
L 385.226249 132.561811 
L 386.367373 134.175184 
L 387.508497 135.480603 
L 387.888872 135.854347 
L 389.410371 131.974648 
L 390.93187 127.476781 
L 392.833744 121.141996 
L 395.115992 112.794957 
L 395.876742 116.305676 
L 397.017866 120.193366 
L 398.15899 123.131658 
L 399.300114 125.386686 
L 400.441238 127.127825 
L 401.582363 128.473026 
L 402.723487 129.509176 
L 404.244986 130.505905 
L 405.766485 131.195423 
L 407.287984 131.635151 
L 408.809483 131.867857 
L 410.711357 131.903038 
L 412.232856 131.710106 
L 413.754355 131.312031 
L 416.036603 130.406821 
L 419.459976 128.743678 
L 422.502974 127.234445 
L 429.349719 124.051509 
L 431.251593 122.800497 
L 433.533841 120.974152 
L 435.81609 118.825532 
L 437.717964 116.709577 
L 439.239463 114.69664 
L 440.760962 112.329455 
L 442.282461 109.512271 
L 443.423585 107.108327 
L 443.423585 107.108327 
" clip-path="url(#p2caa761569)" style="fill: none; stroke: #ff0000; stroke-width: 1.5; stroke-linecap: square"/>
   </g>
   <g id="line2d_35">
    <path d="M 341.483153 115.252845 
L 341.863527 114.77188 
L 342.624277 120.955007 
L 343.385026 125.325397 
L 344.145776 128.587658 
L 344.906525 131.121724 
L 346.04765 134.111326 
L 347.188774 136.545767 
L 348.710273 139.165698 
L 350.231772 141.241546 
L 351.753271 142.88619 
L 353.27477 144.195898 
L 354.796269 145.225381 
L 356.317768 146.033507 
L 357.839267 146.63779 
L 359.741141 147.12773 
L 361.643014 147.333548 
L 363.925263 147.255422 
L 366.207511 146.946822 
L 369.250509 146.278838 
L 372.293507 145.701753 
L 375.71688 145.267236 
L 381.042126 144.577295 
L 383.70475 144.021241 
L 385.986998 143.332576 
L 387.888872 142.563257 
L 390.551495 141.163729 
L 393.594493 139.255462 
L 397.39824 136.649863 
L 399.680489 134.846663 
L 401.582363 133.054551 
L 403.103862 131.338391 
L 404.625361 129.321711 
L 406.527234 126.416844 
L 408.809483 122.531488 
L 411.091731 118.199668 
L 414.134729 111.873574 
L 418.318852 102.454262 
L 424.404848 88.877669 
L 428.969345 78.724475 
L 431.631968 72.897442 
L 433.914216 68.33955 
L 436.576839 63.536574 
L 443.04321 52.259548 
L 443.423585 51.538182 
L 443.423585 51.538182 
" clip-path="url(#p2caa761569)" style="fill: none; stroke-dasharray: 5.55,2.4; stroke-dashoffset: 0; stroke: #0000ff; stroke-width: 1.5"/>
   </g>
   <g id="line2d_36">
    <path d="M 341.483153 155.901818 
L 348.710273 155.780215 
L 359.360766 155.368238 
L 368.870134 154.345372 
L 371.152383 153.79907 
L 373.815006 152.910912 
L 376.477629 152.138337 
L 378.759878 151.701369 
L 380.661752 151.349222 
L 382.563625 150.708929 
L 385.606623 149.400567 
L 393.214118 145.944312 
L 395.496367 145.303523 
L 397.017866 144.746973 
L 398.919739 143.751898 
L 401.582363 142.059708 
L 407.287984 138.391506 
L 413.37398 134.718552 
L 423.263723 127.935617 
L 430.490843 123.769407 
L 432.392717 122.26799 
L 434.674966 120.202349 
L 436.576839 118.225581 
L 438.478713 115.900593 
L 440.000212 113.694667 
L 441.521711 111.084219 
L 443.04321 108.014338 
L 443.423585 107.192075 
L 443.423585 107.192075 
" clip-path="url(#p2caa761569)" style="fill: none; stroke-dasharray: 1.5,2.475; stroke-dashoffset: 0; stroke: #ff0000; stroke-width: 1.5"/>
   </g>
   <g id="line2d_37">
    <path d="M 341.483153 154.706405 
L 344.145776 154.556621 
L 347.188774 154.128832 
L 352.133646 153.165633 
L 358.980391 151.63269 
L 361.643014 150.824719 
L 365.827136 149.230308 
L 371.532758 146.993526 
L 374.195381 146.293825 
L 377.999128 145.556891 
L 382.563625 144.608521 
L 385.226249 143.824618 
L 387.508497 142.916473 
L 389.790746 141.732458 
L 392.453369 140.097894 
L 397.017866 136.983755 
L 399.300114 135.213025 
L 401.201988 133.472634 
L 402.723487 131.823901 
L 404.244986 129.878814 
L 406.14686 127.045947 
L 408.429108 123.218787 
L 410.711357 118.962874 
L 413.754355 112.699902 
L 417.177727 105.069453 
L 423.644098 90.541633 
L 433.533841 69.072716 
L 435.81609 64.859134 
L 443.423585 51.538227 
L 443.423585 51.538227 
" clip-path="url(#p2caa761569)" style="fill: none; stroke-dasharray: 1.5,2.475; stroke-dashoffset: 0; stroke: #0000ff; stroke-width: 1.5"/>
   </g>
   <g id="patch_9">
    <path d="M 336.367112 161.12 
L 336.367112 46.32 
" style="fill: none; stroke: #000000; stroke-linejoin: miter; stroke-linecap: square"/>
   </g>
   <g id="patch_10">
    <path d="M 336.367112 161.12 
L 448.92 161.12 
" style="fill: none; stroke: #000000; stroke-linejoin: miter; stroke-linecap: square"/>
   </g>
   <g id="text_25">
    <!-- Init Sens:10000 Init Res:1 -->
    <g transform="translate(336.301212 40.32)scale(0.11 -0.11)">
     <use xlink:href="#Calibri-49"/>
     <use xlink:href="#Calibri-6e" x="25.195312"/>
     <use xlink:href="#Calibri-69" x="77.734375"/>
     <use xlink:href="#Calibri-74" x="100.683594"/>
     <use xlink:href="#Calibri-20" x="134.179688"/>
     <use xlink:href="#Calibri-53" x="156.787109"/>
     <use xlink:href="#Calibri-65" x="202.734375"/>
     <use xlink:href="#Calibri-6e" x="252.490234"/>
     <use xlink:href="#Calibri-73" x="305.029297"/>
     <use xlink:href="#Calibri-3a" x="344.140625"/>
     <use xlink:href="#Calibri-31" x="370.898438"/>
     <use xlink:href="#Calibri-30" x="421.582031"/>
     <use xlink:href="#Calibri-30" x="472.265625"/>
     <use xlink:href="#Calibri-30" x="522.949219"/>
     <use xlink:href="#Calibri-30" x="573.632812"/>
     <use xlink:href="#Calibri-20" x="624.316406"/>
     <use xlink:href="#Calibri-49" x="646.923828"/>
     <use xlink:href="#Calibri-6e" x="672.119141"/>
     <use xlink:href="#Calibri-69" x="724.658203"/>
     <use xlink:href="#Calibri-74" x="747.607422"/>
     <use xlink:href="#Calibri-20" x="781.103516"/>
     <use xlink:href="#Calibri-52" x="803.710938"/>
     <use xlink:href="#Calibri-65" x="858.007812"/>
     <use xlink:href="#Calibri-73" x="907.763672"/>
     <use xlink:href="#Calibri-3a" x="946.875"/>
     <use xlink:href="#Calibri-31" x="973.632812"/>
    </g>
   </g>
  </g>
  <g id="axes_4">
   <g id="patch_11">
    <path d="M 32.83 317.36 
L 145.382888 317.36 
L 145.382888 202.56 
L 32.83 202.56 
z
" style="fill: #ffffff"/>
   </g>
   <g id="matplotlib.axis_7">
    <g id="xtick_10">
     <g id="line2d_38">
      <g>
       <use xlink:href="#mdc5dd479cc" x="37.94604" y="317.36" style="stroke: #000000; stroke-width: 0.8"/>
      </g>
     </g>
     <g id="text_26">
      <!-- 0 -->
      <g transform="translate(35.158228 331.841719)scale(0.11 -0.11)">
       <use xlink:href="#Calibri-30"/>
      </g>
     </g>
    </g>
    <g id="xtick_11">
     <g id="line2d_39">
      <g>
       <use xlink:href="#mdc5dd479cc" x="89.106444" y="317.36" style="stroke: #000000; stroke-width: 0.8"/>
      </g>
     </g>
     <g id="text_27">
      <!-- 500 -->
      <g transform="translate(80.743006 331.841719)scale(0.11 -0.11)">
       <use xlink:href="#Calibri-35"/>
       <use xlink:href="#Calibri-30" x="50.683594"/>
       <use xlink:href="#Calibri-30" x="101.367188"/>
      </g>
     </g>
    </g>
    <g id="xtick_12">
     <g id="line2d_40">
      <g>
       <use xlink:href="#mdc5dd479cc" x="140.266847" y="317.36" style="stroke: #000000; stroke-width: 0.8"/>
      </g>
     </g>
     <g id="text_28">
      <!-- 1000 -->
      <g transform="translate(129.115597 331.841719)scale(0.11 -0.11)">
       <use xlink:href="#Calibri-31"/>
       <use xlink:href="#Calibri-30" x="50.683594"/>
       <use xlink:href="#Calibri-30" x="101.367188"/>
       <use xlink:href="#Calibri-30" x="152.050781"/>
      </g>
     </g>
    </g>
   </g>
   <g id="matplotlib.axis_8">
    <g id="ytick_11">
     <g id="line2d_41">
      <g>
       <use xlink:href="#m0597d7ef7e" x="32.83" y="312.141818" style="stroke: #000000; stroke-width: 0.8"/>
      </g>
     </g>
     <g id="text_29">
      <!-- 0 -->
      <g transform="translate(20.254375 315.882678)scale(0.11 -0.11)">
       <use xlink:href="#Calibri-30"/>
      </g>
     </g>
    </g>
    <g id="ytick_12">
     <g id="line2d_42">
      <g>
       <use xlink:href="#m0597d7ef7e" x="32.83" y="284.356443" style="stroke: #000000; stroke-width: 0.8"/>
      </g>
     </g>
     <g id="text_30">
      <!-- 1 -->
      <g transform="translate(20.254375 288.097302)scale(0.11 -0.11)">
       <use xlink:href="#Calibri-31"/>
      </g>
     </g>
    </g>
    <g id="ytick_13">
     <g id="line2d_43">
      <g>
       <use xlink:href="#m0597d7ef7e" x="32.83" y="256.571068" style="stroke: #000000; stroke-width: 0.8"/>
      </g>
     </g>
     <g id="text_31">
      <!-- 2 -->
      <g transform="translate(20.254375 260.311927)scale(0.11 -0.11)">
       <use xlink:href="#Calibri-32"/>
      </g>
     </g>
    </g>
    <g id="ytick_14">
     <g id="line2d_44">
      <g>
       <use xlink:href="#m0597d7ef7e" x="32.83" y="228.785693" style="stroke: #000000; stroke-width: 0.8"/>
      </g>
     </g>
     <g id="text_32">
      <!-- 3 -->
      <g transform="translate(20.254375 232.526552)scale(0.11 -0.11)">
       <defs>
        <path id="Calibri-33" d="M 2856 1156 
Q 2856 878 2759 654 
Q 2663 431 2481 272 
Q 2300 113 2034 27 
Q 1769 -59 1434 -59 
Q 1231 -59 1054 -26 
Q 878 6 740 51 
Q 603 97 512 145 
Q 422 194 398 216 
Q 375 238 362 259 
Q 350 281 340 312 
Q 331 344 326 389 
Q 322 434 322 500 
Q 322 613 344 656 
Q 366 700 406 700 
Q 434 700 517 650 
Q 600 600 729 542 
Q 859 484 1032 434 
Q 1206 384 1419 384 
Q 1625 384 1781 437 
Q 1938 491 2044 587 
Q 2150 684 2203 817 
Q 2256 950 2256 1106 
Q 2256 1278 2189 1415 
Q 2122 1553 1992 1653 
Q 1863 1753 1673 1806 
Q 1484 1859 1244 1859 
L 859 1859 
Q 834 1859 811 1870 
Q 788 1881 770 1906 
Q 753 1931 742 1972 
Q 731 2013 731 2078 
Q 731 2138 740 2177 
Q 750 2216 767 2239 
Q 784 2263 806 2273 
Q 828 2284 856 2284 
L 1209 2284 
Q 1416 2284 1580 2337 
Q 1744 2391 1858 2491 
Q 1972 2591 2033 2730 
Q 2094 2869 2094 3041 
Q 2094 3166 2053 3280 
Q 2013 3394 1931 3478 
Q 1850 3563 1723 3611 
Q 1597 3659 1431 3659 
Q 1250 3659 1098 3604 
Q 947 3550 828 3487 
Q 709 3425 631 3370 
Q 553 3316 522 3316 
Q 500 3316 483 3323 
Q 466 3331 455 3354 
Q 444 3378 439 3420 
Q 434 3463 434 3531 
Q 434 3578 437 3614 
Q 441 3650 450 3676 
Q 459 3703 471 3725 
Q 484 3747 514 3776 
Q 544 3806 634 3862 
Q 725 3919 858 3973 
Q 991 4028 1164 4065 
Q 1338 4103 1538 4103 
Q 1819 4103 2031 4031 
Q 2244 3959 2386 3828 
Q 2528 3697 2598 3514 
Q 2669 3331 2669 3109 
Q 2669 2919 2619 2755 
Q 2569 2591 2472 2464 
Q 2375 2338 2234 2248 
Q 2094 2159 1909 2125 
L 1909 2119 
Q 2119 2097 2292 2014 
Q 2466 1931 2591 1806 
Q 2716 1681 2786 1514 
Q 2856 1347 2856 1156 
z
" transform="scale(0.015625)"/>
       </defs>
       <use xlink:href="#Calibri-33"/>
      </g>
     </g>
    </g>
    <g id="text_33">
     <!-- 1e8 -->
     <g transform="translate(32.83 199.56)scale(0.11 -0.11)">
      <defs>
       <path id="Calibri-38" d="M 2981 1038 
Q 2981 775 2887 570 
Q 2794 366 2617 225 
Q 2441 84 2181 12 
Q 1922 -59 1588 -59 
Q 1275 -59 1028 6 
Q 781 72 609 200 
Q 438 328 347 515 
Q 256 703 256 944 
Q 256 1134 318 1293 
Q 381 1453 498 1587 
Q 616 1722 787 1839 
Q 959 1956 1175 2063 
Q 988 2159 844 2267 
Q 700 2375 600 2501 
Q 500 2628 448 2772 
Q 397 2916 397 3084 
Q 397 3297 473 3483 
Q 550 3669 704 3806 
Q 859 3944 1098 4023 
Q 1338 4103 1656 4103 
Q 1963 4103 2186 4029 
Q 2409 3956 2554 3829 
Q 2700 3703 2769 3531 
Q 2838 3359 2838 3163 
Q 2838 3003 2786 2856 
Q 2734 2709 2634 2578 
Q 2534 2447 2389 2333 
Q 2244 2219 2056 2119 
Q 2278 2009 2451 1893 
Q 2625 1778 2742 1645 
Q 2859 1513 2920 1364 
Q 2981 1216 2981 1038 
z
M 2306 3113 
Q 2306 3244 2261 3350 
Q 2216 3456 2128 3531 
Q 2041 3606 1911 3645 
Q 1781 3684 1616 3684 
Q 1278 3684 1104 3531 
Q 931 3378 931 3113 
Q 931 2991 973 2886 
Q 1016 2781 1105 2687 
Q 1194 2594 1330 2505 
Q 1466 2416 1653 2319 
Q 1969 2481 2137 2678 
Q 2306 2875 2306 3113 
z
M 2438 981 
Q 2438 1125 2384 1242 
Q 2331 1359 2223 1461 
Q 2116 1563 1955 1658 
Q 1794 1753 1581 1856 
Q 1384 1759 1236 1662 
Q 1088 1566 992 1462 
Q 897 1359 848 1245 
Q 800 1131 800 994 
Q 800 691 1008 525 
Q 1216 359 1628 359 
Q 2028 359 2233 526 
Q 2438 694 2438 981 
z
" transform="scale(0.015625)"/>
      </defs>
      <use xlink:href="#Calibri-31"/>
      <use xlink:href="#Calibri-65" x="50.683594"/>
      <use xlink:href="#Calibri-38" x="100.439453"/>
     </g>
    </g>
   </g>
   <g id="line2d_45">
    <path d="M 74.372248 317.36 
L 74.372248 202.56 
" clip-path="url(#p0af5ca1c2d)" style="fill: none; stroke: #ff0000; stroke-width: 1.5; stroke-linecap: square"/>
   </g>
   <g id="line2d_46">
    <path d="M 140.266847 317.36 
L 140.266847 202.56 
" clip-path="url(#p0af5ca1c2d)" style="fill: none; stroke-dasharray: 5.55,2.4; stroke-dashoffset: 0; stroke: #0000ff; stroke-width: 1.5"/>
   </g>
   <g id="line2d_47">
    <path d="M 37.94604 309.341513 
L 38.048361 309.304188 
L 38.457644 310.050282 
L 38.969248 310.546745 
L 39.378532 310.814765 
L 40.606381 309.766524 
L 41.322627 309.234006 
L 41.73191 309.933565 
L 42.345835 310.505528 
L 42.857439 310.833298 
L 43.778326 310.001061 
L 44.596893 309.21739 
L 45.108497 309.991354 
L 45.824742 310.588668 
L 46.234026 310.834218 
L 47.052592 310.096132 
L 47.871159 309.221725 
L 48.382763 309.950665 
L 49.201329 310.605566 
L 49.610612 310.833281 
L 50.429179 310.09487 
L 51.247745 309.187734 
L 51.759349 309.883732 
L 52.475595 310.462763 
L 53.08952 310.794331 
L 54.010407 309.990567 
L 54.726653 309.188421 
L 55.238257 309.836944 
L 56.056823 310.472089 
L 56.670748 310.790249 
L 57.591635 310.037867 
L 58.307881 309.241641 
L 58.921806 309.941138 
L 59.740372 310.526311 
L 60.354297 310.824663 
L 61.172864 310.200545 
L 62.093751 309.19785 
L 62.196072 309.342162 
L 62.809996 309.97345 
L 63.628563 310.505036 
L 64.344809 310.795781 
L 65.163375 310.160226 
L 66.084262 309.172178 
L 66.186583 309.294522 
L 66.800508 309.816858 
L 67.516754 310.149791 
L 68.437641 310.314158 
L 69.56317 310.264373 
L 71.097982 309.951929 
L 72.939756 309.298673 
L 76.418664 308.057966 
L 78.772042 307.359922 
L 80.511496 307.079027 
L 82.762554 306.691376 
L 83.990404 306.260398 
L 85.013612 305.677221 
L 86.241461 304.689302 
L 87.571632 303.314897 
L 91.050539 299.210108 
L 97.087467 291.954449 
L 99.236204 289.76053 
L 104.147602 285.34527 
L 105.375452 283.730266 
L 106.603302 281.739219 
L 107.728831 279.430677 
L 108.95668 276.407785 
L 110.286851 272.544924 
L 113.356475 263.473403 
L 115.19825 258.937214 
L 117.551628 253.72194 
L 120.928215 246.882255 
L 127.476746 234.727872 
L 129.523163 230.26441 
L 131.77422 224.758159 
L 134.843845 217.376395 
L 136.992582 213.085525 
L 138.732035 209.972684 
L 140.164527 207.778182 
L 140.164527 207.778182 
" clip-path="url(#p0af5ca1c2d)" style="fill: none; stroke: #ff0000; stroke-width: 1.5; stroke-linecap: square"/>
   </g>
   <g id="line2d_48">
    <path d="M 37.94604 309.344779 
L 38.048361 309.317595 
L 38.457644 310.081729 
L 38.969248 310.580767 
L 39.890136 311.100325 
L 41.117985 311.511318 
L 42.755118 311.810389 
L 45.210818 312.013713 
L 49.712933 312.120079 
L 64.344809 312.141768 
L 140.164527 312.141818 
L 140.164527 312.141818 
" clip-path="url(#p0af5ca1c2d)" style="fill: none; stroke-dasharray: 5.55,2.4; stroke-dashoffset: 0; stroke: #0000ff; stroke-width: 1.5"/>
   </g>
   <g id="line2d_49">
    <path d="M 37.94604 312.141484 
L 52.066312 312.034105 
L 58.614843 311.891419 
L 64.54945 311.745878 
L 67.312112 311.407259 
L 69.051566 310.917269 
L 71.916548 309.840008 
L 75.293135 308.483755 
L 78.567401 307.411139 
L 80.306854 307.105475 
L 82.762554 306.691465 
L 83.990404 306.260429 
L 85.013612 305.677236 
L 86.241461 304.689308 
L 87.571632 303.314899 
L 91.050539 299.210108 
L 97.087467 291.954449 
L 99.236204 289.76053 
L 104.147602 285.34527 
L 105.375452 283.730266 
L 106.603302 281.739219 
L 107.728831 279.430677 
L 108.95668 276.407785 
L 110.286851 272.544924 
L 113.356475 263.473403 
L 115.19825 258.937214 
L 117.551628 253.72194 
L 120.928215 246.882255 
L 127.476746 234.727872 
L 129.523163 230.26441 
L 131.77422 224.758159 
L 134.843845 217.376395 
L 136.992582 213.085525 
L 138.732035 209.972684 
L 140.164527 207.778182 
L 140.164527 207.778182 
" clip-path="url(#p0af5ca1c2d)" style="fill: none; stroke-dasharray: 1.5,2.475; stroke-dashoffset: 0; stroke: #ff0000; stroke-width: 1.5"/>
   </g>
   <g id="line2d_50">
    <path d="M 37.94604 312.141818 
L 140.164527 312.141818 
L 140.164527 312.141818 
" clip-path="url(#p0af5ca1c2d)" style="fill: none; stroke-dasharray: 1.5,2.475; stroke-dashoffset: 0; stroke: #0000ff; stroke-width: 1.5"/>
   </g>
   <g id="patch_12">
    <path d="M 32.83 317.36 
L 32.83 202.56 
" style="fill: none; stroke: #000000; stroke-linejoin: miter; stroke-linecap: square"/>
   </g>
   <g id="patch_13">
    <path d="M 32.83 317.36 
L 145.382888 317.36 
" style="fill: none; stroke: #000000; stroke-linejoin: miter; stroke-linecap: square"/>
   </g>
   <g id="text_34">
    <!-- Init Sens:100 Init Res:10 -->
    <g transform="translate(35.551913 196.56)scale(0.11 -0.11)">
     <use xlink:href="#Calibri-49"/>
     <use xlink:href="#Calibri-6e" x="25.195312"/>
     <use xlink:href="#Calibri-69" x="77.734375"/>
     <use xlink:href="#Calibri-74" x="100.683594"/>
     <use xlink:href="#Calibri-20" x="134.179688"/>
     <use xlink:href="#Calibri-53" x="156.787109"/>
     <use xlink:href="#Calibri-65" x="202.734375"/>
     <use xlink:href="#Calibri-6e" x="252.490234"/>
     <use xlink:href="#Calibri-73" x="305.029297"/>
     <use xlink:href="#Calibri-3a" x="344.140625"/>
     <use xlink:href="#Calibri-31" x="370.898438"/>
     <use xlink:href="#Calibri-30" x="421.582031"/>
     <use xlink:href="#Calibri-30" x="472.265625"/>
     <use xlink:href="#Calibri-20" x="522.949219"/>
     <use xlink:href="#Calibri-49" x="545.556641"/>
     <use xlink:href="#Calibri-6e" x="570.751953"/>
     <use xlink:href="#Calibri-69" x="623.291016"/>
     <use xlink:href="#Calibri-74" x="646.240234"/>
     <use xlink:href="#Calibri-20" x="679.736328"/>
     <use xlink:href="#Calibri-52" x="702.34375"/>
     <use xlink:href="#Calibri-65" x="756.640625"/>
     <use xlink:href="#Calibri-73" x="806.396484"/>
     <use xlink:href="#Calibri-3a" x="845.507812"/>
     <use xlink:href="#Calibri-31" x="872.265625"/>
     <use xlink:href="#Calibri-30" x="922.949219"/>
    </g>
   </g>
  </g>
  <g id="axes_5">
   <g id="patch_14">
    <path d="M 184.598556 317.36 
L 297.151444 317.36 
L 297.151444 202.56 
L 184.598556 202.56 
z
" style="fill: #ffffff"/>
   </g>
   <g id="matplotlib.axis_9">
    <g id="xtick_13">
     <g id="line2d_51">
      <g>
       <use xlink:href="#mdc5dd479cc" x="189.714596" y="317.36" style="stroke: #000000; stroke-width: 0.8"/>
      </g>
     </g>
     <g id="text_35">
      <!-- 0 -->
      <g transform="translate(186.926784 331.841719)scale(0.11 -0.11)">
       <use xlink:href="#Calibri-30"/>
      </g>
     </g>
    </g>
    <g id="xtick_14">
     <g id="line2d_52">
      <g>
       <use xlink:href="#mdc5dd479cc" x="251.353637" y="317.36" style="stroke: #000000; stroke-width: 0.8"/>
      </g>
     </g>
     <g id="text_36">
      <!-- 100 -->
      <g transform="translate(242.990199 331.841719)scale(0.11 -0.11)">
       <use xlink:href="#Calibri-31"/>
       <use xlink:href="#Calibri-30" x="50.683594"/>
       <use xlink:href="#Calibri-30" x="101.367188"/>
      </g>
     </g>
    </g>
   </g>
   <g id="matplotlib.axis_10">
    <g id="ytick_15">
     <g id="line2d_53">
      <g>
       <use xlink:href="#m0597d7ef7e" x="184.598556" y="313.845796" style="stroke: #000000; stroke-width: 0.8"/>
      </g>
     </g>
     <g id="text_37">
      <!-- 0.0 -->
      <g transform="translate(163.669806 317.586655)scale(0.11 -0.11)">
       <use xlink:href="#Calibri-30"/>
       <use xlink:href="#Calibri-2e" x="50.683594"/>
       <use xlink:href="#Calibri-30" x="75.927734"/>
      </g>
     </g>
    </g>
    <g id="ytick_16">
     <g id="line2d_54">
      <g>
       <use xlink:href="#m0597d7ef7e" x="184.598556" y="284.324256" style="stroke: #000000; stroke-width: 0.8"/>
      </g>
     </g>
     <g id="text_38">
      <!-- 0.5 -->
      <g transform="translate(163.669806 288.065116)scale(0.11 -0.11)">
       <use xlink:href="#Calibri-30"/>
       <use xlink:href="#Calibri-2e" x="50.683594"/>
       <use xlink:href="#Calibri-35" x="75.927734"/>
      </g>
     </g>
    </g>
    <g id="ytick_17">
     <g id="line2d_55">
      <g>
       <use xlink:href="#m0597d7ef7e" x="184.598556" y="254.802717" style="stroke: #000000; stroke-width: 0.8"/>
      </g>
     </g>
     <g id="text_39">
      <!-- 1.0 -->
      <g transform="translate(163.669806 258.543576)scale(0.11 -0.11)">
       <use xlink:href="#Calibri-31"/>
       <use xlink:href="#Calibri-2e" x="50.683594"/>
       <use xlink:href="#Calibri-30" x="75.927734"/>
      </g>
     </g>
    </g>
    <g id="ytick_18">
     <g id="line2d_56">
      <g>
       <use xlink:href="#m0597d7ef7e" x="184.598556" y="225.281178" style="stroke: #000000; stroke-width: 0.8"/>
      </g>
     </g>
     <g id="text_40">
      <!-- 1.5 -->
      <g transform="translate(163.669806 229.022037)scale(0.11 -0.11)">
       <use xlink:href="#Calibri-31"/>
       <use xlink:href="#Calibri-2e" x="50.683594"/>
       <use xlink:href="#Calibri-35" x="75.927734"/>
      </g>
     </g>
    </g>
    <g id="text_41">
     <!-- 1e7 -->
     <g transform="translate(184.598556 199.56)scale(0.11 -0.11)">
      <use xlink:href="#Calibri-31"/>
      <use xlink:href="#Calibri-65" x="50.683594"/>
      <use xlink:href="#Calibri-37" x="100.439453"/>
     </g>
    </g>
   </g>
   <g id="line2d_57">
    <path d="M 267.996178 317.36 
L 267.996178 202.56 
" clip-path="url(#pe01bdda712)" style="fill: none; stroke: #ff0000; stroke-width: 1.5; stroke-linecap: square"/>
   </g>
   <g id="line2d_58">
    <path d="M 292.035404 317.36 
L 292.035404 202.56 
" clip-path="url(#pe01bdda712)" style="fill: none; stroke-dasharray: 5.55,2.4; stroke-dashoffset: 0; stroke: #0000ff; stroke-width: 1.5"/>
   </g>
   <g id="line2d_59">
    <path d="M 189.714596 254.156012 
L 190.330987 253.341483 
L 191.563768 261.802398 
L 192.796549 267.772179 
L 194.029329 272.207884 
L 195.26211 275.583885 
L 196.494891 278.241609 
L 197.727672 280.395016 
L 198.960453 282.168747 
L 200.193233 283.614411 
L 201.426014 284.756835 
L 203.275185 279.879859 
L 206.357137 271.060046 
L 210.67187 258.60492 
L 213.137432 252.216264 
L 214.370213 257.718719 
L 215.602993 261.61656 
L 216.835774 264.449051 
L 218.068555 266.544691 
L 219.301336 268.106888 
L 220.534117 269.245357 
L 221.766897 270.031574 
L 222.999678 270.520073 
L 224.232459 270.760001 
L 225.46524 270.78533 
L 227.314411 270.499343 
L 229.163582 269.935417 
L 231.012754 269.157034 
L 234.094706 267.549014 
L 239.025829 264.707636 
L 242.724171 262.38164 
L 246.422514 259.852754 
L 250.120856 257.061327 
L 255.66837 252.397148 
L 268.612568 241.215305 
L 271.07813 238.808833 
L 274.160082 235.439923 
L 276.625643 232.455065 
L 279.707595 228.384754 
L 282.173157 224.798211 
L 284.638719 220.870701 
L 287.10428 216.540186 
L 289.569842 211.708497 
L 291.419013 207.778182 
L 291.419013 207.778182 
" clip-path="url(#pe01bdda712)" style="fill: none; stroke: #ff0000; stroke-width: 1.5; stroke-linecap: square"/>
   </g>
   <g id="line2d_60">
    <path d="M 189.714596 254.661628 
L 190.330987 253.843639 
L 191.563768 262.678249 
L 192.796549 268.924127 
L 194.029329 273.584734 
L 195.26211 277.230608 
L 196.494891 280.177466 
L 197.727672 282.662223 
L 198.960453 284.805333 
L 200.809624 287.49967 
L 202.042405 288.969152 
L 203.275185 290.218119 
L 204.507966 291.255689 
L 205.740747 292.077351 
L 206.973528 292.722709 
L 208.206309 293.166412 
L 210.05548 293.538053 
L 211.904651 293.599422 
L 213.753822 293.427465 
L 216.219384 292.959856 
L 219.917726 291.924104 
L 227.314411 289.723521 
L 231.629144 288.771995 
L 244.573342 286.257604 
L 247.655294 285.346924 
L 250.120856 284.428963 
L 252.586418 283.284136 
L 255.051979 281.885724 
L 258.133931 279.793887 
L 261.215883 277.372985 
L 264.297835 274.589493 
L 277.242034 262.344856 
L 280.323986 259.056789 
L 282.789547 256.153274 
L 285.255109 252.939193 
L 287.720671 249.412491 
L 290.186232 245.512159 
L 291.419013 243.414736 
L 291.419013 243.414736 
" clip-path="url(#pe01bdda712)" style="fill: none; stroke-dasharray: 5.55,2.4; stroke-dashoffset: 0; stroke: #0000ff; stroke-width: 1.5"/>
   </g>
   <g id="line2d_61">
    <path d="M 189.714596 309.489066 
L 192.180158 309.246788 
L 194.029329 308.784794 
L 195.878501 308.121734 
L 198.344062 306.941233 
L 200.809624 305.443511 
L 203.891576 303.2102 
L 206.973528 301.060796 
L 210.05548 299.201648 
L 212.521041 297.966856 
L 214.370213 297.097447 
L 215.602993 296.273034 
L 217.452165 294.71562 
L 219.301336 292.849351 
L 221.766897 290.023472 
L 225.46524 285.345028 
L 232.245534 276.659431 
L 235.327486 273.065727 
L 238.409438 269.820135 
L 242.724171 265.649521 
L 253.819198 255.217684 
L 261.215883 248.254196 
L 271.07813 239.057209 
L 274.160082 235.62461 
L 277.242034 231.80643 
L 280.323986 227.621504 
L 282.789547 223.928642 
L 285.255109 219.894436 
L 287.720671 215.436412 
L 290.186232 210.468362 
L 291.419013 207.814718 
L 291.419013 207.814718 
" clip-path="url(#pe01bdda712)" style="fill: none; stroke-dasharray: 1.5,2.475; stroke-dashoffset: 0; stroke: #ff0000; stroke-width: 1.5"/>
   </g>
   <g id="line2d_62">
    <path d="M 189.714596 312.141818 
L 192.796549 311.942861 
L 195.878501 311.473055 
L 198.960453 310.748207 
L 201.426014 309.979773 
L 203.891576 309.007138 
L 206.357137 307.783701 
L 208.822699 306.277223 
L 211.288261 304.511646 
L 216.219384 300.582671 
L 220.534117 297.216265 
L 223.616069 295.062356 
L 226.08163 293.580186 
L 228.547192 292.3247 
L 231.629144 291.040052 
L 234.711096 289.994393 
L 247.655294 286.003518 
L 250.737246 284.685517 
L 253.202808 283.403196 
L 255.66837 281.858871 
L 258.750322 279.626854 
L 261.832274 277.070637 
L 265.530616 273.610896 
L 277.858424 261.774228 
L 280.940376 258.403855 
L 283.405938 255.416186 
L 285.871499 252.11556 
L 288.337061 248.499296 
L 290.802623 244.497527 
L 291.419013 243.433878 
L 291.419013 243.433878 
" clip-path="url(#pe01bdda712)" style="fill: none; stroke-dasharray: 1.5,2.475; stroke-dashoffset: 0; stroke: #0000ff; stroke-width: 1.5"/>
   </g>
   <g id="patch_15">
    <path d="M 184.598556 317.36 
L 184.598556 202.56 
" style="fill: none; stroke: #000000; stroke-linejoin: miter; stroke-linecap: square"/>
   </g>
   <g id="patch_16">
    <path d="M 184.598556 317.36 
L 297.151444 317.36 
" style="fill: none; stroke: #000000; stroke-linejoin: miter; stroke-linecap: square"/>
   </g>
   <g id="text_42">
    <!-- Init Sens:1000 Init Res:10 -->
    <g transform="translate(184.532656 196.56)scale(0.11 -0.11)">
     <use xlink:href="#Calibri-49"/>
     <use xlink:href="#Calibri-6e" x="25.195312"/>
     <use xlink:href="#Calibri-69" x="77.734375"/>
     <use xlink:href="#Calibri-74" x="100.683594"/>
     <use xlink:href="#Calibri-20" x="134.179688"/>
     <use xlink:href="#Calibri-53" x="156.787109"/>
     <use xlink:href="#Calibri-65" x="202.734375"/>
     <use xlink:href="#Calibri-6e" x="252.490234"/>
     <use xlink:href="#Calibri-73" x="305.029297"/>
     <use xlink:href="#Calibri-3a" x="344.140625"/>
     <use xlink:href="#Calibri-31" x="370.898438"/>
     <use xlink:href="#Calibri-30" x="421.582031"/>
     <use xlink:href="#Calibri-30" x="472.265625"/>
     <use xlink:href="#Calibri-30" x="522.949219"/>
     <use xlink:href="#Calibri-20" x="573.632812"/>
     <use xlink:href="#Calibri-49" x="596.240234"/>
     <use xlink:href="#Calibri-6e" x="621.435547"/>
     <use xlink:href="#Calibri-69" x="673.974609"/>
     <use xlink:href="#Calibri-74" x="696.923828"/>
     <use xlink:href="#Calibri-20" x="730.419922"/>
     <use xlink:href="#Calibri-52" x="753.027344"/>
     <use xlink:href="#Calibri-65" x="807.324219"/>
     <use xlink:href="#Calibri-73" x="857.080078"/>
     <use xlink:href="#Calibri-3a" x="896.191406"/>
     <use xlink:href="#Calibri-31" x="922.949219"/>
     <use xlink:href="#Calibri-30" x="973.632812"/>
    </g>
   </g>
  </g>
  <g id="axes_6">
   <g id="patch_17">
    <path d="M 336.367112 317.36 
L 448.92 317.36 
L 448.92 202.56 
L 336.367112 202.56 
z
" style="fill: #ffffff"/>
   </g>
   <g id="matplotlib.axis_11">
    <g id="xtick_15">
     <g id="line2d_63">
      <g>
       <use xlink:href="#mdc5dd479cc" x="341.483153" y="317.36" style="stroke: #000000; stroke-width: 0.8"/>
      </g>
     </g>
     <g id="text_43">
      <!-- 0 -->
      <g transform="translate(338.69534 331.841719)scale(0.11 -0.11)">
       <use xlink:href="#Calibri-30"/>
      </g>
     </g>
    </g>
    <g id="xtick_16">
     <g id="line2d_64">
      <g>
       <use xlink:href="#mdc5dd479cc" x="395.336209" y="317.36" style="stroke: #000000; stroke-width: 0.8"/>
      </g>
     </g>
     <g id="text_44">
      <!-- 200 -->
      <g transform="translate(386.972771 331.841719)scale(0.11 -0.11)">
       <use xlink:href="#Calibri-32"/>
       <use xlink:href="#Calibri-30" x="50.683594"/>
       <use xlink:href="#Calibri-30" x="101.367188"/>
      </g>
     </g>
    </g>
   </g>
   <g id="matplotlib.axis_12">
    <g id="ytick_19">
     <g id="line2d_65">
      <g>
       <use xlink:href="#m0597d7ef7e" x="336.367112" y="312.143958" style="stroke: #000000; stroke-width: 0.8"/>
      </g>
     </g>
     <g id="text_45">
      <!-- 0 -->
      <g transform="translate(323.791487 315.884818)scale(0.11 -0.11)">
       <use xlink:href="#Calibri-30"/>
      </g>
     </g>
    </g>
    <g id="ytick_20">
     <g id="line2d_66">
      <g>
       <use xlink:href="#m0597d7ef7e" x="336.367112" y="266.511077" style="stroke: #000000; stroke-width: 0.8"/>
      </g>
     </g>
     <g id="text_46">
      <!-- 1 -->
      <g transform="translate(323.791487 270.251936)scale(0.11 -0.11)">
       <use xlink:href="#Calibri-31"/>
      </g>
     </g>
    </g>
    <g id="ytick_21">
     <g id="line2d_67">
      <g>
       <use xlink:href="#m0597d7ef7e" x="336.367112" y="220.878196" style="stroke: #000000; stroke-width: 0.8"/>
      </g>
     </g>
     <g id="text_47">
      <!-- 2 -->
      <g transform="translate(323.791487 224.619055)scale(0.11 -0.11)">
       <use xlink:href="#Calibri-32"/>
      </g>
     </g>
    </g>
    <g id="text_48">
     <!-- 1e7 -->
     <g transform="translate(336.367112 199.56)scale(0.11 -0.11)">
      <use xlink:href="#Calibri-31"/>
      <use xlink:href="#Calibri-65" x="50.683594"/>
      <use xlink:href="#Calibri-37" x="100.439453"/>
     </g>
    </g>
   </g>
   <g id="line2d_68">
    <path d="M 443.80396 317.36 
L 443.80396 202.56 
" clip-path="url(#pd03d945f7e)" style="fill: none; stroke: #ff0000; stroke-width: 1.5; stroke-linecap: square"/>
   </g>
   <g id="line2d_69">
    <path d="M 423.339798 317.36 
L 423.339798 202.56 
" clip-path="url(#pd03d945f7e)" style="fill: none; stroke-dasharray: 5.55,2.4; stroke-dashoffset: 0; stroke: #0000ff; stroke-width: 1.5"/>
   </g>
   <g id="line2d_70">
    <path d="M 341.483153 266.294065 
L 341.752418 265.728665 
L 342.290948 272.914726 
L 343.098744 280.062245 
L 343.90654 284.879348 
L 344.983601 289.537922 
L 345.252867 290.54002 
L 346.329928 285.223023 
L 349.291846 269.636163 
L 350.368907 265.102728 
L 350.907438 271.71229 
L 351.715233 278.503047 
L 352.523029 283.204137 
L 353.60009 288.061689 
L 354.407886 291.062708 
L 355.484947 285.729999 
L 356.831274 277.712015 
L 358.446865 268.143265 
L 359.254661 264.04644 
L 359.793192 270.470482 
L 360.600988 277.177311 
L 361.408783 281.929305 
L 362.485845 286.958277 
L 363.562906 290.971889 
L 364.639967 285.525792 
L 365.717028 279.035341 
L 367.87115 265.173632 
L 368.140416 263.662641 
L 368.948211 272.265561 
L 369.756007 277.992374 
L 370.833068 283.758449 
L 371.910129 288.285418 
L 372.44866 290.198325 
L 373.525721 284.543006 
L 374.602782 277.79519 
L 376.756905 263.223762 
L 377.5647 271.49328 
L 378.372496 277.069065 
L 379.449557 282.747142 
L 380.526618 287.136382 
L 381.60368 290.617573 
L 382.680741 285.138186 
L 384.027067 277.041544 
L 385.911924 264.030766 
L 386.71972 271.421595 
L 387.527516 276.665872 
L 388.604577 282.111791 
L 389.681638 286.35652 
L 390.758699 289.738743 
L 391.027964 290.471205 
L 392.105026 285.52712 
L 393.182087 279.681799 
L 394.528413 270.956541 
L 395.605474 263.345246 
L 396.41327 270.401376 
L 397.490331 277.065762 
L 398.567392 282.239782 
L 399.644453 286.344213 
L 400.721515 289.663627 
L 400.99078 290.391841 
L 402.067841 285.702793 
L 403.144902 280.03654 
L 404.221963 273.311421 
L 405.56829 263.667688 
L 406.376086 270.315541 
L 407.453147 276.81306 
L 408.530208 281.844428 
L 409.607269 285.785106 
L 410.68433 288.935121 
L 411.222861 290.253496 
L 412.299922 285.567505 
L 413.376983 279.899924 
L 414.723309 271.330991 
L 415.80037 263.508004 
L 416.608166 269.510184 
L 417.415962 274.000692 
L 418.223758 277.536643 
L 419.031554 280.326026 
L 419.83935 282.494582 
L 420.647145 284.147346 
L 421.454941 285.371024 
L 422.262737 286.221429 
L 423.070533 286.735848 
L 423.878329 286.981677 
L 424.686125 287.004818 
L 425.493921 286.831367 
L 426.570982 286.333467 
L 427.648043 285.505969 
L 428.725104 284.372704 
L 429.802165 282.950017 
L 431.417757 280.319861 
L 433.033348 277.190892 
L 434.918205 272.906311 
L 438.687919 264.111157 
L 440.034246 261.606186 
L 441.111307 259.999717 
L 442.457633 258.380749 
L 443.534694 257.250523 
L 443.534694 257.250523 
" clip-path="url(#pd03d945f7e)" style="fill: none; stroke: #ff0000; stroke-width: 1.5; stroke-linecap: square"/>
   </g>
   <g id="line2d_71">
    <path d="M 341.483153 266.104602 
L 341.752418 265.452175 
L 342.290948 272.570065 
L 343.098744 279.70023 
L 343.90654 284.549089 
L 344.983601 289.286717 
L 346.060662 293.021413 
L 347.137724 296.051044 
L 348.214785 298.556257 
L 349.561111 301.082635 
L 350.907438 303.102378 
L 352.253764 304.72663 
L 353.60009 306.035281 
L 354.946417 307.087424 
L 356.562008 308.074231 
L 358.1776 308.812982 
L 360.062457 309.407154 
L 361.947314 309.747543 
L 363.562906 309.836742 
L 365.178497 309.727588 
L 366.794089 309.392725 
L 368.409681 308.798548 
L 371.910129 307.389108 
L 377.833966 305.415107 
L 380.257353 304.954393 
L 383.488537 304.584917 
L 388.335312 304.042999 
L 391.29723 303.4744 
L 393.451352 302.826399 
L 395.605474 301.900129 
L 400.721515 299.382737 
L 402.606372 298.209972 
L 404.221963 296.924895 
L 405.56829 295.554558 
L 406.914616 293.810177 
L 408.260942 291.626671 
L 409.876534 288.488261 
L 413.646248 280.470477 
L 415.80037 275.412076 
L 421.993472 259.904348 
L 424.147594 253.872704 
L 430.879226 234.223673 
L 434.918205 223.931578 
L 437.072328 218.853072 
L 438.687919 215.698676 
L 440.572776 212.58718 
L 443.534694 207.778182 
L 443.534694 207.778182 
" clip-path="url(#pd03d945f7e)" style="fill: none; stroke-dasharray: 5.55,2.4; stroke-dashoffset: 0; stroke: #0000ff; stroke-width: 1.5"/>
   </g>
   <g id="line2d_72">
    <path d="M 341.483153 312.141818 
L 365.986293 312.034476 
L 372.987191 311.785284 
L 379.180292 311.219422 
L 381.334414 310.738963 
L 384.027067 310.086855 
L 386.181189 309.841574 
L 387.796781 309.570894 
L 393.182087 308.496641 
L 397.490331 308.238934 
L 409.876534 307.158931 
L 412.030656 306.666329 
L 414.184779 305.958211 
L 417.146697 304.756848 
L 418.493023 303.867235 
L 419.83935 302.688082 
L 421.185676 301.188165 
L 422.532002 299.394045 
L 424.686125 296.077625 
L 427.109512 291.964008 
L 429.263634 287.835792 
L 431.148491 283.758066 
L 433.302614 278.61529 
L 436.264532 270.778687 
L 438.418654 265.39126 
L 439.76498 262.589196 
L 441.111307 260.385985 
L 442.457633 258.662605 
L 443.534694 257.46977 
L 443.534694 257.46977 
" clip-path="url(#pd03d945f7e)" style="fill: none; stroke-dasharray: 1.5,2.475; stroke-dashoffset: 0; stroke: #ff0000; stroke-width: 1.5"/>
   </g>
   <g id="line2d_73">
    <path d="M 341.483153 312.134718 
L 354.677151 312.023036 
L 359.254661 311.794456 
L 362.216579 311.4557 
L 364.639967 310.954268 
L 366.524824 310.340383 
L 368.140416 309.593372 
L 371.371599 307.990198 
L 375.949109 306.140615 
L 378.103231 305.482406 
L 380.257353 305.045298 
L 383.488537 304.63854 
L 388.604577 304.024148 
L 391.29723 303.48939 
L 393.451352 302.837251 
L 395.605474 301.90791 
L 400.721515 299.386127 
L 402.606372 298.212463 
L 404.221963 296.92683 
L 405.56829 295.556118 
L 406.914616 293.811373 
L 408.260942 291.627565 
L 409.876534 288.488945 
L 413.646248 280.470801 
L 415.80037 275.412282 
L 421.993472 259.904389 
L 424.147594 253.872722 
L 430.879226 234.223673 
L 434.918205 223.931578 
L 437.072328 218.853072 
L 438.687919 215.698676 
L 440.572776 212.58718 
L 443.534694 207.778182 
L 443.534694 207.778182 
" clip-path="url(#pd03d945f7e)" style="fill: none; stroke-dasharray: 1.5,2.475; stroke-dashoffset: 0; stroke: #0000ff; stroke-width: 1.5"/>
   </g>
   <g id="patch_18">
    <path d="M 336.367112 317.36 
L 336.367112 202.56 
" style="fill: none; stroke: #000000; stroke-linejoin: miter; stroke-linecap: square"/>
   </g>
   <g id="patch_19">
    <path d="M 336.367112 317.36 
L 448.92 317.36 
" style="fill: none; stroke: #000000; stroke-linejoin: miter; stroke-linecap: square"/>
   </g>
   <g id="text_49">
    <!-- Init Sens:10000 Init Res:10 -->
    <g transform="translate(333.5134 196.56)scale(0.11 -0.11)">
     <use xlink:href="#Calibri-49"/>
     <use xlink:href="#Calibri-6e" x="25.195312"/>
     <use xlink:href="#Calibri-69" x="77.734375"/>
     <use xlink:href="#Calibri-74" x="100.683594"/>
     <use xlink:href="#Calibri-20" x="134.179688"/>
     <use xlink:href="#Calibri-53" x="156.787109"/>
     <use xlink:href="#Calibri-65" x="202.734375"/>
     <use xlink:href="#Calibri-6e" x="252.490234"/>
     <use xlink:href="#Calibri-73" x="305.029297"/>
     <use xlink:href="#Calibri-3a" x="344.140625"/>
     <use xlink:href="#Calibri-31" x="370.898438"/>
     <use xlink:href="#Calibri-30" x="421.582031"/>
     <use xlink:href="#Calibri-30" x="472.265625"/>
     <use xlink:href="#Calibri-30" x="522.949219"/>
     <use xlink:href="#Calibri-30" x="573.632812"/>
     <use xlink:href="#Calibri-20" x="624.316406"/>
     <use xlink:href="#Calibri-49" x="646.923828"/>
     <use xlink:href="#Calibri-6e" x="672.119141"/>
     <use xlink:href="#Calibri-69" x="724.658203"/>
     <use xlink:href="#Calibri-74" x="747.607422"/>
     <use xlink:href="#Calibri-20" x="781.103516"/>
     <use xlink:href="#Calibri-52" x="803.710938"/>
     <use xlink:href="#Calibri-65" x="858.007812"/>
     <use xlink:href="#Calibri-73" x="907.763672"/>
     <use xlink:href="#Calibri-3a" x="946.875"/>
     <use xlink:href="#Calibri-31" x="973.632812"/>
     <use xlink:href="#Calibri-30" x="1024.316406"/>
    </g>
   </g>
  </g>
  <g id="text_50">
   <!-- detectionSize_10000000 -->
   <g transform="translate(175.233281 14.388562)scale(0.11 -0.11)">
    <defs>
     <path id="Calibri-64" d="M 2888 78 
Q 2888 53 2877 34 
Q 2866 16 2839 5 
Q 2813 -6 2769 -12 
Q 2725 -19 2663 -19 
Q 2597 -19 2553 -12 
Q 2509 -6 2481 5 
Q 2453 16 2440 34 
Q 2428 53 2428 78 
L 2428 450 
Q 2206 209 1967 75 
Q 1728 -59 1444 -59 
Q 1134 -59 915 61 
Q 697 181 561 386 
Q 425 591 362 867 
Q 300 1144 300 1450 
Q 300 1813 378 2105 
Q 456 2397 609 2603 
Q 763 2809 989 2920 
Q 1216 3031 1513 3031 
Q 1759 3031 1964 2923 
Q 2169 2816 2369 2606 
L 2369 4241 
Q 2369 4263 2380 4283 
Q 2391 4303 2422 4314 
Q 2453 4325 2501 4333 
Q 2550 4341 2625 4341 
Q 2703 4341 2753 4333 
Q 2803 4325 2831 4314 
Q 2859 4303 2873 4283 
Q 2888 4263 2888 4241 
L 2888 78 
z
M 2369 2056 
Q 2159 2316 1964 2452 
Q 1769 2588 1556 2588 
Q 1359 2588 1221 2494 
Q 1084 2400 998 2247 
Q 913 2094 873 1900 
Q 834 1706 834 1506 
Q 834 1294 867 1091 
Q 900 888 981 730 
Q 1063 572 1197 476 
Q 1331 381 1534 381 
Q 1638 381 1733 409 
Q 1828 438 1928 503 
Q 2028 569 2137 673 
Q 2247 778 2369 931 
L 2369 2056 
z
" transform="scale(0.015625)"/>
     <path id="Calibri-63" d="M 2500 506 
Q 2500 453 2497 414 
Q 2494 375 2486 348 
Q 2478 322 2467 301 
Q 2456 281 2417 242 
Q 2378 203 2284 145 
Q 2191 88 2073 42 
Q 1956 -3 1818 -31 
Q 1681 -59 1534 -59 
Q 1231 -59 997 41 
Q 763 141 605 333 
Q 447 525 364 804 
Q 281 1084 281 1450 
Q 281 1866 382 2164 
Q 484 2463 661 2653 
Q 838 2844 1077 2936 
Q 1316 3028 1594 3028 
Q 1728 3028 1854 3003 
Q 1981 2978 2087 2937 
Q 2194 2897 2276 2844 
Q 2359 2791 2396 2753 
Q 2434 2716 2448 2694 
Q 2463 2672 2472 2642 
Q 2481 2613 2484 2575 
Q 2488 2538 2488 2481 
Q 2488 2359 2459 2311 
Q 2431 2263 2391 2263 
Q 2344 2263 2283 2314 
Q 2222 2366 2128 2428 
Q 2034 2491 1901 2542 
Q 1769 2594 1588 2594 
Q 1216 2594 1017 2308 
Q 819 2022 819 1478 
Q 819 1206 870 1001 
Q 922 797 1022 659 
Q 1122 522 1267 455 
Q 1413 388 1600 388 
Q 1778 388 1912 444 
Q 2047 500 2145 567 
Q 2244 634 2311 689 
Q 2378 744 2416 744 
Q 2438 744 2453 731 
Q 2469 719 2480 689 
Q 2491 659 2495 614 
Q 2500 569 2500 506 
z
" transform="scale(0.015625)"/>
     <path id="Calibri-6f" d="M 3094 1516 
Q 3094 1172 3003 883 
Q 2913 594 2733 384 
Q 2553 175 2283 58 
Q 2013 -59 1656 -59 
Q 1309 -59 1051 44 
Q 794 147 622 344 
Q 450 541 365 822 
Q 281 1103 281 1459 
Q 281 1803 370 2092 
Q 459 2381 639 2590 
Q 819 2800 1087 2915 
Q 1356 3031 1716 3031 
Q 2063 3031 2320 2928 
Q 2578 2825 2750 2628 
Q 2922 2431 3008 2150 
Q 3094 1869 3094 1516 
z
M 2550 1481 
Q 2550 1709 2508 1912 
Q 2466 2116 2369 2269 
Q 2272 2422 2106 2511 
Q 1941 2600 1694 2600 
Q 1466 2600 1302 2519 
Q 1138 2438 1031 2289 
Q 925 2141 873 1937 
Q 822 1734 822 1494 
Q 822 1263 864 1059 
Q 906 856 1004 704 
Q 1103 553 1268 464 
Q 1434 375 1681 375 
Q 1906 375 2072 456 
Q 2238 538 2344 684 
Q 2450 831 2500 1034 
Q 2550 1238 2550 1481 
z
" transform="scale(0.015625)"/>
     <path id="Calibri-7a" d="M 2272 219 
Q 2272 159 2262 117 
Q 2253 75 2240 48 
Q 2228 22 2206 11 
Q 2184 0 2159 0 
L 428 0 
Q 363 0 320 44 
Q 278 88 278 191 
L 278 297 
Q 278 341 284 375 
Q 291 409 303 443 
Q 316 478 337 517 
Q 359 556 391 606 
L 1631 2538 
L 428 2538 
Q 378 2538 348 2589 
Q 319 2641 319 2756 
Q 319 2813 325 2855 
Q 331 2897 345 2923 
Q 359 2950 379 2961 
Q 400 2972 428 2972 
L 2041 2972 
Q 2075 2972 2101 2962 
Q 2128 2953 2147 2931 
Q 2166 2909 2177 2875 
Q 2188 2841 2188 2788 
L 2188 2688 
Q 2188 2644 2181 2606 
Q 2175 2569 2162 2533 
Q 2150 2497 2128 2456 
Q 2106 2416 2075 2366 
L 841 434 
L 2159 434 
Q 2184 434 2204 423 
Q 2225 413 2239 388 
Q 2253 363 2262 320 
Q 2272 278 2272 219 
z
" transform="scale(0.015625)"/>
     <path id="Calibri-5f" d="M 3200 -931 
Q 3200 -1041 3175 -1091 
Q 3150 -1141 3097 -1141 
L 88 -1141 
Q 34 -1141 6 -1094 
Q -22 -1047 -22 -938 
Q -22 -831 6 -778 
Q 34 -725 88 -725 
L 3097 -725 
Q 3147 -725 3173 -775 
Q 3200 -825 3200 -931 
z
" transform="scale(0.015625)"/>
    </defs>
    <use xlink:href="#Calibri-64"/>
    <use xlink:href="#Calibri-65" x="52.539062"/>
    <use xlink:href="#Calibri-74" x="102.294922"/>
    <use xlink:href="#Calibri-65" x="135.791016"/>
    <use xlink:href="#Calibri-63" x="185.546875"/>
    <use xlink:href="#Calibri-74" x="227.832031"/>
    <use xlink:href="#Calibri-69" x="261.328125"/>
    <use xlink:href="#Calibri-6f" x="284.277344"/>
    <use xlink:href="#Calibri-6e" x="337.011719"/>
    <use xlink:href="#Calibri-53" x="389.550781"/>
    <use xlink:href="#Calibri-69" x="435.498047"/>
    <use xlink:href="#Calibri-7a" x="458.447266"/>
    <use xlink:href="#Calibri-65" x="497.949219"/>
    <use xlink:href="#Calibri-5f" x="547.705078"/>
    <use xlink:href="#Calibri-31" x="597.509766"/>
    <use xlink:href="#Calibri-30" x="648.193359"/>
    <use xlink:href="#Calibri-30" x="698.876953"/>
    <use xlink:href="#Calibri-30" x="749.560547"/>
    <use xlink:href="#Calibri-30" x="800.244141"/>
    <use xlink:href="#Calibri-30" x="850.927734"/>
    <use xlink:href="#Calibri-30" x="901.611328"/>
    <use xlink:href="#Calibri-30" x="952.294922"/>
   </g>
  </g>
 </g>
 <defs>
  <clipPath id="p67eccabcd4">
   <rect x="32.83" y="46.32" width="112.552888" height="114.8"/>
  </clipPath>
  <clipPath id="pacbc479763">
   <rect x="184.598556" y="46.32" width="112.552888" height="114.8"/>
  </clipPath>
  <clipPath id="p2caa761569">
   <rect x="336.367112" y="46.32" width="112.552888" height="114.8"/>
  </clipPath>
  <clipPath id="p0af5ca1c2d">
   <rect x="32.83" y="202.56" width="112.552888" height="114.8"/>
  </clipPath>
  <clipPath id="pe01bdda712">
   <rect x="184.598556" y="202.56" width="112.552888" height="114.8"/>
  </clipPath>
  <clipPath id="pd03d945f7e">
   <rect x="336.367112" y="202.56" width="112.552888" height="114.8"/>
  </clipPath>
 </defs>
</svg>
